<svg id="РЎР_РѕР_1" data-name="РЎР»РѕР№ 1" xmlns="http://www.w3.org/2000/svg" xmlns:xlink="http://www.w3.org/1999/xlink" viewBox="0 0 488.81 488.81"><defs><style>.cls-1{fill:#fff;}.cls-10,.cls-11,.cls-12,.cls-13,.cls-14,.cls-15,.cls-16,.cls-17,.cls-18,.cls-19,.cls-2,.cls-20,.cls-22,.cls-24,.cls-3,.cls-4,.cls-5,.cls-6,.cls-7,.cls-8,.cls-9{fill-rule:evenodd;}.cls-2{fill:url(#GradientFill_1);}.cls-21,.cls-24,.cls-25,.cls-3{fill:#2d2579;}.cls-4{fill:#1b2d6b;}.cls-5{fill:#16306c;}.cls-6{fill:#657083;}.cls-7{fill:#999ca5;}.cls-8{fill:#7a8190;}.cls-9{fill:#7a8091;}.cls-10{fill:url(#GradientFill_2);}.cls-11{fill:#9698a3;}.cls-12{fill:#878b98;}.cls-13{fill:url(#GradientFill_3);}.cls-14{fill:#667185;}.cls-15{fill:url(#GradientFill_4);}.cls-16{fill:url(#GradientFill_4-2);}.cls-17{fill:url(#GradientFill_4-3);}.cls-18{fill:url(#GradientFill_4-4);}.cls-19{fill:url(#GradientFill_4-5);}.cls-20{fill:url(#GradientFill_4-6);}.cls-22,.cls-23{fill:none;}.cls-22,.cls-23,.cls-24,.cls-25{stroke:#003e7d;stroke-miterlimit:22.93;stroke-width:0.28px;}</style><radialGradient id="GradientFill_1" cx="290.78" cy="410.6" r="239.51" gradientUnits="userSpaceOnUse"><stop offset="0" stop-color="#fff"/><stop offset="0.32" stop-color="#fcfdfe"/><stop offset="0.53" stop-color="#f4f6fa"/><stop offset="0.7" stop-color="#e5e9f4"/><stop offset="0.86" stop-color="#d0d8ea"/><stop offset="1" stop-color="#b6c2df"/></radialGradient><linearGradient id="GradientFill_2" x1="264.8" y1="151.49" x2="299.83" y2="151.49" gradientUnits="userSpaceOnUse"><stop offset="0" stop-color="#2d2579"/><stop offset="0.3" stop-color="#7392c9"/><stop offset="0.99" stop-color="#f7f9fd"/><stop offset="1" stop-color="#f7fafe"/></linearGradient><linearGradient id="GradientFill_3" x1="101.3" y1="481.6" x2="308.85" y2="312.45" gradientUnits="userSpaceOnUse"><stop offset="0" stop-color="#2d2579"/><stop offset="0.12" stop-color="#223975"/><stop offset="0.28" stop-color="#6989c3"/><stop offset="0.52" stop-color="#ced2ec"/><stop offset="1" stop-color="#f7fafe"/></linearGradient><linearGradient id="GradientFill_4" x1="285.85" y1="341.34" x2="483.46" y2="404.55" gradientUnits="userSpaceOnUse"><stop offset="0" stop-color="#2d2579"/><stop offset="0.29" stop-color="#6989c4"/><stop offset="0.62" stop-color="#ced2ec"/><stop offset="1" stop-color="#f7f9fd"/></linearGradient><linearGradient id="GradientFill_4-2" x1="274.08" y1="366.08" x2="471.64" y2="429.38" xlink:href="#GradientFill_4"/><linearGradient id="GradientFill_4-3" x1="262.16" y1="390.8" x2="459.72" y2="454.1" xlink:href="#GradientFill_4"/><linearGradient id="GradientFill_4-4" x1="250.58" y1="415.69" x2="448.09" y2="479" xlink:href="#GradientFill_4"/><linearGradient id="GradientFill_4-5" x1="238.72" y1="440.31" x2="436.23" y2="503.62" xlink:href="#GradientFill_4"/><linearGradient id="GradientFill_4-6" x1="227.03" y1="465.34" x2="424.58" y2="528.56" xlink:href="#GradientFill_4"/></defs><circle class="cls-1" cx="244.41" cy="244.41" r="244.41"/><path class="cls-2" d="M171.25,530.6A169.37,169.37,0,1,1,290.76,580,168.85,168.85,0,0,1,171.25,530.6Z" transform="translate(-46.36 -166.19)"/><path class="cls-3" d="M197.14,206.36,199,218.58l-5,2.36-2.75-11.79,5.91-2.79Zm10-4.72h0L209,213.86l-5,2.36-2.75-11.79Z" transform="translate(-46.36 -166.19)"/><path class="cls-3" d="M197.65,206.85l1.83,12.22-5,2.36-2.75-11.79,5.92-2.79Zm10-4.71h0l1.83,12.22-5,2.35-2.75-11.78Z" transform="translate(-46.36 -166.19)"/><path class="cls-3" d="M74.66,470.09l11.86,0L88,475.66l-11.6,1-1.73-6.53Zm2.93,11h0l11.87.05,1.46,5.52-11.6,1Z" transform="translate(-46.36 -166.19)"/><path class="cls-3" d="M75.19,470.56l11.86,0,1.46,5.52-11.59,1-1.73-6.53Zm2.93,11h0l11.86,0,1.47,5.53-11.6,1Z" transform="translate(-46.36 -166.19)"/><path class="cls-3" d="M80.31,438.63c-3.45.75-5.26,3.17-5.33,7.22-.08,4.88,3.27,8,8.87,8.07s9.05-2.87,9.13-7.76c.07-4.31-2.09-7-5.75-7.47l.11-6.71c6.9.76,11.53,6.23,11.4,14.29-.15,9-6.11,14.54-15,14.39s-14.66-5.92-14.52-14.91c.14-8.05,4.86-13.3,11.2-13.79Z" transform="translate(-46.36 -166.19)"/><path class="cls-3" d="M80.81,439.12c-3.45.75-5.26,3.18-5.33,7.22-.08,4.88,3.27,8,8.87,8.07s9.05-2.87,9.13-7.75c.07-4.31-2.09-7-5.75-7.48l.11-6.71c6.9.77,11.53,6.24,11.4,14.29-.15,9-6.11,14.55-15,14.39s-14.66-5.92-14.52-14.91c.14-8.05,4.86-13.29,11.2-13.79Z" transform="translate(-46.36 -166.19)"/><path class="cls-3" d="M82.47,393.15c8.83,1,14.07,7.29,13.11,16.23s-7.39,13.88-16.22,12.86S65.3,414.91,66.25,406s7.39-13.85,16.22-12.82Zm-2.39,22.39h0c5.56.65,9.26-2,9.78-6.82s-2.54-8.23-8.1-8.88-9.27,1.94-9.79,6.8S74.51,414.9,80.08,415.54Z" transform="translate(-46.36 -166.19)"/><path class="cls-3" d="M83,393.64c8.83,1,14.07,7.3,13.11,16.23s-7.39,13.89-16.22,12.86-14.06-7.32-13.11-16.26S74.14,392.62,83,393.64ZM80.58,416h0c5.56.64,9.26-2,9.78-6.83s-2.54-8.23-8.1-8.87-9.27,1.94-9.79,6.79S75,415.39,80.58,416Z" transform="translate(-46.36 -166.19)"/><polygon class="cls-3" points="23.16 206.5 45.1 199.31 25.84 194.59 27.14 188.85 54.43 195.55 52.8 202.79 30.66 210.03 50.09 214.79 48.8 220.53 21.5 213.84 23.16 206.5"/><polygon class="cls-3" points="23.66 206.99 45.6 199.81 26.34 195.09 27.64 189.35 54.93 196.04 53.3 203.29 31.16 210.52 50.59 215.28 49.3 221.02 22 214.33 23.66 206.99"/><path class="cls-3" d="M93.66,328.32c-3.46-.67-6,.86-7.55,4.57-1.85,4.49.13,8.68,5.27,11s9.42.92,11.27-3.56c1.63-4,.61-7.32-2.61-9.2l2.54-6.16c6.11,3.44,8.4,10.33,5.36,17.73-3.41,8.26-10.94,11-19.1,7.38s-11.43-11.27-8-19.54c3-7.39,9.31-10.37,15.36-8.32Z" transform="translate(-46.36 -166.19)"/><path class="cls-3" d="M94.16,328.82c-3.46-.67-6,.85-7.55,4.57-1.85,4.49.13,8.67,5.27,11s9.42.92,11.27-3.57c1.63-4,.61-7.32-2.61-9.2l2.54-6.15c6.11,3.43,8.4,10.32,5.36,17.72-3.41,8.26-10.94,11.05-19.1,7.39s-11.43-11.28-8-19.54c3-7.4,9.31-10.38,15.36-8.33Z" transform="translate(-46.36 -166.19)"/><polygon class="cls-3" points="54.83 124.05 59.73 127.2 51.89 140.48 55.87 143.04 62.84 131.22 67.74 134.37 60.77 146.18 65.97 149.52 73.8 136.24 78.7 139.39 67.78 157.89 43.91 142.55 54.83 124.05"/><polygon class="cls-3" points="55.33 124.55 60.23 127.69 52.39 140.97 56.37 143.53 63.34 131.71 68.24 134.86 61.27 146.68 66.47 150.02 74.3 136.74 79.2 139.88 68.28 158.38 44.41 143.04 55.33 124.55"/><path class="cls-3" d="M108,280l9-11.69c3.84-4.95,7.47-5.92,11.58-2.46,2.59,2.18,3.77,5.08,3.1,7.8,2.55-1.23,3.93-.46,6.51,1.54s4.65,3.74,6.56,3.83l-4.14,5.35a4.45,4.45,0,0,1-2-1l-1.51-1.26c-3.7-3.11-5.22-3.57-7.41-.74l-4.26,5.5,8,6.75-3.69,4.77L108,280Zm13,3.07h0l4.18-5.4c2-2.57,2.46-4.33.41-6.05s-3.29-.56-5.42,2.19l-4,5.19Z" transform="translate(-46.36 -166.19)"/><path class="cls-3" d="M108.46,280.53l9-11.7c3.84-4.95,7.47-5.92,11.58-2.45,2.59,2.17,3.77,5.07,3.1,7.8,2.55-1.24,3.93-.46,6.51,1.53s4.65,3.74,6.56,3.84l-4.14,5.34a4.53,4.53,0,0,1-2-1l-1.51-1.27c-3.7-3.11-5.22-3.57-7.41-.74L126,287.37l8,6.75-3.69,4.77-21.83-18.36Zm13,3.07h0l4.18-5.4c2-2.57,2.46-4.34.41-6.06s-3.29-.56-5.42,2.19l-4,5.19Z" transform="translate(-46.36 -166.19)"/><polygon class="cls-3" points="93.01 78.45 114.78 86.18 101.92 70.51 106.21 66.68 124.44 88.9 119.02 93.74 97.06 85.92 110.04 101.75 105.74 105.58 87.51 83.36 93.01 78.45"/><polygon class="cls-3" points="93.51 78.95 115.28 86.68 102.42 71 106.71 67.17 124.94 89.4 119.52 94.23 97.56 86.42 110.54 102.24 106.24 106.07 88.01 83.85 93.51 78.95"/><path class="cls-3" d="M234.69,203.34c-1.91-2.82-4.48-3.72-7.83-2.7-4.49,1.36-6.33,5.61-4.76,11.22s5.31,8.17,9.8,6.8a7.32,7.32,0,0,0,5.33-6.57l-5.11,1.55-1.62-5.76,11.11-3.37,4.29,15.35-4.28,1.3-1.2-3.07a10.82,10.82,0,0,1-7.21,6.43c-7.7,2.33-14.82-1.84-17.32-10.77s1.08-16.36,9.36-18.88c7.14-2.16,13.24.77,15.58,6.6Z" transform="translate(-46.36 -166.19)"/><path class="cls-3" d="M235.19,203.83c-1.9-2.82-4.48-3.72-7.83-2.7-4.49,1.37-6.33,5.62-4.76,11.23s5.31,8.16,9.8,6.8a7.34,7.34,0,0,0,5.33-6.58l-5.11,1.56L231,208.38,242.11,205l4.29,15.36-4.28,1.3-1.2-3.08a10.8,10.8,0,0,1-7.21,6.43c-7.7,2.34-14.82-1.84-17.32-10.77s1.08-16.36,9.36-18.87c7.13-2.17,13.24.76,15.58,6.6Z" transform="translate(-46.36 -166.19)"/><path class="cls-3" d="M250.48,188.87l14.24-2.27c6-1,9.33.87,10.14,6.33.5,3.42-.5,6.39-2.76,7.93,2.68.88,3.2,2.43,3.81,5.71.64,3.45,1,6,2.37,7.45l-6.52,1a5,5,0,0,1-.8-2.15l-.29-2c-.72-4.9-1.55-6.32-5-5.77l-6.7,1.07,1.56,10.63-5.81.93-4.24-28.91Zm7.62,11.42h0l6.57-1c3.13-.5,4.62-1.47,4.23-4.18s-2.07-2.73-5.42-2.19l-6.32,1Z" transform="translate(-46.36 -166.19)"/><path class="cls-3" d="M251,189.36l14.23-2.27c6-1,9.34.87,10.15,6.33.5,3.42-.5,6.4-2.76,7.94,2.68.88,3.2,2.42,3.81,5.71.64,3.44,1,6,2.37,7.45l-6.52,1a5,5,0,0,1-.8-2.16l-.29-2c-.72-4.9-1.55-6.31-5-5.76l-6.7,1.07L261,217.35l-5.81.93L251,189.36Zm7.62,11.42h0l6.57-1.05c3.13-.5,4.62-1.47,4.23-4.18s-2.07-2.72-5.42-2.19l-6.32,1Z" transform="translate(-46.36 -166.19)"/><path class="cls-3" d="M295.59,185.26l5.62.16L311.12,215l-6.52-.19-2-6.26-10.33-.3L290,214.35l-6.33-.18,11.88-28.91Zm5.07,17.27h0l-2.9-9.11-3.3,8.93Z" transform="translate(-46.36 -166.19)"/><path class="cls-3" d="M296.09,185.75l5.62.17,9.91,29.53-6.52-.18-2-6.27-10.33-.29-2.26,6.14-6.33-.18,11.88-28.92ZM301.16,203h0l-2.9-9.11-3.3,8.94Z" transform="translate(-46.36 -166.19)"/><polygon class="cls-3" points="282.11 22.18 289.88 44.74 293.63 24.49 299.17 25.6 293.86 54.33 286.85 52.91 279.03 30.13 275.25 50.58 269.7 49.47 275.01 20.75 282.11 22.18"/><polygon class="cls-3" points="282.61 22.67 290.38 45.24 294.13 24.98 299.67 26.1 294.36 54.82 287.35 53.41 279.53 30.63 275.75 51.08 270.2 49.96 275.51 21.24 282.61 22.67"/><polygon class="cls-3" points="307.19 58.48 301.56 56.73 309.58 28.7 315.21 30.45 307.19 58.48"/><path class="cls-3" d="M502.86,487.86l-10.07-6.51,1.56-5.49,10.35,5.5-1.84,6.5Zm3.12-11h0l1.84-6.5-10.35-5.51-1.56,5.49Z" transform="translate(-46.36 -166.19)"/><path class="cls-3" d="M503.14,488.42l-9.95-6.69,1.65-5.47L505.1,482l-2,6.47Zm3.31-10.93h0l2-6.47-10.26-5.69-1.65,5.47Z" transform="translate(-46.36 -166.19)"/><polygon class="cls-3" points="307.69 58.98 302.06 57.22 310.08 29.2 315.71 30.95 307.69 58.98"/><polygon class="cls-3" points="343.66 42.18 341.35 47.68 333.98 44.31 325.04 65.6 319.66 63.14 328.6 41.85 321.24 38.49 323.55 32.99 343.66 42.18"/><polygon class="cls-3" points="343.87 42.96 341.56 48.46 334.2 45.09 325.26 66.38 319.87 63.92 328.82 42.63 321.45 39.27 323.76 33.77 343.87 42.96"/><polygon class="cls-3" points="351.24 61.68 349.38 65.76 339.18 60.69 341.03 56.62 351.24 61.68"/><polygon class="cls-3" points="351.74 62.18 349.88 66.25 339.68 61.19 341.53 57.11 351.74 62.18"/><polygon class="cls-3" points="384.14 67.67 380.86 72.6 368.57 63.7 365.91 67.71 376.84 75.62 373.56 80.56 362.62 72.64 359.14 77.87 371.43 86.76 368.15 91.69 351.03 79.3 367.02 55.27 384.14 67.67"/><polygon class="cls-3" points="384.64 68.16 381.36 73.09 369.07 64.2 366.41 68.2 377.34 76.12 374.06 81.05 363.12 73.13 359.64 78.36 371.93 87.26 368.65 92.19 351.53 79.8 367.52 55.77 384.64 68.16"/><polygon class="cls-3" points="382.88 96.53 392.15 104.55 388.47 109.17 374.68 97.23 392.59 74.73 397.11 78.65 382.88 96.53"/><polygon class="cls-3" points="383.38 97.02 392.65 105.05 388.97 109.66 375.18 97.72 393.09 75.22 397.61 79.14 383.38 97.02"/><polygon class="cls-3" points="426.36 111.92 421.92 115.73 412.43 103.67 408.82 106.77 417.25 117.49 412.8 121.3 404.36 110.57 399.64 114.61 409.13 126.66 404.68 130.47 391.47 113.68 413.15 95.13 426.36 111.92"/><polygon class="cls-3" points="426.86 112.42 422.42 116.22 412.93 104.17 409.32 107.26 417.75 117.98 413.3 121.79 404.86 111.07 400.14 115.1 409.63 127.16 405.18 130.96 391.97 114.17 413.65 95.63 426.86 112.42"/><path class="cls-3" d="M480.79,311.19c2.46-2.62,2.67-5.7.56-9.09-2.55-4.09-7-4.71-11.68-1.53s-6,7.65-3.43,11.75c2.25,3.62,5.49,4.6,8.78,2.86l3.5,5.62c-6.14,3.39-12.9,1.54-17.1-5.21-4.7-7.55-2.73-15.63,4.73-20.67s15.33-3.63,20,3.92c4.2,6.75,3.09,13.85-1.91,18Z" transform="translate(-46.36 -166.19)"/><path class="cls-3" d="M481.29,311.69c2.46-2.63,2.67-5.7.56-9.09-2.55-4.1-7-4.71-11.68-1.54s-6,7.66-3.43,11.75c2.25,3.62,5.49,4.6,8.78,2.86l3.5,5.62c-6.14,3.39-12.9,1.54-17.1-5.21-4.7-7.55-2.73-15.62,4.73-20.67s15.33-3.62,20,3.92c4.2,6.75,3.09,13.85-1.91,17.95Z" transform="translate(-46.36 -166.19)"/><polygon class="cls-3" points="457.79 176.68 452.44 178.88 449.49 171.07 428.75 179.59 426.6 173.89 447.34 165.37 444.39 157.57 449.75 155.37 457.79 176.68"/><polygon class="cls-3" points="459.43 176.61 454.07 178.81 451.12 171 430.39 179.52 428.23 173.81 448.97 165.3 446.02 157.5 451.38 155.3 459.43 176.61"/><path class="cls-3" d="M509,356.76l3.12,14.65c1.32,6.21-.22,9.78-5.39,11-3.24.76-6.15-.08-7.77-2.33-.67,2.85-2.11,3.5-5.21,4.36-3.26.9-5.71,1.47-7,3l-1.43-6.7a4.69,4.69,0,0,1,2-1l1.89-.44c4.64-1.08,5.93-2,5.18-5.59l-1.46-6.9-10.08,2.35-1.27-6L509,356.76Zm-10.42,8.71h0l1.44,6.77c.69,3.22,1.72,4.7,4.28,4.1s2.47-2.33,1.74-5.78l-1.39-6.51Z" transform="translate(-46.36 -166.19)"/><path class="cls-3" d="M509.47,357.26l3.11,14.66c1.33,6.21-.21,9.78-5.38,11-3.24.76-6.15-.08-7.78-2.32-.66,2.85-2.1,3.49-5.21,4.36s-5.7,1.47-7,3l-1.43-6.7a4.38,4.38,0,0,1,2-1l1.88-.44c4.64-1.08,5.94-2,5.19-5.59l-1.47-6.9-10.07,2.35-1.27-6,27.38-6.4ZM499.05,366h0l1.44,6.76c.68,3.23,1.71,4.71,4.28,4.11s2.47-2.34,1.73-5.79l-1.38-6.5Z" transform="translate(-46.36 -166.19)"/><path class="cls-3" d="M503.89,422.22c-8.68,2-15.58-2.13-17.46-10.91s2.66-15.63,11.33-17.66,15.59,2.17,17.47,10.94-2.67,15.61-11.34,17.63Zm-4.72-22h0c-5.47,1.27-8.15,5-7.13,9.77s5,6.92,10.44,5.64,8.16-5,7.13-9.74S504.64,399,499.17,400.23Z" transform="translate(-46.36 -166.19)"/><path class="cls-3" d="M504.39,422.71c-8.68,2-15.58-2.13-17.46-10.9s2.66-15.64,11.33-17.66,15.59,2.16,17.47,10.94-2.67,15.6-11.34,17.62Zm-4.72-22h0c-5.47,1.28-8.15,5-7.13,9.78s5,6.91,10.44,5.64,8.16-5,7.13-9.74S505.14,399.45,499.67,400.72Z" transform="translate(-46.36 -166.19)"/><polygon class="cls-3" points="467.33 276.03 445.84 284.63 465.33 288.09 464.37 293.9 436.73 288.99 437.95 281.65 459.65 273 439.96 269.5 440.93 263.69 468.57 268.6 467.33 276.03"/><polygon class="cls-3" points="467.82 276.55 446.32 285.14 465.81 288.6 464.85 294.41 437.21 289.5 438.43 282.16 460.13 273.51 440.45 270.01 441.41 264.2 469.05 269.11 467.82 276.55"/><path class="cls-4" d="M204.08,324.57l.8.8-.41.35h0l-.51.44-.05,0-.49.45,0,0,0,0-.48.44,0,0h0l0,0-.39.37,0,0-.08.08-.8-.81C202.32,326.1,203.18,325.32,204.08,324.57Z" transform="translate(-46.36 -166.19)"/><path class="cls-4" d="M201.49,326.91l.8.81,0,0c-.14.15-.29.3-.44.44h0l-.46.48,0,0h0l0,0-.43.45,0,0h0l0,0-.27.29-.8-.8C200.3,328.11,200.89,327.5,201.49,326.91Z" transform="translate(-46.36 -166.19)"/><path class="cls-4" d="M199.74,328.73l.8.8-.15.17,0,0,0,0h0l0,0-.42.49h0l-.45.54h0l-.22.28-.8-.81Q199,329.5,199.74,328.73Z" transform="translate(-46.36 -166.19)"/><path class="cls-4" d="M198.39,330.29l.8.81-.21.25h0l0,0-.37.47,0,0h0l0,0,0,0h0l-.36.47,0,0,0,0h0l-.8-.8Q197.82,331,198.39,330.29Z" transform="translate(-46.36 -166.19)"/><path class="cls-4" d="M197.31,331.67l.8.8,0,0-.36.5v0h0v0c-.12.18-.25.35-.37.52v0h0v0h0l-.06.1-.8-.81C196.71,332.48,197,332.07,197.31,331.67Z" transform="translate(-46.36 -166.19)"/><path class="cls-4" d="M196.43,332.89l.8.81-.27.39v0l0,.05v0c-.1.15-.2.3-.29.45l0,0v0h0v0l-.05.07-.8-.8C195.91,333.66,196.17,333.28,196.43,332.89Z" transform="translate(-46.36 -166.19)"/><path class="cls-4" d="M195.67,334.05l.8.8-.24.4h0v0h0v0c-.1.16-.2.32-.29.48h0v0l0,0-.8-.8C195.24,334.75,195.45,334.4,195.67,334.05Z" transform="translate(-46.36 -166.19)"/><path class="cls-4" d="M195,335.11l.8.8h0v0h0v0h0l-.26.45v0h0l-.05.08h0v0h0c-.07.11-.13.23-.19.34l-.8-.8C194.66,335.77,194.84,335.44,195,335.11Z" transform="translate(-46.36 -166.19)"/><path class="cls-4" d="M194.48,336.1l.8.8-.06.12v0h0l0,0h0v0h0v0c-.09.16-.17.32-.25.49h0l0,.06h0v0h0l0,.11-.8-.8C194.15,336.73,194.31,336.41,194.48,336.1Z" transform="translate(-46.36 -166.19)"/><path class="cls-4" d="M194,337.05l.8.8-.19.39h0l-.81-.8Z" transform="translate(-46.36 -166.19)"/><polygon class="cls-4" points="146.94 170.78 148.24 172.08 70.2 335.8 68.9 334.5 146.94 170.78"/><polygon class="cls-5" points="275.64 144.36 276.94 145.66 257.75 146.19 256.44 144.89 275.64 144.36"/><polygon class="cls-5" points="259.57 147.36 260.87 148.66 257.75 146.19 256.44 144.89 259.57 147.36"/><polygon class="cls-5" points="274.48 147.86 275.78 149.16 266.32 149.16 265.02 147.86 274.48 147.86"/><polygon class="cls-4" points="283.86 134.27 285.15 135.57 280.25 145.65 278.95 144.35 283.86 134.27"/><polygon class="cls-6" points="279.56 144.35 280.86 145.65 280.25 145.65 278.95 144.35 279.56 144.35"/><polygon class="cls-6" points="271.8 153.23 273.1 154.53 266.32 149.16 265.02 147.86 271.8 153.23"/><polygon class="cls-4" points="278.95 144.35 280.25 145.65 278.54 149.16 277.24 147.86 278.95 144.35"/><polygon class="cls-5" points="277.24 147.86 278.54 149.16 275.78 149.16 274.48 147.86 277.24 147.86"/><polygon class="cls-5" points="270 155.61 271.3 156.91 260.87 148.66 259.57 147.36 270 155.61"/><polygon class="cls-6" points="273.69 154.73 274.99 156.03 273.1 154.53 271.8 153.23 273.69 154.73"/><polygon class="cls-4" points="285.06 125 286.36 126.3 290.29 146.19 288.99 144.89 285.06 125"/><polygon class="cls-7" points="283.86 134.27 285.15 135.57 287.85 149.16 286.54 147.86 283.86 134.27"/><polygon class="cls-4" points="273.69 154.73 274.99 156.03 269.48 167.93 268.18 166.63 273.69 154.73"/><polygon class="cls-8" points="270 155.61 271.3 156.91 263.33 174.12 262.02 172.82 270 155.61"/><polygon class="cls-6" points="268.56 166.4 269.86 167.7 269.48 167.93 268.18 166.63 268.56 166.4"/><polygon class="cls-9" points="262.02 172.82 263.33 174.12 252.49 195.84 251.19 194.54 262.02 172.82"/><polygon class="cls-4" points="262.02 172.82 263.33 174.12 262.77 175.32 261.47 174.02 262.02 172.82"/><polygon class="cls-6" points="279.8 159.81 281.1 161.11 269.86 167.7 268.56 166.4 279.8 159.81"/><polygon class="cls-5" points="298.2 147.86 299.5 149.16 287.85 149.16 286.54 147.86 298.2 147.86"/><polygon class="cls-6" points="298.2 147.86 299.5 149.16 289.23 155.75 287.93 154.45 298.2 147.86"/><polygon class="cls-6" points="290.06 167.04 291.36 168.34 281.1 161.11 279.8 159.81 290.06 167.04"/><polygon class="cls-10" points="285.61 141.66 287.24 148.3 299.83 148.3 288.32 155.15 290.9 169.31 285.79 165.96 279.48 161.84 278.46 161.17 275.91 162.57 271.01 165.23 266.11 167.9 270.32 160.07 273.24 154.65 270.44 152.47 264.8 148.08 264.81 147.76 270.67 147.61 276.37 147.47 276.91 147.46 279.42 142.32 283.64 133.66 285.61 141.66"/><polygon class="cls-11" points="287.93 154.45 289.23 155.75 291.36 168.34 290.06 167.04 287.93 154.45"/><path class="cls-4" d="M354.72,311.07l-17.16,11,3,17.71L326,329.53l-13.53,8-4.65,2.72.56-1.19,8-17.21-10.43-8.25-3.13-2.48h18.94l.26-.53,9.42-19.36,3.93,19.89ZM326.16,326h0l10.26,7.23-2.13-12.58,9.59-6.15-10.92.09-2.75-14.13-4.9,10.09-1.71,3.51H311.38l6.78,5.37,1.89,1.49-5.51,11.9.38-.22Z" transform="translate(-46.36 -166.19)"/><polygon class="cls-4" points="266.12 171.29 267.42 172.59 262.77 175.32 261.47 174.02 266.12 171.29"/><polygon class="cls-4" points="279.65 163.35 280.95 164.65 267.42 172.59 266.12 171.29 279.65 163.35"/><polygon class="cls-6" points="251.19 194.54 252.49 195.84 189.66 195.84 188.36 194.54 251.19 194.54"/><polygon class="cls-5" points="250.08 197.51 251.38 198.81 191.54 198.81 190.24 197.51 250.08 197.51"/><polygon class="cls-4" points="266.12 171.29 267.42 172.59 255.07 197.33 253.77 196.03 266.12 171.29"/><polygon class="cls-5" points="253.03 197.51 254.33 198.81 251.38 198.81 250.08 197.51 253.03 197.51"/><polygon class="cls-4" points="253.77 196.03 255.07 197.33 254.33 198.81 253.03 197.51 253.77 196.03"/><polygon class="cls-4" points="308.37 144.89 309.67 146.19 292.5 157.19 291.2 155.89 308.37 144.89"/><polygon class="cls-9" points="188.36 194.54 189.66 195.84 122.63 335.8 121.33 334.5 188.36 194.54"/><polygon class="cls-6" points="121.33 334.5 122.63 335.8 70.2 335.8 68.9 334.5 121.33 334.5"/><path class="cls-4" d="M322,310.54l-19.2.53,3.13,2.48-76.47.13c-13.92,0-30.14,10.45-36.16,23.29l-78,163.72h52.43l67-140h62.83L308.39,339l-.56,1.19,4.65-2.72-12.35,24.74-.74,1.48H236.6l-67,140h-59l80.06-168c6.46-13.78,23.89-25,38.86-25Z" transform="translate(-46.36 -166.19)"/><path class="cls-12" d="M229.46,313.68l76.47-.13,10.43,8.25-8,17.21-10.84,21.71H234.72l-67,140H115.26L193.3,337C199.32,324.13,215.54,313.68,229.46,313.68Z" transform="translate(-46.36 -166.19)"/><path class="cls-13" d="M215.36,317.6l3.92-1.59A39.53,39.53,0,0,1,230,314.18l76.48-.14,9.9,7.83L308.38,339l-10.83,21.71H234.72l-19.53,40.79-12.84,26.81-8.26,17.25L183,468.74l-9.42,19.68-5.88,12.27H116l8.87-18.6,7-14.68,9.47-19.87,8.88-18.63,12-25.19,8.21-17.21,12.42-26.06,10.95-23,2.72-4.69,3.52-4.37a56.16,56.16,0,0,1,8.88-7.4l5.08-2.85Z" transform="translate(-46.36 -166.19)"/><polygon class="cls-5" points="243.91 213.86 245.21 215.16 243.96 214.5 242.65 213.2 243.91 213.86"/><polygon class="cls-4" points="252.74 198.86 254.04 200.16 247.87 213.2 246.56 211.9 252.74 198.86"/><polygon class="cls-14" points="249.36 214 249.34 213.99 249.32 213.98 249.29 213.96 249.27 213.95 249.25 213.94 249.22 213.93 249.2 213.91 249.18 213.9 249.15 213.89 249.13 213.88 249.11 213.86 249.08 213.85 249.06 213.84 249.04 213.83 249.01 213.81 248.99 213.8 248.97 213.79 248.92 213.76 248.9 213.75 248.87 213.74 248.85 213.72 248.82 213.71 248.8 213.7 248.78 213.69 248.75 213.68 248.73 213.66 248.69 213.64 248.66 213.62 248.57 213.57 248.54 213.56 248.52 213.55 248.5 213.54 248.45 213.51 248.43 213.5 248.33 213.45 248.31 213.44 248.26 213.41 248.24 213.4 248.22 213.38 248.19 213.37 248.17 213.36 248.15 213.35 248.12 213.34 248.1 213.32 248.08 213.31 248.05 213.3 248.03 213.28 248 213.27 247.98 213.26 247.96 213.25 247.94 213.23 247.91 213.22 247.89 213.21 247.87 213.2 247.06 212.39 248.56 213.2 248.68 213.32 249.06 213.7 249.18 213.82 249.24 213.88 249.36 214"/><polygon class="cls-4" points="190.24 197.51 191.54 198.81 124.51 338.79 123.21 337.49 190.24 197.51"/><polygon class="cls-5" points="123.21 337.49 124.51 338.79 65.49 338.79 64.19 337.49 123.21 337.49"/><polygon class="cls-4" points="291.2 155.89 292.5 157.19 295.49 174.91 294.19 173.61 291.2 155.89"/><polygon class="cls-5" points="294.19 173.61 295.49 174.91 280.95 164.65 279.65 163.35 294.19 173.61"/><polygon class="cls-5" points="232.12 238.66 233.42 239.96 232.15 239.29 230.85 237.99 232.12 238.66"/><path class="cls-4" d="M286.75,392.57l.8.8-.07.17-.08.17-.08.16-.08.17-.08.17-.08.16-.07.17-.08.17-.08.17-.08.16-.08.17-.08.17-.08.17-.08.17-.08.16-.07.17-.08.17-.08.17-.08.17-.08.17-.08.16-.08.17-.08.17-.08.17-.08.17-.08.17-.08.17-.08.17-.08.17-.08.17-.08.17-.08.17-.08.17-.08.17-.08.16-.08.17-.08.17-.08.17h0l-.08.17-.08.17-.08.17-.08.17-.09.17-.08.17h0L284,401h0l-.08.17h0l-.08.17-.08.17-.08.17h0l-.08.17-.08.17h0l-.08.17-.08.17h0l-.08.17h0l-.08.17h0l-.09.17h0L283,403l-.08.17h0l-.08.16h0l-.08.17h0l-.08.17h0l-.08.17h0l-.08.17h0l-.08.17-.81-.8C283.36,399.77,285.09,396.12,286.75,392.57Z" transform="translate(-46.36 -166.19)"/><path class="cls-14" d="M417.22,417.73l-.15-.06-.15-.15h0l-.25-.26Z" transform="translate(-46.36 -166.19)"/><polygon class="cls-5" points="220.42 263.46 221.72 264.76 220.48 264.09 219.18 262.79 220.42 263.46"/><path class="cls-4" d="M276.05,415.13l.8.81c-1.44,3-2.87,6.08-4.26,9.06l-1.86,4-.8-.81,1.86-4C273.17,421.22,274.6,418.15,276.05,415.13Z" transform="translate(-46.36 -166.19)"/><path class="cls-14" d="M272.13,429.73h0l0,0H272l0,0h-.11l0,0h-.09l0,0h-.11l0,0h-.11l0,0h-.22l0,0h-.11l0,0H271l0,0h-.11l0,0h-.07l-.8-.81c.46.26.93.51,1.4.76l0,0,0,0,.09.09.05.05.07.07.11.1,0,0,.1.11.07.07.05.05.09.09,0,0Z" transform="translate(-46.36 -166.19)"/><path class="cls-4" d="M264.3,439.94l.8.8q-1.89,4-3.81,8l-.8-.8C261.76,445.29,263,442.61,264.3,439.94Z" transform="translate(-46.36 -166.19)"/><polygon class="cls-5" points="208.62 288.26 209.92 289.56 208.66 288.9 207.36 287.6 208.62 288.26"/><path class="cls-14" d="M263.65,456.3l0,0h0l-.05,0-.45-.23-.05,0-.05,0-.05,0-.05,0,0,0,0,0-.05,0-.05,0h0l0,0-.05,0-.05,0-.05,0-.05,0,0,0-.05,0-.05,0,0,0h0l0,0-.05,0-.05,0-.05,0-.05,0,0,0-.05,0-.05,0,0,0h0l0,0,0,0-.05,0-.05,0-.05,0-.05,0,0,0,0,0-.05,0h0l-.05,0,0,0-.05,0-.05,0-.05,0,0,0-.05,0-.05,0-.05,0h0l-.05,0,0,0,0,0-.05,0-.05,0,0,0-.05,0-.05,0,0,0-1.59-.85-.81-.81,1.59.85c1.09.59,2.19,1.18,3.32,1.77C263.18,455.78,263.38,456,263.65,456.3Z" transform="translate(-46.36 -166.19)"/><polygon class="cls-5" points="196.86 313.06 198.16 314.36 196.91 313.69 195.61 312.39 196.86 313.06"/><path class="cls-4" d="M253.32,465.53,250.77,471c-1.19,2.54-2.39,5.09-3.59,7.63l-.8-.81,3.59-7.62c.84-1.81,1.7-3.62,2.54-5.42Z" transform="translate(-46.36 -166.19)"/><path class="cls-14" d="M338.48,390.11l-.12,0h0l-.58.09h0l-.6.08h0l-.58.07h0l-.57.07h0l-.55.06h-.06l-.57.06c-1.75.17-3.5.26-5.22.26-14,0-24.51-5.67-33.82-10.67l-.12-.13-.06-.06-.12-.12-.38-.37-.12-.13c9.31,5,19.86,10.68,33.82,10.68,1.71,0,3.47-.09,5.22-.26,1.23-.13,2.49-.29,3.76-.5.13.1.24.2.35.3S338.35,389.93,338.48,390.11Z" transform="translate(-46.36 -166.19)"/><path class="cls-14" d="M317.73,415.65h0c-14,0-24.51-5.67-33.82-10.67l0,0h-.07l0,0h-.07l0,0h-.07l0,0h-.07l0,0h-.07l0,0h-.07l0,0h-.09l0,0h-.07l0,0h-.07l0,0H283l0,0h-.07l0,0h-.09l0,0h-.07l0,0h-.07l0,0h-.07l0,0h0l-.81-.8,1.48.79c9.31,5,19.86,10.68,33.81,10.68h0l0,0h.11l.07.07h0v0h0l.05.05,0,0h0l0,0h0l0,0h0l0,0,0,0,.05.05h0l0,0v0h0l0,0,.07.07h0l0,0h0l0,0h0Z" transform="translate(-46.36 -166.19)"/><polygon class="cls-5" points="185.08 337.85 186.38 339.15 185.13 338.48 183.83 337.18 185.08 337.85"/><polygon class="cls-4" points="193.91 322.85 195.22 324.15 189.04 337.18 187.74 335.88 193.91 322.85"/><path class="cls-14" d="M326,415l-1.2.17h-.09l-.56.07h0l-.52.06h-.14l-.51,0h-.29l-.44-.44.14.15-.14-.15-.37-.37c-1.65.15-3.32.23-4.93.23l.17.17,0,0,0,0,.21.21.1.11.07.06.05,0,0,0h0l0,0,0,0h4.92l-.3-.3.3.3h0l-.44-.44-.37-.37.29,0c1-.1,2-.23,3.05-.39a6.77,6.77,0,0,0,.54.55l.25.26Zm-3.76,0-.37-.37h0Z" transform="translate(-46.36 -166.19)"/><path class="cls-14" d="M258.1,484.19l-.26-.12,0,0-.43-.21h0l-.15-.08-.26-.12,0,0h0l-.28-.14-.15-.07h0l-.15-.07-.76-.37,0,0-.41-.2-.06,0-.09-.05-.37-.19-.08,0-1.76-.91h0l-.44-.23h0l-1.72-.91-.07,0-.07,0-.14-.08-.14-.07-.1-.05-.19-.11-.14-.07-.11-.06-.17-.09-.14-.08-.13-.07h0l-.14-.08-.15-.08-.14-.07c-.5-.27-1-.55-1.5-.8l-.8-.81,1.5.81c3.11,1.66,6.36,3.41,9.82,5A1.34,1.34,0,0,0,258.1,484.19Z" transform="translate(-46.36 -166.19)"/><path class="cls-14" d="M265.67,487.23l-.12,0h0l-.2-.06h0l-.12,0-.12,0-.12,0-.11,0h0l-.12,0-.12,0-.19-.07h-.09l-.42-.15h-.05l-.08,0-.24-.09-.12-.05-.08,0h-.06l-.33-.13-.11,0h0l-.11-.05-.35-.13-.05,0-.06,0-.35-.14-.1,0h0l-.11-.05-.35-.14h0l-.43-.18-.08,0,0,0-.43-.18,0,0h0l-.12,0-.38-.17-.07,0-.33-.15-.09,0h0l-.33-.15-.11-.05h0l-.09,0-.45-.2a1.41,1.41,0,0,1-.12-.5,70.65,70.65,0,0,0,6.72,2.66l.45.42C265.44,487,265.55,487.1,265.67,487.23Z" transform="translate(-46.36 -166.19)"/><path class="cls-14" d="M312.17,462.51l-.21.05-.39.11h0l-.21.06-.39.1h0l-.21.05-.21.06h-.1l-.32.08-.21.05-.13,0-.49.12h-.05l-.16,0-.41.09-.07,0-.14,0-.39.09-.19,0-.45.1-.17,0-.43.1-.2,0-.42.09-.1,0h0l-.59.12h0l-.57.11h-.11l-.53.1h0l-1.19.2h-.09l-.53.09h-.06l-.55.08h0l-.57.08h0l-.57.07h0l-.53.06H300l-.55.06c-1.75.17-3.51.26-5.23.26h-2.44l-.24,0-.35,0h-.27l-.33,0h-.25l-.49,0h-.08l-1.19-.12-.13,0-.43-.05-.22,0-.36-.05-.2,0-.38,0-.2,0-.38-.06-.18,0-.4-.07-.17,0-.42-.07-.12,0h0l-.51-.1h0l-.1,0-.46-.09-.09,0-.45-.09-.18,0-.33-.08-.21-.05-.37-.09-.16,0-.38-.1-.16,0-.45-.12H281l-1.08-.3h0l-.5-.15-.08,0-.43-.13-.15,0-.37-.11-.14-.05-.37-.12-.18-.06-.28-.09-.23-.08-.45-.16h0l-1.55-.56h0l-.44-.17-.15-.06-.37-.14-.09,0-.42-.16-.07,0-.47-.19h0l-1.48-.63,0,0-.42-.18-.1-.05-.42-.19h0l-.46-.21,0,0-.45-.21h0l-.44-.2,0,0-.08,0-.4-.18c-.77-.38-1.54-.75-2.29-1.14l-.05,0-.17-.09-.29-.14-.12-.06-.34-.18-.07,0L265,457h0l-.4-.21,0,0h0l-.44-.24-.31-.16h0a4.84,4.84,0,0,1-.53-.66c8.42,4.43,18,8.76,30.16,8.76,1.71,0,3.47-.09,5.23-.26a83.09,83.09,0,0,0,14.28-2.91,12.17,12.17,0,0,0-.51,1.17Z" transform="translate(-46.36 -166.19)"/><path class="cls-14" d="M270.65,514.84h-1.29l-.64,0h0l-.64,0h0l-.63,0h0l-.62,0h0l-.62-.05h0l-.62-.06h0l-.61-.07h0l-.61-.07h0l-.6-.08h0l-.6-.08h0l-.59-.1-.59-.09h0l-.59-.11h0l-.58-.11h0l-.57-.12h0l-.58-.12h0l-.57-.13h0l-.56-.13-.56-.14h0l-.56-.15-.55-.15-.55-.15h0l-.55-.16h0l-.54-.17h0l-.54-.17h0l-.53-.17h0l-.53-.18-.53-.18h0l-.52-.19-.53-.19-.51-.19h0L251,511h0l-.51-.2-.51-.2-.5-.21h0l-.5-.21-.5-.21h0l-.49-.21h0l-.5-.22-.49-.22-.48-.22h0l-.48-.22-.49-.23-.47-.23-.48-.23h0l-.47-.23-.47-.23-.47-.23h0l-.46-.24-.47-.23-.46-.24-.45-.24-.46-.23-.45-.24-.45-.24-.45-.23-.45-.24-.44-.24-.45-.24-.44-.23-.44-.24-.43-.23h0l0,0h-.07l0,0h0l0,0h-.07l0,0h-.07l0,0h0l0,0h-.07l0,0h-.07l0,0h0l0,0h-.07l0,0H236l0,0h-.07l0,0h-.07l0,0h0l0,0h-.07l0,0h-.07l0,0h-.07l0,0h-.07l-.81-.8c.5.27,1,.55,1.51.81,9.3,5,19.85,10.67,33.75,10.67l.18.18.07.07.06.06,0,0,.12.12.05,0Z" transform="translate(-46.36 -166.19)"/><path class="cls-14" d="M398.68,414.33h-2l-.22,0h-1.32c-13.11,1.31-28.08,7.22-42.55,12.95l-.39.16-.27.11-.12,0-.38.16-.17.06-.22.09-.39.15-.06,0-.33.14-.34.13-.05,0-.39.16-.22.08-.17.07-.39.15-.11,0-.28.11-.39.15h0l-.39.15-.28.11-.12.05-.39.15-.16.06-.23.09-1.11.44-.06,0-.39.15-.22.08-.56.22-.11,0-.28.11-.39.15h0l-1.17.45-.16.06-.23.09-.39.15-.05,0-.06,0-.61.23-.06,0c-1,.39-2.08.78-3.12,1.15l-.16.06-2.55.91-.1,0-.67.23h0l-1.29.44-.05,0c-1.07.36-2.14.71-3.19,1l-.07,0h0l-.54.17-.09,0-.12,0-.38.11-.15,0-.06,0-.17.05a2.86,2.86,0,0,0-.12-.27,2.18,2.18,0,0,1-.25-.67c8-2.45,16.27-5.74,24.41-9,14.47-5.73,29.43-11.65,42.54-12.95,1.18-.12,2.36-.19,3.53-.22l.07.08h0l0,0v0l.12.11.16.17h.05l0,0h0l.22.22Z" transform="translate(-46.36 -166.19)"/><path class="cls-14" d="M399.84,414.32h-1.16l-.13-.13-.16-.16,0,0-.17-.17-.13-.13-.18-.18,1.16,0,.2.21.07.07,0,0,.15.14,0,0,.13.13Z" transform="translate(-46.36 -166.19)"/><path class="cls-4" d="M464.92,363.86l.8.81-2.58-1.32c-9.13-4.65-19.47-9.91-32.69-9.91-1.63,0-3.31.08-5,.24-13.05,1.29-28.09,7.22-42.64,12.95C368.7,372.2,354.07,378,341.6,379.22c-1.68.16-3.34.25-5,.25-13.29,0-22.89-5.51-31.36-10.37-1.67-1-3.28-1.88-4.88-2.75l-.8-.81c1.6.87,3.2,1.79,4.88,2.76,8.47,4.85,18.07,10.37,31.36,10.37,1.62,0,3.28-.09,5-.25,12.48-1.25,27.11-7,41.25-12.6,14.55-5.73,29.58-11.66,42.64-12.94,1.66-.16,3.33-.24,5-.24,13.21,0,23.56,5.26,32.68,9.91Z" transform="translate(-46.36 -166.19)"/><path class="cls-14" d="M334.27,495.41h0l-.59.21-.06,0-2,.73h-.05l-.24.09-1.13.42-.05,0-.29.11-.3.11h0l-.25.1-.29.11-.14.05-.16.06-.53.2-.06,0-.29.11-.29.12h0l-.26.1-.29.11-.13.05-.17.06-.29.12-.23.08-.06,0-.3.11-.29.12h0l-.27.1-.29.11-.12.05-.17.07-.3.11-.22.09-.07,0-.3.11-.29.12h0l-.27.1-.3.12-.11,0-.18.07-.29.12-.22.08-.08,0-.29.12-.3.11h0l-.28.11-.29.11-.11,0-.18.07-.3.12-.2.08-.09,0-.29.12-.3.11h0l-.29.11-.29.11-.1,0-.19.07-.3.12-.19.08-.1,0-.29.12-.29.11c-14.17,5.61-28.81,11.4-41.35,12.65-1.75.17-3.5.26-5.22.26l-.29-.29-.05,0-.12-.12,0,0-.06-.06-.07-.07-.18-.18c1.71,0,3.47-.09,5.22-.26,12.54-1.25,27.18-7,41.34-12.65,6.33-2.51,12.74-5.05,19.06-7.22h0a1.47,1.47,0,0,1,.52.9Z" transform="translate(-46.36 -166.19)"/><path class="cls-14" d="M339,493.79h0l-.47.15,0,0h0l-.05,0h-.08l0,0h0l0,0h0l-.08,0-.05,0h0l-.05,0h-.08l-.05,0h0l0,0-.09,0h0l-.05,0h0l0,0h-.09l0,0h0l0,0h0l0,0h0l-.05,0h0l0,0h-.05l0,0h0l-.05,0h0l-.08,0h-.05l0,0h0l-.05,0-.13,0,0,0h-.13a8.36,8.36,0,0,0-.78-.81h0q1.38-.48,2.76-.93l0,0,0,0h0l.11.12h0l.05.05.08.08.12.12.08.07.05.06.14.13Z" transform="translate(-46.36 -166.19)"/><polygon class="cls-9" points="418.06 197.18 419.37 198.48 413.1 211.69 411.8 210.4 418.06 197.18"/><path class="cls-14" d="M436.85,366.21v0q1.57.51,3.09,1.11h0c-1-.4-2-.75-2.9-1l-.19-.06Zm21.8,10.87.81.8c-1.59-.86-3.19-1.78-4.87-2.74l-.16-.1-.16-.09-.08,0-.08-.05-.16-.1-.16-.08h0l-.17-.09-.16-.09-.07,0-.09-.06-.17-.09-.14-.09h0l-.16-.09-.17-.09-.06,0-.1-.06-.17-.09-.14-.08h0l-.17-.1-.16-.09-.05,0-.12-.07-.17-.09-.13-.07,0,0-.17-.1-.17-.09,0,0-.12-.06-.17-.1-.13-.07,0,0-.17-.09-.17-.1,0,0-.14-.07-.17-.09-.11-.07-.06,0-.17-.09-.17-.09,0,0h0L449,372l-.11-.06-.07,0-.17-.09-.17-.09h0l-.29-.15,0,0-.1-.05-.07,0-.18-.09-.17-.09h0l-.17-.08-.17-.09-.1-.05-.08,0-.35-.18h0l-.72-.36-.17-.08h0c-.71-.35-1.44-.69-2.18-1-.46-.31-1.24-.81-2.51-1.53a110.07,110.07,0,0,1,12.7,6.56C455.47,375.3,457.07,376.22,458.65,377.08Z" transform="translate(-46.36 -166.19)"/><path class="cls-4" d="M467.06,361.35l1.3.64-8.84,18.67-1.37-.71c-2.1-1.08-4.16-2.27-6.36-3.53-8.15-4.69-17.39-10-29.68-10-1.45,0-2.94.07-4.41.21-12.71,1.26-27.47,7.11-41.74,12.77S346.72,391,333.74,392.27c-1.84.18-3.69.27-5.51.27-14.7,0-25.6-5.86-35.23-11l-2.73-1.46-1.26-.66,7.43-15.69h2.95l.74-1.48c1.76.94,3.51,1.94,5.34,3,8.55,4.91,17.38,10,29.88,10A46.14,46.14,0,0,0,340,375c12.06-1.2,25.85-6.64,40.45-12.4s30-11.81,43.44-13.13c1.76-.17,3.53-.26,5.26-.26,13.93,0,24.61,5.44,34,10.24l3.87,2Zm-8.9,15.23h0l6.26-13.21-2.58-1.32c-9.13-4.65-19.47-9.91-32.69-9.91-1.63,0-3.31.08-5,.24-13.05,1.29-28.09,7.21-42.64,12.94-14.14,5.58-28.77,11.35-41.24,12.6-1.68.16-3.34.25-5,.25-13.29,0-22.89-5.52-31.36-10.37-1.68-1-3.28-1.89-4.88-2.75l-6.18,13,1.5.81c9.31,5,19.87,10.67,33.82,10.67,1.72,0,3.47-.09,5.22-.26,12.56-1.25,27.22-7.06,41.41-12.68,14.47-5.74,29.42-11.66,42.54-13,1.58-.15,3.16-.23,4.7-.23,13.09,0,22.7,5.53,31.18,10.42C455,374.8,456.57,375.72,458.16,376.58Z" transform="translate(-46.36 -166.19)"/><path class="cls-12" d="M429.15,352.14c13.22,0,23.56,5.26,32.69,9.91l2.58,1.32-6.26,13.21c-1.59-.86-3.19-1.78-4.87-2.74-8.48-4.89-18.09-10.42-31.18-10.42-1.54,0-3.12.08-4.7.23-13.12,1.31-28.07,7.23-42.54,13-14.19,5.62-28.85,11.43-41.41,12.68-1.75.17-3.5.26-5.22.26-13.95,0-24.51-5.67-33.82-10.67l-1.5-.81,6.18-13c1.6.86,3.2,1.79,4.88,2.75,8.47,4.85,18.07,10.37,31.36,10.37,1.62,0,3.28-.09,5-.25,12.47-1.25,27.1-7,41.24-12.6,14.55-5.73,29.59-11.65,42.64-12.94C425.84,352.22,427.52,352.14,429.15,352.14Z" transform="translate(-46.36 -166.19)"/><path class="cls-4" d="M458.65,380.45l.8.8c-2.1-1.08-4.16-2.27-6.36-3.53-8.15-4.69-17.39-10-29.69-10-1.44,0-2.93.07-4.4.21-12.71,1.26-27.47,7.11-41.74,12.77S348,392.27,335,393.57c-1.84.18-3.69.27-5.51.27-14.7,0-25.6-5.86-35.23-11l0,0,0,0,0,0-.05,0,0,0,0,0-.05,0,0,0,0,0-.05,0,0,0,0,0,0,0h0l-.05,0,0,0,0,0-.05,0,0,0,0,0,0,0-.05,0,0,0,0,0h0l-.05,0h0l0,0,0,0,0,0h0l0,0,0,0h0l0,0,0,0h0l0,0,0,0h0l0,0h0l-.05,0,0,0h0l0,0h0l0,0h0l-.05,0h0l0,0h0l0,0h0l0,0h0l-.05,0h0l0,0h0l0,0h0l0,0,0,0h0l0,0h0l0,0,0,0h0l-.05,0h0l0,0h0l0,0,0,0h0l-.05,0h0l0,0h0l0,0h0l0,0h0l-.05,0h0l0,0h0l0,0h0l0,0h0l0,0h0l-.05,0h0l-.8-.8L293.5,382c9.62,5.17,20.52,11,35.23,11,1.81,0,3.66-.09,5.51-.26,13-1.3,27.84-7.19,42.22-12.89s29-11.5,41.73-12.76a43.84,43.84,0,0,1,4.41-.22c12.29,0,21.54,5.32,29.69,10C454.49,378.18,456.55,379.37,458.65,380.45Z" transform="translate(-46.36 -166.19)"/><polygon class="cls-5" points="413.16 214.48 414.46 215.78 413.09 215.06 411.79 213.76 413.16 214.48"/><polygon class="cls-4" points="422 195.81 423.3 197.11 414.46 215.78 413.16 214.48 422 195.81"/><polygon class="cls-4" points="410.2 220.63 411.5 221.93 402.67 240.6 401.36 239.3 410.2 220.63"/><path class="cls-4" d="M453.13,388.66l.8.81-2.6-1.33c-9.11-4.64-19.44-9.91-32.69-9.91-1.64,0-3.31.09-5,.24-13,1.31-28,7.21-42.53,12.93C357,397,342.32,402.76,329.79,404a48.84,48.84,0,0,1-5,.25c-13.29,0-22.88-5.51-31.35-10.37-1.68-1-3.29-1.89-4.88-2.75l-.81-.81c1.6.87,3.21,1.79,4.88,2.76,8.47,4.86,18.07,10.37,31.35,10.37a49.18,49.18,0,0,0,5-.25c12.53-1.26,27.18-7,41.36-12.63,14.51-5.71,29.5-11.62,42.52-12.92,1.66-.16,3.33-.24,5-.24,13.24,0,23.57,5.27,32.69,9.91Z" transform="translate(-46.36 -166.19)"/><polygon class="cls-8" points="406.27 221.98 407.57 223.28 407.33 223.78 406.04 222.48 406.27 221.98"/><path class="cls-9" d="M453.7,390l0,0,0,0,0,0v0l0,0h0v.06l0,.07,0,0-.1.22h0l-.28.59h0l-.17.36v0l0,.05,0,0,0,0v0l0,0h0l0,0,0,0v0l0,0,0,0h0v0l0,0,0,0v0l0,0,0,0h0l0,0v0l0,0,0,0-.23-.25.23.25v0l0-.05-.05-.05-.05-.05-.06-.06-.05-.05-.05,0-.06-.05-.05-.05-.05-.05-.05-.05,0,0,0,0,.05.05.05.05.05.05.06.05.05,0,.05.05.06.06.05.05.05.05,0,.05v0l-.07.13,0,.06,0,.1-.05.1,0,.06-.06.14v0l-.08.16v0l-.07.14,0,.05-.05.12,0,.08,0,.08-.06.12,0,0-.07.16h0l-.08.16,0,0-.06.12,0,.07,0,.09-.05.11,0,.06-.07.14v0l-.07.16v0l-.07.14,0,.06,0,.1-.05.1,0,.06-.06.14,0,0-.07.16h0l-.07.16,0,0-.06.12,0,.08,0,.09-.06.11,0,.05-.07.15h0l-.23.49-.05.1,0,.06-.07.14v0l-.08.17h0l-.07.15,0,.05-.05.11,0,.09,0,.07-.07.17-.08.16h0l-.08.16v0l-.06.12,0,.08,0,.09-.15.31h0l-.08.17v0l-.07.14,0,.06-.05.1,0,.1,0,.07-.06.13,0,0-.07.16h0l-.07.15,0,0-.06.12,0,.08,0,.08-.06.12,0,0-.07.16h0l-.07.16v0l-.07.13,0,.07,0,.1-.05.1,0,.06-.07.14v0L448,402l0,.05-.05.11-.05.09,0,.07-.06.13,0,0-.07.16-.81-.8c1.62-3.47,3.26-6.95,4.88-10.36l.24.25-.24-.25,0,0,0,0,.06.06.05.05.05.05.06.06.05.05,0,.05.05,0,.05.05.05.05.05.05h0l-.05-.05-.05-.05-.05-.05-.05,0,0-.05-.05-.05-.06-.06-.05-.05-.05-.05-.06-.06,0,0,1.1-2.33Z" transform="translate(-46.36 -166.19)"/><path class="cls-14" d="M446.89,401.88l.81.8c-1.66-.89-3.34-1.85-5.11-2.86-8.42-4.83-18-10.3-31-10.3-1.54,0-3.12.07-4.69.22-13.07,1.31-28,7.23-42.44,12.95l-.61.24-.06,0-.56.22-.1.05-.51.2-.16.06-.46.18-.21.08-.4.16-.27.11-.35.14-.32.12-.29.12-.38.15-.24.09-.43.17-.19.07-.48.19-.13.05-.54.21-.08,0-.59.23h0l-.62.24h0l-.59.23-.08,0-.54.21-.13.05-.49.19-.18.07-.43.16-.24.09-.38.14-.53.21-.09,0-.34.13-.27.1-.4.15h0l-1.21.45-.1,0-.11,0-.56.21-.05,0-.62.22h0l-.61.22-.61.22-.11,0-.51.18,0,0-.44.15-.13.05-.21.07-.15.05-.47.17-.1,0-.47.16-.13,0-.3.1-.37.12-.08,0-.45.15-.18.06-.4.13-.2.07-.14.05-.52.17-.08,0-.58.19h0l-.6.19h0l-.57.18-.08,0-.07,0-.58.17h0l-.59.18-.17,0-.4.12-.28.08-.39.12-.23.07-.35.1-.29.08-.4.11-.19.06-.46.12-.15,0-.58.16h0l-.61.16h0l-.63.16h0l-1.85.45-.14,0-.5.11-.08,0-.55.12h-.06l-.52.12-.13,0-.54.12h0l-.61.12h0l-.52.1-.14,0c-.78.14-1.56.28-2.33.39l-.27-.25a5.67,5.67,0,0,1-.46-.56c11.86-1.82,25.32-7.14,38.38-12.32,14.43-5.72,29.37-11.63,42.43-12.94,1.58-.15,3.16-.22,4.7-.22,13,0,22.57,5.47,31,10.29C443.56,400,445.23,401,446.89,401.88Z" transform="translate(-46.36 -166.19)"/><path class="cls-12" d="M417.34,376.93c13.25,0,23.57,5.27,32.69,9.91l2.6,1.33-.24.5c-2,4.15-4,8.44-6,12.71-1.66-.89-3.34-1.85-5.11-2.86-8.42-4.83-18-10.3-31-10.3-1.54,0-3.12.07-4.69.22-13.07,1.31-28,7.23-42.44,12.95-14.22,5.63-28.92,11.45-41.5,12.71-1.76.17-3.52.25-5.23.25-14,0-24.51-5.67-33.82-10.67l-1.47-.8c1.72-3.6,3.45-7.26,5.11-10.81l1.06-2.22c1.59.86,3.2,1.78,4.88,2.75,8.47,4.86,18.06,10.37,31.35,10.37a49,49,0,0,0,4.95-.25c12.53-1.26,27.19-7,41.36-12.62,14.51-5.72,29.51-11.63,42.53-12.93C414,377,415.7,376.93,417.34,376.93Z" transform="translate(-46.36 -166.19)"/><path class="cls-4" d="M447.72,406.06c-2.18-1.12-4.33-2.35-6.61-3.65-8.11-4.65-17.31-9.91-29.53-9.91-1.44,0-2.92.07-4.4.21-12.64,1.26-27.38,7.1-41.63,12.75-14.41,5.7-29.3,11.6-42.31,12.9a54.28,54.28,0,0,1-5.52.28c-14.7,0-25.61-5.87-35.23-11l0,0-.05,0,0,0,0,0,0,0,0,0,0,0,0,0,0,0h0l0,0,0,0,0,0-.05,0h0l0,0,0,0h0l-.05,0h0l0,0h0l0,0h0l0,0h0l-.05,0h0l0,0h0l0,0h0l0,0h0l-.05,0h0l0,0h0l0,0h0l0,0h0l0,0h0l0,0h0l0,0h0l0,0h0l-.05,0h0l0,0h0l0,0h0l0,0h0l0,0h0l0,0h0l0,0h0l0,0h0l0,0h0l-.05,0h0l0,0h0l0,0h0l0,0h0l0,0h0l-.05,0h0l0,0h0l0,0h0l0,0h0l0,0h0l0,0h0l0,0h0l0,0h0l0,0h0l0,0h0l0,0h0l0,0h0l0,0h0l0,0h0l0,0h0l0,0h0l0,0h0l0,0h0l0,0h0l-.81-.81,2.72,1.46c9.62,5.17,20.53,11,35.23,11,1.81,0,3.67-.09,5.52-.27,13-1.3,27.89-7.2,42.31-12.9,14.25-5.65,29-11.49,41.63-12.75a43.65,43.65,0,0,1,4.4-.22c12.22,0,21.41,5.27,29.53,9.92,2.27,1.29,4.42,2.53,6.6,3.64Z" transform="translate(-46.36 -166.19)"/><path class="cls-4" d="M455.26,386.14l1.31.66-1.49,3.14c-2.18,4.61-4.45,9.38-6.63,14.11l-.65,1.4-1.38-.69c-2.18-1.12-4.33-2.35-6.61-3.65-8.11-4.65-17.31-9.91-29.53-9.91-1.45,0-2.92.07-4.4.21-12.64,1.26-27.38,7.1-41.63,12.75-14.41,5.7-29.3,11.6-42.31,12.9a54.24,54.24,0,0,1-5.52.27c-14.7,0-25.61-5.86-35.23-11l-2.71-1.45-1.27-.67.62-1.3c1.93-4,3.87-8.1,5.73-12.07l2.38-5.05,1.37.72c2.11,1.09,4.18,2.28,6.37,3.54,8.54,4.89,17.38,10,29.87,10a46,46,0,0,0,4.65-.24c12.12-1.22,25.94-6.66,40.57-12.43s29.89-11.77,43.32-13.11c1.76-.17,3.52-.26,5.26-.26,14,0,24.63,5.45,34,10.24,1.31.67,2.6,1.33,3.87,1.95Zm-2.87,2.53h0l.24-.51c-.86-.42-1.72-.87-2.6-1.32-9.12-4.64-19.44-9.91-32.69-9.91-1.64,0-3.31.09-5,.24-13,1.3-28,7.21-42.53,12.93-14.17,5.58-28.83,11.36-41.36,12.62a48.84,48.84,0,0,1-4.95.25c-13.29,0-22.88-5.51-31.35-10.37-1.68-1-3.29-1.89-4.88-2.75l-1.06,2.22c-1.66,3.55-3.39,7.21-5.11,10.81l1.47.8c9.31,5,19.86,10.67,33.82,10.67,1.71,0,3.47-.08,5.23-.25,12.58-1.26,27.28-7.08,41.5-12.71,14.44-5.72,29.37-11.64,42.44-12.95,1.57-.15,3.15-.22,4.69-.22,13,0,22.58,5.47,31,10.3,1.77,1,3.45,2,5.11,2.86C448.38,397.11,450.42,392.82,452.39,388.67Z" transform="translate(-46.36 -166.19)"/><polygon class="cls-5" points="401.44 239.27 402.74 240.57 401.36 239.87 400.06 238.57 401.44 239.27"/><path class="cls-4" d="M441.34,413.46l.8.8-2.72-1.37C430.33,408.27,420,403,406.88,403c-1.63,0-3.29.08-4.95.24-13,1.29-28,7.2-42.54,12.91-14.19,5.59-28.87,11.38-41.4,12.63a49,49,0,0,1-5,.25c-13.31,0-22.9-5.53-31.36-10.41-1.66-1-3.24-1.87-4.82-2.72l-.8-.81c1.57.86,3.15,1.77,4.81,2.73,8.46,4.88,18.06,10.4,31.37,10.4a48.69,48.69,0,0,0,4.95-.25c12.54-1.25,27.22-7,41.41-12.62,14.52-5.71,29.53-11.62,42.54-12.92,1.65-.16,3.32-.24,4.95-.24,13.15,0,23.45,5.23,32.54,9.85Z" transform="translate(-46.36 -166.19)"/><path class="cls-14" d="M435.17,427.08l-.26-.14h0l-.06,0h0l-.05,0,0,0,0,0,0,0,0,0,0,0h0l-.06,0h0l-.07,0h0l-.06,0h0l-.05,0,0,0,0,0,0,0h0l-.06,0h0l-.06,0h0l-.06,0h0l-.06,0h0l0,0,0,0,0,0-.05,0h0l-.05,0h0l-.07,0h0l-.07,0h0l-.05,0,0,0,0,0,0,0,0,0-.05,0h0l-.06,0h0l-.2-.12h0l0,0-.12-.06h0l-.14-.08h0l-.05,0h0l0,0,0,0,0,0,0,0h0l-.05,0h0l-.07,0h0l-.07,0h0l-.06,0h0l0,0,0,0h0l-.05,0h0l-.06,0h0l-.07,0h0l-.07,0h0l-.06,0h0l0,0,0,0,0,0-.06,0h0l-.07,0h0l-.07,0h0l-.06,0h0l-.05,0,0,0,0,0,0,0h0l-.06,0h0l-.07,0-.2-.11-.19-.11h0l-.18-.1-.2-.11,0,0-.17-.1-.19-.11,0,0-.16-.09-.2-.11,0,0-.15-.08-.2-.11-.05,0-.15-.08-.19-.11-.07,0-.13-.07-.2-.11-.08-.05-.12-.06-.2-.12-.2-.11-.2-.11-.1-.06-.1,0-.2-.11-.2-.12-.2-.11-.2-.11-.21-.11-.14-.08-.06,0-.21-.11-.2-.11-.21-.11-.16-.09,0,0-.21-.11-.18-.1h0l-.2-.11-.19-.1h0l-.21-.11-.2-.11h0l-.21-.11-.21-.11h0l-.2-.1-.22-.11h0l-.2-.1-.21-.1-.17-.09-.05,0-.21-.11,0,0-.17-.08-.22-.11-.06,0-.06,0-.31-.15-.07,0-.15-.08-.22-.1-.21-.1h0l-.22-.1h0l-.17-.07,0,0-.22-.1-.22-.1-.23-.1h0l-.17-.07,0,0-.22-.09,0,0-.19-.08-.23-.1h0l-.18-.08-.23-.1h0L418,418l-.23-.09-.23-.1c-.07-.05-.27-.19-.46-.35l-.72-.6a102.21,102.21,0,0,1,13.76,7c1.48.84,2.9,1.65,4.3,2.42l.24.24.08.08,0,0,.16.17.22.21.07.07Zm-18.1-9.41v0l0,0h0l0,0h0l0-.05-.1-.1-.18-.17h0l-.39-.38-1.11-.42.57.41a5.79,5.79,0,0,1,.69.56h.1l.17.06H417Z" transform="translate(-46.36 -166.19)"/><path class="cls-12" d="M405.58,401.74c13.15,0,23.45,5.22,32.54,9.85l2.72,1.37c-1.62,3.49-3.26,7-4.91,10.44l-1.32,2.78c-1.64-.88-3.29-1.83-5-2.82-8.45-4.85-18-10.34-31-10.34-1.54,0-3.11.08-4.69.23-13.1,1.3-28.07,7.22-42.54,12.95-14.2,5.63-28.89,11.44-41.45,12.7-1.74.17-3.5.26-5.2.26-14,0-24.52-5.71-33.83-10.73l-1.4-.75,1.86-4c1.39-3,2.82-6,4.26-9.06,1.58.85,3.15,1.77,4.82,2.72,8.46,4.88,18.05,10.41,31.36,10.41a49,49,0,0,0,5-.25c12.53-1.26,27.21-7,41.4-12.63,14.52-5.71,29.53-11.62,42.54-12.91C402.29,401.82,404,401.74,405.58,401.74Z" transform="translate(-46.36 -166.19)"/><polygon class="cls-9" points="389.57 257.21 390.87 258.51 389.55 261.3 388.25 260 389.57 257.21"/><path class="cls-14" d="M435.11,426.68l.8.8h-.34l0,0h0l0,0h-.13l0,0h0l-.12-.07,0,0-.22-.22h0l-.15-.15-.11-.11h0l-.27-.27Z" transform="translate(-46.36 -166.19)"/><path class="cls-14" d="M404.36,442.1h0l-.47-.17h0l-.46-.16h0l-.47-.16h0c-.65-.23-1.32-.43-2-.63h0l-1-.29h0l-.49-.13h-.06l-.44-.11-.12,0-.38-.09-.15,0-.37-.08-.15,0-.37-.08-.15,0-.41-.08-.1,0-.45-.09-.09,0-.5-.08h0l-.47-.07-.07,0h0l-.52-.08h-.06l-.49-.06-.16,0-.39-.05-.18,0-.36,0-.25,0-.29,0-.26,0-.31,0-.26,0-.29,0h-.27l-.32,0-.23,0h-2.33l-.17-.17-.07-.07-.32-.31-.09-.09-.15-.16c12,0,21.06,4.65,29,9.17a5.58,5.58,0,0,0,.42.41,4.55,4.55,0,0,0,.38.39A87.08,87.08,0,0,0,404.36,442.1Z" transform="translate(-46.36 -166.19)"/><path class="cls-4" d="M435.11,430l.8.81-.1-.06h0l-.1-.05h0l-.1-.05h0l-.1-.05h0l-.1-.05h0l-.1-.06h0l-.1,0h0l-.1-.05h0l-.1-.05h0l-.1-.06h0l-.1-.05h0l-.1,0h0l-.1-.06h0l-.1-.05h0l-.1-.06h0l-.1-.05h0l-.1-.05h0l-.1-.06h0l-.1-.05h0l-.1-.06h0l-.1,0h0l-.1-.06h0l-.1-.05h0l-.1-.06h0l-.1-.05h0l-.1-.06h0l-.1-.05h0l-.1-.06h0l-.1-.06h0l-.1,0h0l-.1-.06h0l-.1-.05h0l-.1-.06h0l-.1-.06h0l-.1-.05h0l-.1-.06h0l-.1-.06h0l-.1-.05h0l-.1-.06h0l-.11-.06h0l-.1-.06h0l-.1-.06h0l-.1-.05-.1-.06h0l-.11-.06h0l-.1-.06h0l-.1-.06h0l-.1-.05h0l-.11-.06h0l-.1-.06h0l-.1-.06-.11-.06h0l-.1-.06-.1-.06h0l-.11-.06h0l-.1-.06h0l-.1-.06h0l-.11-.05-.1-.06h0l-.11-.06-.1-.06-.1-.06h0l-.1-.06-.1-.07c-8.14-4.66-17.34-9.95-29.57-9.95-1.44,0-2.91.09-4.39.23-12.7,1.26-27.46,7.1-41.73,12.75s-29.28,11.59-42.26,12.9c-1.84.17-3.69.26-5.5.26-14.71,0-25.62-5.89-35.25-11.08l-2.62-1.41-.8-.8,2.62,1.41c9.62,5.19,20.53,11.08,35.25,11.08,1.8,0,3.65-.09,5.5-.27,13-1.3,27.86-7.19,42.25-12.89s29-11.49,41.74-12.76c1.47-.14,2.95-.22,4.39-.22,12.23,0,21.43,5.28,29.56,9.95C430.83,427.73,433,428.94,435.11,430Z" transform="translate(-46.36 -166.19)"/><polygon class="cls-5" points="389.62 264.07 390.92 265.37 389.55 264.66 388.25 263.36 389.62 264.07"/><path class="cls-4" d="M443.46,410.93l1.3.64-.61,1.32c-1.82,3.94-3.67,7.85-5.53,11.78L436,430.25l-1.37-.7c-2.15-1.1-4.28-2.32-6.52-3.61C420,421.28,410.76,416,398.53,416a43.64,43.64,0,0,0-4.39.23c-12.7,1.26-27.46,7.1-41.74,12.75s-29.27,11.59-42.25,12.89c-1.84.18-3.69.27-5.5.27-14.72,0-25.62-5.89-35.25-11.08l-2.62-1.41-1.24-.67.6-1.27,2.46-5.26c1.6-3.44,3.26-7,4.94-10.49l.67-1.38,1.36.7c2.08,1.09,4.13,2.27,6.29,3.51,8.54,4.92,17.37,10,29.88,10,1.53,0,3.09-.08,4.66-.23,12.12-1.22,26-6.67,40.61-12.44s29.92-11.77,43.35-13.11c1.74-.17,3.5-.25,5.23-.25,13.86,0,24.5,5.4,33.89,10.17,1.35.69,2.67,1.36,4,2Zm-7.53,12.47h0c1.65-3.48,3.29-6.95,4.91-10.44l-2.72-1.37c-9.09-4.63-19.39-9.85-32.54-9.85-1.63,0-3.29.08-4.95.24-13,1.29-28,7.2-42.54,12.91-14.19,5.59-28.87,11.37-41.4,12.63a49,49,0,0,1-5,.25c-13.31,0-22.9-5.53-31.36-10.41-1.67-.95-3.24-1.87-4.82-2.72-1.44,3-2.87,6.08-4.26,9.06l-1.86,4,1.4.75c9.31,5,19.86,10.73,33.83,10.73,1.7,0,3.46-.09,5.2-.26,12.56-1.26,27.25-7.07,41.45-12.7,14.47-5.73,29.44-11.65,42.54-12.95,1.58-.15,3.15-.23,4.69-.23,13,0,22.59,5.49,31,10.34,1.74,1,3.39,1.94,5,2.82Z" transform="translate(-46.36 -166.19)"/><path class="cls-4" d="M429.58,438.3l.8.81c-.88-.44-1.78-.91-2.69-1.36-9.11-4.65-19.45-9.92-32.62-9.92-1.63,0-3.29.09-4.94.25-13,1.29-28,7.2-42.47,12.91-14.2,5.6-28.89,11.39-41.42,12.63-1.66.16-3.32.24-4.95.24-13.31,0-22.91-5.52-31.37-10.4-1.66-.95-3.24-1.86-4.82-2.72l-.8-.8c1.58.86,3.16,1.77,4.82,2.72,8.46,4.88,18.06,10.39,31.37,10.39,1.62,0,3.29-.08,4.95-.24,12.53-1.23,27.21-7,41.42-12.62,14.48-5.71,29.47-11.62,42.47-12.92,1.64-.16,3.31-.24,4.93-.24,13.18,0,23.52,5.27,32.63,9.92C427.8,437.4,428.7,437.87,429.58,438.3Z" transform="translate(-46.36 -166.19)"/><path class="cls-9" d="M429.58,438.3l.8.81-.06.12,0,.08,0,0-.05.12,0,0,0,.08-.06.12h0l-.06.12,0,.09,0,0-.05.12,0,.05,0,.08-.06.12h0l-.05.11,0,.09,0,0-.06.12,0,.06,0,.07-.06.12h0l-.05.11-.05.1v0l-.06.13,0,.05,0,.07-.23.49,0,.06,0,.06-.06.12v0l-.09.21v0l-.06.12,0,.06,0,.06-.06.12v0l-.05.09-.05.11v0l-.06.12,0,.07,0,.05-.06.12v0l-.05.1,0,.11h0l-.17.37,0,0,0,.09-.12.24,0,.08,0,0-.06.13,0,0,0,.08-.06.12h0l-.06.12,0,.09,0,0,0,.12,0,0,0,.08-.06.12h0l-.06.12,0,.08,0,0-.06.12,0,.05,0,.07-.06.13h0l-.05.11-.05.09v0l-.06.12,0,.06,0,.07-.05.12h0l-.05.11,0,.1v0l-.22-.21,0,0-.21-.21-.06-.06-.07-.07v0l-.11-.11,0,0-.06-.06Z" transform="translate(-46.36 -166.19)"/><path class="cls-14" d="M423.22,451.79l0,0h0l-.05,0h0l-.06,0h0l0,0,0,0h0l-.06,0h0l0,0,0,0h0l0,0h0l-.06,0h0l0,0-.05,0h0l-.05,0h0l0,0,0,0h0l0,0h0l0,0,0,0h0l-.06,0h0l-.05,0h0l0,0,0,0h0l-.06,0h0l0,0,0,0h0l-.05,0h0l-.05,0,0,0h0l-.05,0h0l-.05,0,0,0,0,0,0,0h0l-.06,0h0l0,0,0,0h0l-.11-.06,0,0,0,0-.05,0h0l-.05,0h0l0,0-.27-.16h0l-.22-.13h0l-.77-.45,0,0,0,0-.43-.25-.08,0-.08-.05,0,0h0l0,0,0,0h0l0,0,0,0h0l0,0,0,0h0l-.06,0h0l0,0,0,0h0l0,0-.06,0,0,0,0,0h0l-.11-.07h0l0,0,0,0h0l0,0,0,0-.08,0h0l0,0,0,0h0l0,0h0l0,0h0l0,0-.06,0h0l0,0,0,0h0l0,0,0,0h0l0,0h-.06l0,0,0,0h0l0,0-.12-.07s-.31-.26-.56-.49l-.26-.32,1.88,1.08.58.34.37.37-.16-.16.16.16-.37-.37h0l.09.09-.09-.09c1.2.69,2.37,1.36,3.53,2l.29.29.09.09.42.42Zm-3.86-2.33.12.12-.12-.12.27.27,0,0,0,0-.27-.27Zm.3.3,0,0h0l0,0Zm-.82-.79h0v0h0v0h0l0,0v0h0l0,0v0h0l0,0v0h0v0h0v0h0v0h0v0l0,0h0v0l0,0h0v0l0,0h0v0h0v0Zm.5.5h0l0,0h0l0,0v0h0l0,0v0h0l0,0v0h0l0,0v0h0v0h0v0l0,0h0v0l0,0h0v0l0,0h0v0l0,0h0l0,0Z" transform="translate(-46.36 -166.19)"/><path class="cls-12" d="M393.77,426.53c13.17,0,23.51,5.27,32.62,9.92.91.45,1.81.92,2.69,1.36-2.08,4.37-4.18,8.75-6.26,13.16-1.65-.87-3.3-1.82-5-2.82-8.44-4.85-18-10.33-31-10.33a46.64,46.64,0,0,0-4.7.23c-13.08,1.29-28,7.21-42.49,12.94-14.2,5.63-28.89,11.44-41.46,12.71-1.75.17-3.51.25-5.23.25-13.88,0-24.39-5.65-33.66-10.62l-1.59-.85,2.36-5c1.28-2.68,2.55-5.37,3.81-8,1.58.86,3.16,1.77,4.82,2.72,8.46,4.88,18.06,10.4,31.37,10.4,1.63,0,3.29-.08,4.95-.24,12.53-1.24,27.22-7,41.42-12.63,14.49-5.71,29.48-11.62,42.47-12.92C390.47,426.61,392.14,426.53,393.77,426.53Z" transform="translate(-46.36 -166.19)"/><path class="cls-14" d="M424.12,452.27H424l0,0h0l0,0h-.15l-.07,0h0l0,0h0l-.16-.08h-.05l-.13-.07h-.11l-.15-.15,0,0-.11-.11,0,0h0l-.08-.08,0,0,0,0,0,0h0l0,0,0,0,0,0h0l0,0h0l-.05-.06,0,0-.05-.05.89.48Z" transform="translate(-46.36 -166.19)"/><path class="cls-9" d="M426.65,446.93l0,.09,0,.08h0l0,.07,0,.09,0,.05v0l0,.08-.08.17,0,.08,0,.05,0,0,0,.08,0,.08h0l0,.08,0,.08,0,0,0,0,0,.09,0,.08h0l0,.08,0,.09,0,0,0,0,0,.08,0,.08h0l0,.08,0,.08,0,0,0,0,0,.08,0,.07h0l0,.09,0,.08v0l0,.05,0,.09,0,.07h0l0,.08,0,.09v0l0,.06,0,.08,0,.07v0l0,.08,0,.09v0l0,.06,0,.08,0,.06v0l0,.08,0,.08v0l0,.07,0,.08,0,.06v0l0,.09,0,.08h0l0,.07,0,.09,0,.05v0l0,.08,0,.09h0l0,.07,0,.09,0,0,0,0,0,.08,0,.09h0l0,.08,0,.08,0,.05v0l0,.08,0,.08-.81-.8,2.54-5.34.06.06,0,0,.11.11v0l.07.07.06.06.21.21,0,0Z" transform="translate(-46.36 -166.19)"/><path class="cls-4" d="M423.31,454.84l.81.81c-2.16-1.1-4.27-2.32-6.51-3.62-8.12-4.65-17.31-9.94-29.56-9.94a44,44,0,0,0-4.41.22c-12.66,1.26-27.41,7.1-41.68,12.75s-29.28,11.6-42.27,12.89a54,54,0,0,1-5.52.28c-14.63,0-25.49-5.83-35.06-11l-2.83-1.51-.81-.8,2.83,1.51c9.58,5.15,20.43,11,35.07,11a54.28,54.28,0,0,0,5.52-.28c13-1.29,27.88-7.19,42.27-12.89s29-11.5,41.67-12.76c1.49-.14,3-.21,4.42-.21,12.25,0,21.44,5.28,29.55,9.94C419.05,452.53,421.16,453.74,423.31,454.84Z" transform="translate(-46.36 -166.19)"/><path class="cls-4" d="M433.71,439.07l-.12.25h0l-.12.24h0l-.12.25h0l-.12.25-.11.24h0l-.12.25h0l-.12.25h0l-.12.25h0l-.12.24h0l-.12.25h0l-.12.25h0l-.11.24h0l-.12.25h0l-.12.25h0l-.12.25h0l-.12.24h0l-.12.25h0l-.11.25h0l-.12.25h0l-.12.24h0l-.12.25-.12.25-.12.25-.11.24h0l-.12.25h0l-.12.25-.12.25h0l-.12.24h0l-.12.25h0l-.11.25h0l-.12.25-.12.25h0l-.12.24-.12.25h0l-.12.25h0l-.11.25h0l-.12.25-.12.24-.12.25L429,449l-.12.25-.11.25-.12.25-.12.25-.12.24h0l-.12.25h0l-.11.25h0L428,451l-.12.25-.12.25-.12.25-.12.25-.11.24-.12.25-.12.25-.12.25-.12.25-.11.25-.12.25-.12.25-.12.25-.12.25-.11.25-.12.25-.81-.8q3.78-8,7.57-15.88Z" transform="translate(-46.36 -166.19)"/><polygon class="cls-5" points="377.82 288.87 379.12 290.17 377.75 289.46 376.45 288.16 377.82 288.87"/><path class="cls-4" d="M431.72,435.79l1.32.65-.63,1.33c-2.53,5.27-5.06,10.55-7.57,15.88l-.66,1.4-1.37-.71c-2.15-1.1-4.26-2.31-6.5-3.61-8.12-4.65-17.31-9.94-29.56-9.94a44,44,0,0,0-4.41.22c-12.66,1.26-27.41,7.1-41.68,12.75s-29.28,11.6-42.27,12.89a54,54,0,0,1-5.52.28c-14.63,0-25.49-5.83-35.07-11L255,454.44l-1.26-.66,3.58-7.57q2.25-4.74,4.48-9.45l.66-1.4,1.37.71c2.09,1.08,4.14,2.26,6.3,3.51,8.55,4.91,17.37,10,29.89,10,1.53,0,3.09-.08,4.67-.23,12.1-1.2,25.95-6.65,40.61-12.43s29.85-11.77,43.27-13.11c1.75-.17,3.5-.26,5.22-.26,13.9,0,24.56,5.44,34,10.24,1.35.68,2.67,1.36,4,2ZM422.82,451h0c2.08-4.41,4.18-8.79,6.26-13.16-.88-.44-1.78-.91-2.69-1.36-9.11-4.65-19.45-9.92-32.62-9.92a48.21,48.21,0,0,0-4.94.25c-13,1.29-28,7.2-42.47,12.91-14.2,5.6-28.89,11.39-41.42,12.63-1.66.16-3.32.24-4.95.24-13.31,0-22.91-5.52-31.37-10.4-1.66-1-3.24-1.86-4.82-2.72-1.26,2.67-2.53,5.36-3.81,8l-2.36,5,1.59.85c9.27,5,19.78,10.62,33.66,10.62,1.72,0,3.48-.08,5.23-.25,12.57-1.27,27.26-7.08,41.46-12.71,14.46-5.73,29.41-11.65,42.49-12.94a46.64,46.64,0,0,1,4.7-.23c13,0,22.6,5.48,31,10.33C419.52,449.15,421.17,450.1,422.82,451Z" transform="translate(-46.36 -166.19)"/><path class="cls-4" d="M417.77,463.1l.81.81-2.71-1.38c-9.09-4.64-19.38-9.91-32.55-9.91a48,48,0,0,0-4.92.25c-13,1.3-28,7.2-42.47,12.9-14.21,5.61-28.93,11.41-41.49,12.64a49,49,0,0,1-4.95.25c-13.27,0-22.84-5.5-31.27-10.37-1.69-1-3.3-1.89-4.9-2.76l-.81-.8c1.61.87,3.22,1.8,4.9,2.76,8.44,4.86,18,10.37,31.27,10.37,1.62,0,3.29-.09,5-.25,12.56-1.23,27.27-7,41.49-12.64,14.49-5.7,29.47-11.6,42.46-12.91,1.65-.16,3.3-.24,4.93-.24,13.17,0,23.46,5.27,32.55,9.91Z" transform="translate(-46.36 -166.19)"/><path class="cls-14" d="M411.56,476.27l.8.8c-1.66-.88-3.33-1.85-5.09-2.85-8.4-4.82-17.93-10.27-30.85-10.27-1.58,0-3.19.08-4.79.24-13.14,1.28-28.12,7.21-42.61,12.94l-.32.12-.32.13h0l-.3.12-.32.13h-.05l-.27.11-.33.13-.07,0-.25.1-.32.12-.09,0-.23.09-.32.13-.12,0-.21.08-.32.13-.14.06-.18.07-.32.12-.17.07-.16.06-.32.13-.19.07-.13,0-.32.13-.21.08-.12.05-.32.12-.23.09-.09,0-.32.12-.26.1-.07,0-.32.12-.28.11,0,0-.33.12-.3.12h0l-.32.12-.05,0-.6.23L319,481h0l-.29.11,0,0-.62.23-.32.12-.08,0-.24.09-.32.12-.1,0-.23.08-.32.12-.12.05-.2.07-.32.12-.15.06-.18.06-.32.12-.17.06-.15.06-.32.12-.32.11-.32.12-.32.12-.32.11-.33.12-.32.11-.26.1-.06,0-.32.11-.32.11-.32.12-.3.1h0l-.32.11-1.91.65-.32.11-.19-.2-.07-.07h0l-.18-.18,0,0-.12-.11,0,0-.05,0-.1-.11h0c6.78-2.26,13.73-5,20.58-7.72,14.49-5.73,29.47-11.65,42.6-12.93,1.6-.16,3.22-.24,4.8-.24,12.92,0,22.45,5.45,30.84,10.27C408.22,474.42,409.9,475.38,411.56,476.27Z" transform="translate(-46.36 -166.19)"/><path class="cls-12" d="M382,451.32c13.17,0,23.46,5.27,32.55,9.91.92.47,1.81.93,2.71,1.37-2.08,4.39-4.14,8.76-6.22,13.17-1.66-.88-3.33-1.85-5.09-2.85-8.4-4.82-17.93-10.27-30.85-10.27-1.58,0-3.19.08-4.79.24-13.14,1.28-28.12,7.21-42.61,12.94-14.18,5.61-28.85,11.4-41.41,12.65-1.74.17-3.49.26-5.2.26-13.86,0-24.42-5.66-33.73-10.66l-1.5-.81q1.8-3.81,3.59-7.62l2.55-5.42c1.6.87,3.21,1.8,4.9,2.76,8.43,4.87,18,10.37,31.27,10.37,1.61,0,3.29-.09,4.95-.25,12.56-1.23,27.27-7,41.49-12.64,14.49-5.7,29.47-11.6,42.47-12.91C378.74,451.4,380.4,451.32,382,451.32Z" transform="translate(-46.36 -166.19)"/><path class="cls-9" d="M417.77,463.1l.81.81-.1.2-.1.21-.09.2-.1.21-.1.2-.1.21-.09.2-.1.21-.1.2-.09.21-.1.2-.1.21-.1.2-.09.21-.1.2-.1.21-.09.2-.1.21-.1.21-.1.2h0l-.09.21-.1.2-.1.21-.09.2h0l-.1.21-.1.2h0l-.09.21-.1.2-.1.21h0l-.1.2-.09.21-.1.21-.1.2-.09.21h0l-.1.2h0l-.1.21-.09.2h0l-.1.21-.1.21-.1.2h0l-.09.21h0l-.1.2-.1.21h0l-.09.2h0l-.1.21h0l-.1.21h0l-.09.2h0l-.1.21h0l-.1.2h0l-.1.21h0l-.09.21h0l-.1.2h0l-.1.21h0l-.09.21h0l-.1.2h0l-.1.21h0l-.1.21h0l-.09.2h0l-.1.21h0l-.1.21h0l-.09.2h0l-.1.21h0l-.1.21h0l-.1.2-.8-.8Z" transform="translate(-46.36 -166.19)"/><path class="cls-4" d="M411.57,479.64l.8.8c-2.18-1.11-4.32-2.34-6.58-3.64-8.48-4.85-17.24-9.87-29.38-9.87-1.48,0-3,.08-4.5.23-12.71,1.23-27.5,7.09-41.81,12.74s-29.23,11.56-42.2,12.85c-1.84.18-3.69.28-5.5.28-14.61,0-25.51-5.85-35.13-11l-2.75-1.47-.8-.8c.91.47,1.82,1,2.75,1.47,9.61,5.16,20.51,11,35.13,11,1.81,0,3.66-.1,5.5-.28,13-1.3,27.83-7.17,42.2-12.85s29.09-11.51,41.81-12.74a42.68,42.68,0,0,1,4.5-.24c12.14,0,20.89,5,29.37,9.88C407.25,477.3,409.39,478.53,411.57,479.64Z" transform="translate(-46.36 -166.19)"/><path class="cls-4" d="M421.23,461.24l1.09,1.53c-2.36,4.93-6.23,13.38-8.57,18.37l-1.3-1.3C414.79,474.85,418.88,466.17,421.23,461.24Z" transform="translate(-46.36 -166.19)"/><polygon class="cls-5" points="366.09 313.65 367.39 314.96 366.01 314.26 364.71 312.96 366.09 313.65"/><path class="cls-4" d="M419.92,460.59l1.31.65-.64,1.33c-2.35,4.93-4.67,9.87-7,14.86l-1.13,2.41-1.38-.7c-2.18-1.11-4.32-2.34-6.59-3.64-8.47-4.85-17.23-9.87-29.37-9.87-1.48,0-3,.08-4.5.23C357.9,467.09,343.1,473,328.8,478.6s-29.23,11.56-42.2,12.85c-1.84.18-3.69.28-5.5.28-14.61,0-25.51-5.86-35.13-11l-2.75-1.47-1.25-.67.62-1.29,4.19-8.9,3.21-6.83.66-1.4,1.38.71c2.11,1.1,4.18,2.29,6.38,3.55,8.51,4.91,17.31,10,29.78,10a45.86,45.86,0,0,0,4.66-.23c12.15-1.2,26.67-6.91,40.7-12.45,14.68-5.78,29.85-11.75,43.26-13.09a51,51,0,0,1,5.22-.26c13.88,0,24.52,5.43,33.91,10.23,1.35.69,2.67,1.36,4,2Zm-8.86,15.18h0c2.08-4.41,4.14-8.78,6.22-13.17-.9-.44-1.79-.9-2.71-1.37-9.09-4.64-19.38-9.91-32.55-9.91-1.62,0-3.28.08-4.92.24-13,1.31-28,7.21-42.47,12.91-14.22,5.61-28.93,11.41-41.49,12.64-1.66.16-3.34.25-4.95.25-13.27,0-22.84-5.5-31.27-10.37-1.69-1-3.3-1.89-4.9-2.76l-2.55,5.42q-1.78,3.81-3.59,7.62l1.5.81c9.31,5,19.87,10.66,33.73,10.66,1.71,0,3.46-.09,5.2-.26,12.56-1.25,27.23-7,41.41-12.65,14.49-5.73,29.47-11.66,42.61-12.94,1.6-.16,3.21-.24,4.79-.24,12.92,0,22.45,5.45,30.85,10.27C407.73,473.92,409.4,474.89,411.06,475.77Z" transform="translate(-46.36 -166.19)"/><path class="cls-4" d="M406,487.9l.8.8h0l0,0h0l0,0h0l0,0h0l0,0h0l0,0h0l0,0h0l0,0h0l0,0h0l0,0,0,0h0l0,0h0l0,0h0l0,0h0l-.05,0h0l0,0h0l0,0h0l0,0,0,0h0l0,0h0l-.05,0h0l0,0h0l0,0,0,0,0,0,0,0-.05,0h0l0,0h0l0,0h0l0,0,0,0,0,0h0l0,0,0,0h0l0,0,0,0h0l-.05,0,0,0h0l0,0,0,0,0,0h0l0,0-.05,0,0,0,0,0,0,0,0,0-.05,0,0,0,0,0,0,0,0,0,0,0h0l0,0,0,0,0,0-.05,0,0,0,0,0,0,0,0,0-.05,0,0,0,0,0,0,0c-9.12-4.65-19.46-9.92-32.63-9.92-1.63,0-3.29.08-4.94.24-13,1.3-27.95,7.21-42.44,12.91-14.21,5.61-28.92,11.4-41.44,12.63-1.68.16-3.35.25-5,.25-13.23,0-22.81-5.5-31.27-10.36l-.07,0-.08-.05-.08,0-.08,0-.08,0-.08-.05-.08,0-.07,0-.08,0-.08-.05-.08,0-.08-.05-.07,0h0l-.08-.05-.08,0-.08,0-.08-.05-.07,0h0l-.08-.05-.08,0-.07,0h0l-.08-.05-.08,0-.08-.05-.07,0h0l-.08,0-.08-.05-.07,0-.08,0h0l-.08-.05-.07,0-.08-.05-.07,0h0l-.07,0-.08,0-.07-.05-.08,0-.08,0h0l-.07-.05-.08,0-.07,0-.08,0h0l-.07-.05h0l-.07,0h0l-.08,0-.07,0h0l-.08-.05-.07,0h0l-.08,0h0l-.07,0h0l-.08,0-.07,0h0l-.08-.05-.07,0h0l-.08,0h0l-.07,0h0l-.07,0h0l-.07,0h0l-.07,0h0l-.08-.05h0l-.07,0h0l-.08,0h0l-.07,0h0l-.08,0h0l-.8-.8c1.6.86,3.21,1.79,4.9,2.76,8.45,4.85,18,10.36,31.26,10.36,1.63,0,3.3-.09,5-.25,12.53-1.23,27.23-7,41.45-12.63,14.48-5.7,29.46-11.61,42.44-12.91,1.64-.16,3.31-.24,4.94-.24,13.17,0,23.51,5.26,32.62,9.91Z" transform="translate(-46.36 -166.19)"/><polygon class="cls-9" points="359.17 321.22 360.48 322.52 354.21 335.69 352.91 334.39 359.17 321.22"/><path class="cls-12" d="M370.23,476.12c13.17,0,23.51,5.27,32.63,9.91.9.47,1.79.93,2.67,1.37l-6.26,13.17c-1.62-.87-3.25-1.8-5-2.79-8.44-4.84-18-10.33-31-10.33-1.57,0-3.18.08-4.78.24-13.14,1.28-28.12,7.2-42.6,12.94-14.17,5.61-28.81,11.4-41.35,12.65-1.75.17-3.5.26-5.22.26-13.9,0-24.44-5.67-33.74-10.66l-1.51-.82,6.17-13c1.6.87,3.22,1.8,4.9,2.76,8.46,4.86,18,10.36,31.26,10.36,1.63,0,3.3-.09,5-.25,12.52-1.23,27.23-7,41.44-12.63,14.49-5.7,29.46-11.61,42.44-12.91C366.94,476.2,368.6,476.12,370.23,476.12Z" transform="translate(-46.36 -166.19)"/><path class="cls-4" d="M399.76,504.44l.8.8c-2.13-1.09-4.22-2.3-6.45-3.57-8.11-4.66-17.31-9.94-29.51-9.94a42.47,42.47,0,0,0-4.49.23c-12.74,1.23-27.51,7.09-41.81,12.75s-29.18,11.55-42.14,12.84c-1.85.18-3.7.27-5.52.27-14.64,0-25.54-5.85-35.14-11l-2.76-1.48-.81-.8,2.76,1.47c9.61,5.17,20.51,11,35.15,11,1.81,0,3.67-.09,5.52-.27,12.95-1.3,27.79-7.17,42.14-12.85s29.07-11.51,41.81-12.75c1.5-.15,3-.23,4.48-.23,12.21,0,21.41,5.28,29.52,9.94C395.53,502.14,397.63,503.35,399.76,504.44Z" transform="translate(-46.36 -166.19)"/><path class="cls-4" d="M408.18,485.38l1.31.65-8.86,18.62-1.37-.71c-2.13-1.09-4.22-2.3-6.45-3.57-8.11-4.66-17.31-9.94-29.51-9.94a42.47,42.47,0,0,0-4.49.23c-12.74,1.23-27.51,7.09-41.81,12.74S287.82,515,274.86,516.25c-1.85.18-3.7.27-5.52.27-14.64,0-25.54-5.85-35.14-11L231.44,504l-1.25-.66L238.91,485l1.37.71c2.12,1.1,4.19,2.29,6.39,3.55,8.52,4.9,17.34,10,29.77,10a46.43,46.43,0,0,0,4.68-.24c12.12-1.18,26-6.65,40.64-12.43s29.85-11.77,43.25-13.11c1.75-.16,3.5-.25,5.23-.25,13.89,0,24.56,5.44,34,10.24,1.35.69,2.66,1.36,4,2Zm-8.91,15.19h0l6.26-13.17c-.88-.44-1.77-.9-2.67-1.37-9.12-4.64-19.46-9.91-32.63-9.91-1.63,0-3.29.08-4.94.24-13,1.3-28,7.21-42.44,12.91-14.21,5.61-28.92,11.4-41.44,12.63-1.68.16-3.35.25-5,.25-13.22,0-22.8-5.5-31.26-10.36-1.68-1-3.3-1.89-4.9-2.76l-6.17,13,1.51.82c9.3,5,19.84,10.66,33.74,10.66,1.72,0,3.47-.09,5.22-.26,12.54-1.25,27.18-7,41.35-12.65,14.48-5.74,29.46-11.66,42.6-12.94,1.6-.16,3.21-.24,4.78-.24,13,0,22.57,5.49,31,10.33C396,498.77,397.65,499.7,399.27,500.57Z" transform="translate(-46.36 -166.19)"/><polygon class="cls-5" points="354.27 338.46 355.57 339.76 354.2 339.06 352.9 337.76 354.27 338.46"/><polygon class="cls-4" points="363.13 319.85 364.43 321.15 355.57 339.76 354.27 338.46 363.13 319.85"/><polygon class="cls-4" points="363.13 319.85 364.43 321.15 355.57 339.76 354.27 338.46 363.13 319.85"/><path class="cls-4" d="M433,436.44l1.1,1.71c-2.35,4.93-6.32,13.21-8.66,18.2l-1.3-1.3C426.52,450.06,430.68,441.37,433,436.44Z" transform="translate(-46.36 -166.19)"/><polygon class="cls-4" points="398.4 245.44 399.7 246.74 390.89 265.33 389.63 264.06 398.4 245.44"/><path class="cls-15" d="M428.33,352.69c12.76-.43,21.91,3.75,35.27,10.51l.36.18.37.19-6.17,13c-12-6.52-19.51-12.22-33.34-13-1.59-.1-3.27-.12-5.05-.08-7.19.18-16.25,2.65-25.68,5.91-8.52,2.94-17.32,6.52-25.31,9.64-3.5,1.37-6.85,2.65-9.94,3.74-2.91,1-5.74,2-8.55,2.87-9.11,2.82-17.83,4.55-27.14,3.64a52.5,52.5,0,0,1-9.29-1.78c-1.55-.44-3.09-1-4.61-1.53a134,134,0,0,1-15.74-7.58l6.09-12.85c6.1,3.34,11.42,6.59,17,9a48.65,48.65,0,0,0,11.5,3.51,47.61,47.61,0,0,0,12.09.4,70.79,70.79,0,0,0,10.34-1.76c1.23-.28,2.49-.59,3.78-.94,5.61-1.52,11.74-3.72,18.09-6.16,8.44-3.23,17.25-6.89,25.7-9.93a144.6,144.6,0,0,1,16.48-5A73.3,73.3,0,0,1,428.33,352.69Z" transform="translate(-46.36 -166.19)"/><path class="cls-16" d="M419.14,377.44c12.42.33,22.45,5.36,33.4,10.93l-6.14,13c-10.7-5.76-19-11.6-30.86-12.9a48.23,48.23,0,0,0-9.35-.09,62.14,62.14,0,0,0-6.34.88,148,148,0,0,0-22.54,6.65c-10.37,3.8-21,8.31-30.82,11.83-3.42,1.23-6.75,2.34-9.92,3.26a93,93,0,0,1-11.71,2.66,51.54,51.54,0,0,1-16.49,0,58.08,58.08,0,0,1-11.65-3.27,101.58,101.58,0,0,1-10.56-4.85l-4.44-2.37,3.95-8.34,2.13-4.52c5.36,2.93,10.15,5.84,15.08,8.17a54.06,54.06,0,0,0,9.91,3.64,45.85,45.85,0,0,0,14.95,1.18c.65-.05,1.3-.12,2-.19a102.94,102.94,0,0,0,20.48-5c10.07-3.38,20.64-7.83,31-11.75a178.53,178.53,0,0,1,22.14-7.09,65.61,65.61,0,0,1,13.89-1.88C417.87,377.42,418.51,377.43,419.14,377.44Z" transform="translate(-46.36 -166.19)"/><path class="cls-17" d="M407.22,402.15c12.42.33,22.45,5.36,33.39,10.93l-6.13,13c-10.7-5.76-19-11.59-30.86-12.9a48.23,48.23,0,0,0-9.35-.09,62.42,62.42,0,0,0-6.35.89,146,146,0,0,0-22.53,6.65c-10.37,3.79-21,8.3-30.82,11.82-3.42,1.23-6.75,2.34-9.92,3.26a93.4,93.4,0,0,1-11.71,2.66,51.54,51.54,0,0,1-16.49,0,59.44,59.44,0,0,1-11.65-3.27,103.91,103.91,0,0,1-10.56-4.86l-4.44-2.37,3.95-8.33,2.13-4.52c5.36,2.92,10.15,5.83,15.08,8.16a54.09,54.09,0,0,0,9.91,3.65A45.86,45.86,0,0,0,315.82,428c.65-.05,1.3-.12,2-.19a102.25,102.25,0,0,0,20.48-5c10.07-3.37,20.64-7.83,31-11.75A178.53,178.53,0,0,1,391.41,404a66.27,66.27,0,0,1,13.89-1.88C406,402.13,406.59,402.14,407.22,402.15Z" transform="translate(-46.36 -166.19)"/><path class="cls-18" d="M393.65,427c13.47-.16,23.74,5.11,35.34,11l-6.17,13c-11.67-6.28-20.51-12.85-34.84-13.15-1.15,0-2.33,0-3.56.05a76.61,76.61,0,0,0-16.67,3c-8.21,2.31-16.86,5.65-25.56,9.08-7.78,3.06-15.59,6.2-23.14,8.72-9.06,3-17.75,5.18-25.56,5.26-1.36,0-2.68,0-4-.11a57.56,57.56,0,0,1-19.5-5.15c-3.92-1.72-7.8-3.75-11.8-5.9l6.09-12.85c3.73,2,7.16,4.06,10.54,5.88,5.84,3.15,11.57,5.7,18.53,6.73A48.39,48.39,0,0,0,303,453a83.12,83.12,0,0,0,20-4h0l.06,0c7.55-2.35,15.47-5.44,23.41-8.57C355,437,363.71,433.56,372,431a84.09,84.09,0,0,1,19.64-3.92C392.31,427.07,393,427,393.65,427Z" transform="translate(-46.36 -166.19)"/><path class="cls-19" d="M381.8,451.65c13.47-.16,23.73,5.11,35.33,11l-6.17,13c-11.67-6.29-20.5-12.85-34.84-13.16-1.14,0-2.33,0-3.55.05a76.61,76.61,0,0,0-16.67,3c-8.21,2.31-16.87,5.65-25.56,9.08-7.78,3.07-15.59,6.2-23.14,8.72-9.07,3-17.76,5.18-25.56,5.26-1.36,0-2.69,0-4-.11a57.27,57.27,0,0,1-19.49-5.14c-3.92-1.73-7.8-3.76-11.8-5.91l6.09-12.85c3.73,2,7.15,4.06,10.54,5.88,5.84,3.15,11.57,5.7,18.53,6.74a48.39,48.39,0,0,0,9.58.44,82.68,82.68,0,0,0,20-4h0l.06,0c7.56-2.35,15.48-5.44,23.42-8.56,8.64-3.39,17.31-6.82,25.59-9.35a84.53,84.53,0,0,1,19.63-3.92C380.45,451.68,381.13,451.66,381.8,451.65Z" transform="translate(-46.36 -166.19)"/><path class="cls-20" d="M368.18,476.74a48.69,48.69,0,0,1,7.36.11c10,1,19.31,5.25,28.15,9.85l1.75.9-6.17,13c-12-6.48-21-13-35.21-13.13-1.39,0-2.84,0-4.34.14a71.34,71.34,0,0,0-9.32,1.4c-8.18,1.76-16.92,4.83-25.66,8.18-10.95,4.21-21.91,8.87-31.74,12-1.22.38-2.41.74-3.59,1.07a97.35,97.35,0,0,1-11.08,2.52,53.57,53.57,0,0,1-14.83.47,54.92,54.92,0,0,1-13.35-3.36,98,98,0,0,1-11-5.09l-4.44-2.37,6.09-12.85c5,2.71,9.42,5.37,13.89,7.58a53,53,0,0,0,12.9,4.63,47.4,47.4,0,0,0,14.34.66l1.43-.15a86.27,86.27,0,0,0,13.32-2.82c10.22-2.92,21-7.42,31.75-11.66,9.38-3.69,18.74-7.17,27.71-9.22A71.68,71.68,0,0,1,368.18,476.74Z" transform="translate(-46.36 -166.19)"/><path class="cls-3" d="M131.5,533.68l2.66,3.33-11.64,9.31c-.25.21-.53.41-.83.63s-.62.42-1,.61a5.93,5.93,0,0,1-3.07.72c-1.12,0-2.28-.78-3.46-2.26-.12-.14-.22-.28-.33-.43l-.32-.48a10.71,10.71,0,0,1-.59-.9c-.19-.32-.36-.63-.51-1l2.67-2.13c.07.15.15.3.23.45s.17.3.27.46a2.69,2.69,0,0,0,.28.46c.1.15.2.28.29.39a2.05,2.05,0,0,0,1.75,1,4.1,4.1,0,0,0,2.14-1Z" transform="translate(-46.36 -166.19)"/><path class="cls-3" d="M145,549.21a10.33,10.33,0,0,1,3.18,7.16c.08,2.69-1.14,5.26-3.64,7.71s-5.08,3.61-7.76,3.48a11.23,11.23,0,0,1-10.28-10.48q-.12-4,3.63-7.69c2.49-2.46,5.09-3.62,7.77-3.49a10.31,10.31,0,0,1,7.1,3.31Zm-2.14,2.1h0a7.31,7.31,0,0,0-.75-.65,4.13,4.13,0,0,0-1-.57,5.68,5.68,0,0,0-3.35-.31q-2,.32-4.52,2.82a9.21,9.21,0,0,0-2.91,4.47,5.73,5.73,0,0,0,.25,3.35,4.36,4.36,0,0,0,.55,1,6.53,6.53,0,0,0,.64.76,6.29,6.29,0,0,0,.75.66,5.07,5.07,0,0,0,1,.57,5.76,5.76,0,0,0,3.35.31,12.33,12.33,0,0,0,7.43-7.29,5.76,5.76,0,0,0-.25-3.36,4.6,4.6,0,0,0-.55-1A8.78,8.78,0,0,0,142.89,551.31Z" transform="translate(-46.36 -166.19)"/><rect class="cls-21" x="141.29" y="568.56" width="21" height="4.26" transform="translate(-417.2 129.58) rotate(-47.36)"/><polygon class="cls-3" points="119.36 402.6 123.78 405.91 121.65 420.85 120.83 423.8 120.9 423.85 123.06 420.82 130.48 410.93 133.89 413.49 121.29 430.29 116.87 426.98 119.26 411.59 119.82 409.09 119.75 409.03 117.59 412.06 110.17 421.95 106.76 419.4 119.36 402.6"/><polygon class="cls-3" points="138.41 416.08 152.43 424.56 150.51 427.74 145.32 424.61 136.38 439.4 132.74 437.19 141.67 422.4 136.48 419.27 138.41 416.08"/><path class="cls-3" d="M199.63,613.35l1.83-3.2a10.7,10.7,0,0,0,1,.93c.36.32.72.61,1.1.9s.75.51,1.14.75a7.85,7.85,0,0,0,1.1.58,3.69,3.69,0,0,0,2.57.24,2.35,2.35,0,0,0,1.56-3.15,7.15,7.15,0,0,0-1.16-1.7c-.2-.24-.42-.48-.65-.73s-.47-.51-.7-.78a3.11,3.11,0,0,0-.23-.28,2,2,0,0,1-.23-.27,12,12,0,0,1-2-3.19,4.6,4.6,0,0,1,.23-3.53,7,7,0,0,1,1.49-2.18,6.07,6.07,0,0,1,2.68-1.36,6.85,6.85,0,0,1,4.2.63,20.21,20.21,0,0,1,2.42,1.2c.71.43,1.31.82,1.81,1.19a6.35,6.35,0,0,1,.54.42l.42.33L217,603.08c-.29-.3-.61-.58-.94-.87s-.68-.55-1-.8-.64-.42-.94-.59a9,9,0,0,0-.94-.45,3.88,3.88,0,0,0-2-.4,2.65,2.65,0,0,0-1.2.45,3.07,3.07,0,0,0-.35.41,2.8,2.8,0,0,0-.2.37,2.19,2.19,0,0,0-.07,1.73,5.33,5.33,0,0,0,.84,1.42,4.1,4.1,0,0,0,.33.37l.32.33.05.07.09,0,.09.1.09.1a21.56,21.56,0,0,1,2.9,3.69c.8,1.28.79,2.88,0,4.8l-.09.23a1.13,1.13,0,0,1-.12.21,5.8,5.8,0,0,1-3.35,2.79q-2.39.88-6.18-.69a13.76,13.76,0,0,1-2.65-1.45A23.71,23.71,0,0,1,199.63,613.35Z" transform="translate(-46.36 -166.19)"/><polygon class="cls-3" points="177.8 435.49 193.46 440.3 192.37 443.86 186.58 442.07 181.5 458.59 177.42 457.34 182.5 440.82 176.71 439.04 177.8 435.49"/><path class="cls-3" d="M254.32,609.5a10.34,10.34,0,0,1,6.64,4.16q2.34,3.29,1.29,8.43c-.7,3.43-2.2,5.83-4.5,7.22a11.22,11.22,0,0,1-14.37-2.95c-1.57-2.17-2-5-1.3-8.41s2.21-5.84,4.5-7.24a10.39,10.39,0,0,1,7.74-1.21Zm-.6,2.94h0a8.35,8.35,0,0,0-1-.13,5.3,5.3,0,0,0-1.12.06,5.83,5.83,0,0,0-3,1.62,9.22,9.22,0,0,0-2.18,4.87c-.47,2.33-.45,4.11.09,5.33a5.76,5.76,0,0,0,2.08,2.64,4.67,4.67,0,0,0,1,.5,7.37,7.37,0,0,0,1,.27,8.84,8.84,0,0,0,1,.13,5.24,5.24,0,0,0,1.11-.06,5.79,5.79,0,0,0,2.95-1.62c1-.91,1.7-2.54,2.18-4.87s.45-4.11-.09-5.33a5.68,5.68,0,0,0-2.07-2.64,4.92,4.92,0,0,0-1-.5A7.49,7.49,0,0,0,253.72,612.44Z" transform="translate(-46.36 -166.19)"/><path class="cls-3" d="M283.85,630.08l.06,3.58a14.77,14.77,0,0,1-2,.41,20.77,20.77,0,0,1-2.09.16h-.7c-.23,0-.46,0-.68,0a11.74,11.74,0,0,1-7.51-3.1c-2.06-1.89-3-4.6-2.77-8.11a10.32,10.32,0,0,1,3.59-7.72c2.21-1.84,5.11-2.65,8.73-2.43a16.4,16.4,0,0,1,1.87.21c.56.1,1.11.23,1.64.38l.55.2.54.2-.39,3.58a9.81,9.81,0,0,0-2-.72,11.9,11.9,0,0,0-2.12-.3,7.84,7.84,0,0,0-5.46,1.55,6.76,6.76,0,0,0-2.45,5.25q-.23,3.6,1.58,5.31a7.75,7.75,0,0,0,4.05,2.12l.58.08.56,0a10,10,0,0,0,2.23-.09,10.71,10.71,0,0,0,1.73-.42l.25-.06A1,1,0,0,0,283.85,630.08Z" transform="translate(-46.36 -166.19)"/><polygon class="cls-3" points="244.79 447.53 249.04 447.37 249.38 456.34 249.46 456.33 256.72 447.09 261.79 446.91 253.38 456.73 263.1 467.87 257.7 468.07 249.52 457.92 249.43 457.93 249.81 468.36 245.56 468.52 244.79 447.53"/><path class="cls-3" d="M336.6,626.05l.91,3.46a13.63,13.63,0,0,1-1.85.88c-.65.25-1.31.46-2,.65l-.69.17c-.22,0-.44.1-.66.13a11.7,11.7,0,0,1-8-1.23c-2.45-1.35-4-3.76-4.61-7.22a10.35,10.35,0,0,1,1.66-8.36q2.57-3.45,7.9-4.43a15.09,15.09,0,0,1,1.87-.23c.57,0,1.13,0,1.69,0a5.23,5.23,0,0,0,.57.06l.58.07.47,3.57a9.73,9.73,0,0,0-2.12-.22,12.16,12.16,0,0,0-2.13.2,7.86,7.86,0,0,0-4.93,2.81,6.77,6.77,0,0,0-1.15,5.68c.43,2.36,1.37,4,2.8,4.78a7.77,7.77,0,0,0,4.44,1.1l.58-.06.55-.09a9.85,9.85,0,0,0,2.14-.62,9.72,9.72,0,0,0,1.59-.82l.23-.12A.86.86,0,0,0,336.6,626.05Z" transform="translate(-46.36 -166.19)"/><path class="cls-3" d="M348.9,605.59a10.38,10.38,0,0,1,7.81.64c2.4,1.22,4.07,3.51,5,6.88s.74,6.19-.66,8.48a11.22,11.22,0,0,1-14.12,4q-3.58-1.82-5-6.87t.65-8.5a10.4,10.4,0,0,1,6.31-4.65Zm.82,2.89h0a7.66,7.66,0,0,0-.93.34,5.27,5.27,0,0,0-1,.57,5.75,5.75,0,0,0-1.87,2.8c-.45,1.26-.34,3,.31,5.32s1.49,3.85,2.53,4.69a5.74,5.74,0,0,0,3.07,1.39,5.13,5.13,0,0,0,1.11,0,6.68,6.68,0,0,0,1.91-.54,5.27,5.27,0,0,0,1-.57,5.75,5.75,0,0,0,1.87-2.8,12.27,12.27,0,0,0-2.85-10,5.71,5.71,0,0,0-3.06-1.39,4.56,4.56,0,0,0-1.11,0A7.33,7.33,0,0,0,349.72,608.48Z" transform="translate(-46.36 -166.19)"/><polygon class="cls-3" points="339.23 448.61 335.53 450.28 324.71 438.71 322.6 436.37 322.52 436.41 323.91 439.34 329.98 452.79 326.1 454.54 317.46 435.4 324.02 432.44 332.87 441.84 335.25 444.85 335.33 444.81 334.65 441.04 333.46 428.18 340.02 425.21 348.66 444.36 344.78 446.11 338.7 432.65 337.43 429.68 337.34 429.71 337.7 432.85 339.23 448.61"/><path class="cls-3" d="M392.33,588l5.38-3.11a9,9,0,0,1,5-1.53,6.8,6.8,0,0,1,3.33,1.07,6.16,6.16,0,0,1,1.18,1.07,9.09,9.09,0,0,1,.74,1c0,.05.05.1.08.14s.05.09.08.14a6.7,6.7,0,0,1,.49,4.66,7,7,0,0,1-3.7,4.37l-2.36,1.36,3.94,6.84-3.69,2.13L392.33,588Zm8.6,6.36h0l1.69-1a3.28,3.28,0,0,0,1.41-4.7,3.35,3.35,0,0,0-1.78-1.48,3.39,3.39,0,0,0-2.89.54l-1.69,1Z" transform="translate(-46.36 -166.19)"/><path class="cls-3" d="M414.94,573.37l3.95-2.84,19,12.17-3.9,2.81-4.19-2.79-7,5.07,1.32,4.85-3.7,2.67-5.48-21.94Zm6.93,10.8h0l4.92-3.54-7.53-5.16,0,0Z" transform="translate(-46.36 -166.19)"/><polygon class="cls-3" points="382.19 396.47 386.13 392.61 400.58 396.97 403.37 398.22 403.43 398.16 400.76 395.57 392.11 386.74 395.15 383.76 409.86 398.75 405.92 402.62 391.07 397.94 388.68 397 388.61 397.06 391.28 399.66 399.94 408.48 396.89 411.46 382.19 396.47"/><polygon class="cls-3" points="398.45 380.29 401.6 376.51 410.03 377.91 411.56 378.32 411.62 378.25 410.98 376.78 408.09 368.71 410.97 365.25 415.72 379.05 422.27 384.5 419.54 387.77 412.95 382.28 398.45 380.29"/><polyline class="cls-22" points="85.14 367.5 87.8 370.83 76.16 380.14"/><path class="cls-22" d="M122.52,546.32c-.25.21-.53.41-.83.63s-.62.42-1,.61a5.93,5.93,0,0,1-3.07.72c-1.12,0-2.28-.78-3.46-2.26-.12-.14-.22-.28-.33-.43l-.32-.48a10.71,10.71,0,0,1-.59-.9c-.19-.32-.36-.63-.51-1" transform="translate(-46.36 -166.19)"/><line class="cls-23" x1="66.1" y1="377.08" x2="68.77" y2="374.94"/><path class="cls-22" d="M115.13,541.13c.07.15.15.3.23.45s.17.3.27.46a2.69,2.69,0,0,0,.28.46c.1.15.2.28.29.39a2.05,2.05,0,0,0,1.75,1,4.1,4.1,0,0,0,2.14-1" transform="translate(-46.36 -166.19)"/><line class="cls-23" x1="73.73" y1="376.63" x2="85.14" y2="367.5"/><path class="cls-24" d="M145,549.21a10.33,10.33,0,0,1,3.18,7.16c.08,2.69-1.14,5.26-3.64,7.71s-5.08,3.61-7.76,3.48a11.23,11.23,0,0,1-10.28-10.48q-.12-4,3.63-7.69c2.49-2.46,5.09-3.62,7.77-3.49a10.31,10.31,0,0,1,7.1,3.31Zm-2.14,2.1a7.31,7.31,0,0,0-.75-.65,4.13,4.13,0,0,0-1-.57,5.68,5.68,0,0,0-3.35-.31q-2,.32-4.52,2.82a9.21,9.21,0,0,0-2.91,4.47,5.73,5.73,0,0,0,.25,3.35,4.36,4.36,0,0,0,.55,1,6.53,6.53,0,0,0,.64.76,6.29,6.29,0,0,0,.75.66,5.07,5.07,0,0,0,1,.57,5.76,5.76,0,0,0,3.35.31,12.33,12.33,0,0,0,7.43-7.29,5.76,5.76,0,0,0-.25-3.36,4.6,4.6,0,0,0-.55-1A8.78,8.78,0,0,0,142.89,551.31Z" transform="translate(-46.36 -166.19)"/><rect class="cls-25" x="141.29" y="568.56" width="21" height="4.26" transform="translate(-417.2 129.58) rotate(-47.36)"/><polygon class="cls-24" points="119.36 402.6 123.78 405.91 121.65 420.85 120.83 423.8 120.9 423.85 123.06 420.82 130.48 410.93 133.89 413.49 121.29 430.29 116.87 426.98 119.26 411.59 119.82 409.09 119.75 409.03 117.59 412.06 110.17 421.95 106.76 419.4 119.36 402.6"/><polygon class="cls-24" points="138.41 416.08 152.43 424.56 150.51 427.74 145.32 424.61 136.38 439.4 132.74 437.19 141.67 422.4 136.48 419.27 138.41 416.08"/><line class="cls-23" x1="153.27" y1="447.17" x2="155.1" y2="443.96"/><path class="cls-22" d="M201.46,610.15a10.7,10.7,0,0,0,1,.93c.36.32.72.61,1.1.9s.75.51,1.14.75a7.85,7.85,0,0,0,1.1.58,3.69,3.69,0,0,0,2.57.24,2.35,2.35,0,0,0,1.56-3.15,7.15,7.15,0,0,0-1.16-1.7c-.2-.24-.42-.48-.65-.73s-.47-.51-.7-.78a3.11,3.11,0,0,0-.23-.28,2,2,0,0,1-.23-.27,12,12,0,0,1-2-3.19,4.6,4.6,0,0,1,.23-3.53,7,7,0,0,1,1.49-2.18,6.07,6.07,0,0,1,2.68-1.36,6.85,6.85,0,0,1,4.2.63,20.21,20.21,0,0,1,2.42,1.2c.71.43,1.31.82,1.81,1.19a6.35,6.35,0,0,1,.54.42l.42.33" transform="translate(-46.36 -166.19)"/><line class="cls-23" x1="172.35" y1="433.97" x2="170.64" y2="436.89"/><path class="cls-22" d="M217,603.08c-.29-.3-.61-.58-.94-.87s-.68-.55-1-.8-.64-.42-.94-.59a9,9,0,0,0-.94-.45,3.88,3.88,0,0,0-2-.4,2.65,2.65,0,0,0-1.2.45,3.07,3.07,0,0,0-.35.41,2.8,2.8,0,0,0-.2.37,2.19,2.19,0,0,0-.07,1.73,5.33,5.33,0,0,0,.84,1.42,4.1,4.1,0,0,0,.33.37l.32.33.05.07.09,0,.09.1.09.1a21.56,21.56,0,0,1,2.9,3.69c.8,1.28.79,2.88,0,4.8l-.09.23a1.13,1.13,0,0,1-.12.21,5.8,5.8,0,0,1-3.35,2.79q-2.39.88-6.18-.69a13.76,13.76,0,0,1-2.65-1.45,23.71,23.71,0,0,1-2-1.6" transform="translate(-46.36 -166.19)"/><polygon class="cls-24" points="177.8 435.49 193.46 440.3 192.37 443.86 186.58 442.07 181.5 458.59 177.42 457.34 182.5 440.82 176.71 439.04 177.8 435.49"/><path class="cls-24" d="M254.32,609.5a10.34,10.34,0,0,1,6.64,4.16q2.34,3.29,1.29,8.43c-.7,3.43-2.2,5.83-4.5,7.22a11.22,11.22,0,0,1-14.37-2.95c-1.57-2.17-2-5-1.3-8.41s2.21-5.84,4.5-7.24a10.39,10.39,0,0,1,7.74-1.21Zm-.6,2.94a8.35,8.35,0,0,0-1-.13,5.3,5.3,0,0,0-1.12.06,5.83,5.83,0,0,0-3,1.62,9.22,9.22,0,0,0-2.18,4.87c-.47,2.33-.45,4.11.09,5.33a5.76,5.76,0,0,0,2.08,2.64,4.67,4.67,0,0,0,1,.5,7.37,7.37,0,0,0,1,.27,8.84,8.84,0,0,0,1,.13,5.24,5.24,0,0,0,1.11-.06,5.79,5.79,0,0,0,2.95-1.62c1-.91,1.7-2.54,2.18-4.87s.45-4.11-.09-5.33a5.68,5.68,0,0,0-2.07-2.64,4.92,4.92,0,0,0-1-.5A7.49,7.49,0,0,0,253.72,612.44Z" transform="translate(-46.36 -166.19)"/><line class="cls-23" x1="237.49" y1="463.9" x2="237.55" y2="467.48"/><path class="cls-22" d="M283.91,633.66a14.77,14.77,0,0,1-2,.41,20.77,20.77,0,0,1-2.09.16h-.7c-.23,0-.46,0-.68,0a11.74,11.74,0,0,1-7.51-3.1c-2.06-1.89-3-4.6-2.77-8.11a10.32,10.32,0,0,1,3.59-7.72c2.21-1.84,5.11-2.65,8.73-2.43a16.4,16.4,0,0,1,1.87.21c.56.1,1.11.23,1.64.38l.55.2.54.2" transform="translate(-46.36 -166.19)"/><line class="cls-23" x1="238.72" y1="447.65" x2="238.33" y2="451.24"/><path class="cls-22" d="M284.69,617.42a9.81,9.81,0,0,0-2-.72,11.9,11.9,0,0,0-2.12-.3,7.84,7.84,0,0,0-5.46,1.55,6.76,6.76,0,0,0-2.45,5.25q-.23,3.6,1.58,5.31a7.75,7.75,0,0,0,4.05,2.12l.58.08.56,0a10,10,0,0,0,2.23-.09,10.71,10.71,0,0,0,1.73-.42l.25-.06a1,1,0,0,0,.21-.1" transform="translate(-46.36 -166.19)"/><polygon class="cls-24" points="244.79 447.53 249.04 447.37 249.38 456.34 249.46 456.33 256.72 447.09 261.79 446.91 253.38 456.73 263.1 467.87 257.7 468.07 249.52 457.92 249.43 457.93 249.81 468.36 245.56 468.52 244.79 447.53"/><line class="cls-23" x1="290.24" y1="459.87" x2="291.15" y2="463.33"/><path class="cls-22" d="M337.51,629.51a13.63,13.63,0,0,1-1.85.88c-.65.25-1.31.46-2,.65l-.69.17c-.22,0-.44.1-.66.13a11.7,11.7,0,0,1-8-1.23c-2.45-1.35-4-3.76-4.61-7.22a10.35,10.35,0,0,1,1.66-8.36q2.57-3.45,7.9-4.43a15.09,15.09,0,0,1,1.87-.23c.57,0,1.13,0,1.69,0a5.23,5.23,0,0,0,.57.06l.58.07" transform="translate(-46.36 -166.19)"/><line class="cls-23" x1="287.59" y1="443.79" x2="288.06" y2="447.37"/><path class="cls-22" d="M334.42,613.55a9.73,9.73,0,0,0-2.12-.22,12.16,12.16,0,0,0-2.13.2,7.86,7.86,0,0,0-4.93,2.81,6.77,6.77,0,0,0-1.15,5.68c.43,2.36,1.37,4,2.8,4.78a7.77,7.77,0,0,0,4.44,1.1l.58-.06.55-.09a9.85,9.85,0,0,0,2.14-.62,9.72,9.72,0,0,0,1.59-.82l.23-.12a.86.86,0,0,0,.18-.14" transform="translate(-46.36 -166.19)"/><path class="cls-24" d="M348.9,605.59a10.38,10.38,0,0,1,7.81.64c2.4,1.22,4.07,3.51,5,6.88s.74,6.19-.66,8.48a11.22,11.22,0,0,1-14.12,4q-3.58-1.82-5-6.87t.65-8.5a10.4,10.4,0,0,1,6.31-4.65Zm.82,2.89a7.66,7.66,0,0,0-.93.34,5.27,5.27,0,0,0-1,.57,5.75,5.75,0,0,0-1.87,2.8c-.45,1.26-.34,3,.31,5.32s1.49,3.85,2.53,4.69a5.74,5.74,0,0,0,3.07,1.39,5.13,5.13,0,0,0,1.11,0,6.68,6.68,0,0,0,1.91-.54,5.27,5.27,0,0,0,1-.57,5.75,5.75,0,0,0,1.87-2.8,12.27,12.27,0,0,0-2.85-10,5.71,5.71,0,0,0-3.06-1.39,4.56,4.56,0,0,0-1.11,0A7.33,7.33,0,0,0,349.72,608.48Z" transform="translate(-46.36 -166.19)"/><polygon class="cls-24" points="339.23 448.61 335.53 450.28 324.71 438.71 322.6 436.37 322.52 436.41 323.91 439.34 329.98 452.79 326.1 454.54 317.46 435.4 324.02 432.44 332.87 441.84 335.25 444.85 335.33 444.81 334.65 441.04 333.46 428.18 340.02 425.21 348.66 444.36 344.78 446.11 338.7 432.65 337.43 429.68 337.34 429.71 337.7 432.85 339.23 448.61"/><line class="cls-23" x1="345.97" y1="421.79" x2="351.35" y2="418.69"/><path class="cls-22" d="M397.71,584.87a9,9,0,0,1,5-1.53,6.8,6.8,0,0,1,3.33,1.07,6.16,6.16,0,0,1,1.18,1.07,9.09,9.09,0,0,1,.74,1c0,.05.05.1.08.14s.05.09.08.14a6.7,6.7,0,0,1,.49,4.66,7,7,0,0,1-3.7,4.37" transform="translate(-46.36 -166.19)"/><polyline class="cls-22" points="358.58 429.65 356.22 431.02 360.16 437.85 356.47 439.98 345.97 421.79"/><line class="cls-23" x1="354.57" y1="428.16" x2="356.26" y2="427.18"/><path class="cls-22" d="M402.62,593.37a3.28,3.28,0,0,0,1.41-4.7,3.35,3.35,0,0,0-1.78-1.48,3.39,3.39,0,0,0-2.89.54" transform="translate(-46.36 -166.19)"/><polyline class="cls-22" points="353 421.55 351.31 422.52 354.57 428.16"/><path class="cls-24" d="M414.94,573.37l3.95-2.84,19,12.17-3.9,2.81-4.19-2.79-7,5.07,1.32,4.85-3.7,2.67-5.48-21.94Zm6.93,10.8,4.92-3.54-7.53-5.16,0,0Z" transform="translate(-46.36 -166.19)"/><polygon class="cls-24" points="382.19 396.47 386.13 392.61 400.58 396.97 403.37 398.22 403.43 398.16 400.76 395.57 392.11 386.74 395.15 383.76 409.86 398.75 405.92 402.62 391.07 397.94 388.68 397 388.61 397.06 391.28 399.66 399.94 408.48 396.89 411.46 382.19 396.47"/><polygon class="cls-24" points="398.45 380.29 401.6 376.51 410.03 377.91 411.56 378.32 411.62 378.25 410.98 376.78 408.09 368.71 410.97 365.25 415.72 379.05 422.27 384.5 419.54 387.77 412.95 382.28 398.45 380.29"/></svg>