<svg id="РЎР_РѕР_1" data-name="РЎР»РѕР№ 1" xmlns="http://www.w3.org/2000/svg" xmlns:xlink="http://www.w3.org/1999/xlink" viewBox="0 0 488.81 488.81"><defs><style>.cls-1{fill:#fff;}.cls-10,.cls-11,.cls-12,.cls-13,.cls-14,.cls-15,.cls-16,.cls-17,.cls-18,.cls-19,.cls-2,.cls-20,.cls-3,.cls-4,.cls-5,.cls-6,.cls-7,.cls-8,.cls-9{fill-rule:evenodd;}.cls-2{fill:url(#GradientFill_1);}.cls-3{fill:#2d2579;}.cls-4{fill:#1b2d6b;}.cls-5{fill:#16306c;}.cls-6{fill:#657083;}.cls-7{fill:#999ca5;}.cls-8{fill:#7a8190;}.cls-9{fill:#7a8091;}.cls-10{fill:url(#GradientFill_2);}.cls-11{fill:#9698a3;}.cls-12{fill:#878b98;}.cls-13{fill:url(#GradientFill_3);}.cls-14{fill:#667185;}.cls-15{fill:url(#GradientFill_4);}.cls-16{fill:url(#GradientFill_4-2);}.cls-17{fill:url(#GradientFill_4-3);}.cls-18{fill:url(#GradientFill_4-4);}.cls-19{fill:url(#GradientFill_4-5);}.cls-20{fill:url(#GradientFill_4-6);}</style><radialGradient id="GradientFill_1" cx="290.78" cy="410.6" r="338.73" gradientUnits="userSpaceOnUse"><stop offset="0" stop-color="#fff"/><stop offset="0.32" stop-color="#fcfdfe"/><stop offset="0.53" stop-color="#f4f6fa"/><stop offset="0.7" stop-color="#e5e9f4"/><stop offset="0.86" stop-color="#d0d8ea"/><stop offset="1" stop-color="#b6c2df"/></radialGradient><linearGradient id="GradientFill_2" x1="264.8" y1="151.49" x2="299.83" y2="151.49" gradientUnits="userSpaceOnUse"><stop offset="0" stop-color="#2d2579"/><stop offset="0.3" stop-color="#7392c9"/><stop offset="0.99" stop-color="#f7f9fd"/><stop offset="1" stop-color="#f7fafe"/></linearGradient><linearGradient id="GradientFill_3" x1="101.3" y1="481.6" x2="308.85" y2="312.45" gradientUnits="userSpaceOnUse"><stop offset="0" stop-color="#2d2579"/><stop offset="0.12" stop-color="#223975"/><stop offset="0.28" stop-color="#6989c3"/><stop offset="0.52" stop-color="#ced2ec"/><stop offset="1" stop-color="#f7fafe"/></linearGradient><linearGradient id="GradientFill_4" x1="285.85" y1="341.34" x2="483.46" y2="404.55" gradientUnits="userSpaceOnUse"><stop offset="0" stop-color="#2d2579"/><stop offset="0.29" stop-color="#6989c4"/><stop offset="0.62" stop-color="#ced2ec"/><stop offset="1" stop-color="#f7f9fd"/></linearGradient><linearGradient id="GradientFill_4-2" x1="274.08" y1="366.08" x2="471.64" y2="429.38" xlink:href="#GradientFill_4"/><linearGradient id="GradientFill_4-3" x1="262.16" y1="390.8" x2="459.72" y2="454.1" xlink:href="#GradientFill_4"/><linearGradient id="GradientFill_4-4" x1="250.58" y1="415.69" x2="448.09" y2="479" xlink:href="#GradientFill_4"/><linearGradient id="GradientFill_4-5" x1="238.72" y1="440.31" x2="436.23" y2="503.62" xlink:href="#GradientFill_4"/><linearGradient id="GradientFill_4-6" x1="227.03" y1="465.34" x2="424.58" y2="528.56" xlink:href="#GradientFill_4"/></defs><circle class="cls-1" cx="244.41" cy="244.41" r="244.41"/><path class="cls-2" d="M171.25,530.6A169.37,169.37,0,1,1,290.76,580,168.85,168.85,0,0,1,171.25,530.6Z" transform="translate(-46.36 -166.19)"/><path class="cls-3" d="M91.65,481.75l1.81-5,4.09-1.37-2.91,8.25-4.25,1.43-7.22-4.85,4.08-1.37,4.4,2.87Zm2.74,8.34h0L90,487.22l-4.08,1.37,7.21,4.85L97.39,492l2.9-8.25-4.08,1.37Z" transform="translate(-46.36 -166.19)"/><path class="cls-3" d="M92.15,482.25l1.81-5,4.09-1.37-2.91,8.25-4.25,1.43-7.22-4.85,4.08-1.37,4.4,2.87Zm2.74,8.34h0l-4.39-2.87-4.08,1.37,7.21,4.85,4.26-1.43,2.9-8.25-4.08,1.37Z" transform="translate(-46.36 -166.19)"/><polygon class="cls-3" points="34.26 295.78 21.64 286.51 20.27 278.62 33.09 288.64 46.45 273.29 47.81 281.14 37.82 292.2 40.96 294.59 49.87 293.02 50.92 299.1 24.63 303.75 23.57 297.67 34.26 295.78"/><polygon class="cls-3" points="34.76 296.28 22.14 287.01 20.77 279.12 33.59 289.14 46.95 273.79 48.31 281.64 38.32 292.7 41.46 295.09 50.37 293.52 51.42 299.6 25.13 304.25 24.07 298.17 34.76 296.28"/><path class="cls-3" d="M64.62,419.64c0-3.93,1.51-14.23,14-14.26s14.07,10.26,14.08,14.19-1.51,14.23-14,14.26-14.07-10.27-14.08-14.19ZM88,419.58h0c0-3.35-1.89-8.05-9.36-8s-9.33,4.73-9.32,8.08,1.9,8,9.36,8S88,422.93,88,419.58Z" transform="translate(-46.36 -166.19)"/><path class="cls-3" d="M65.12,420.14c0-3.93,1.51-14.23,14-14.26s14.07,10.26,14.08,14.19-1.51,14.23-14,14.26-14.07-10.27-14.08-14.19Zm23.38-.06h0c0-3.35-1.89-8.05-9.36-8s-9.33,4.73-9.32,8.08,1.9,8,9.36,8S88.51,423.43,88.5,420.08Z" transform="translate(-46.36 -166.19)"/><polygon class="cls-3" points="30.29 220.13 32.3 208.74 22.35 206.94 23.42 200.87 49.7 205.61 48.63 211.69 36.83 209.56 34.82 220.95 46.62 223.08 45.55 229.15 19.26 224.41 20.34 218.33 30.29 220.13"/><polygon class="cls-3" points="30.79 220.63 32.8 209.24 22.85 207.44 23.92 201.37 50.2 206.11 49.13 212.19 37.33 210.06 35.32 221.45 47.12 223.58 46.04 229.65 19.76 224.91 20.84 218.83 30.79 220.63"/><polygon class="cls-3" points="49.42 187.44 53.38 176.58 32.65 168.86 34.76 163.07 55.49 170.79 56.5 168.03 66.13 171.62 64.16 177.02 58.84 175.04 51.63 194.84 26.57 185.5 28.69 179.71 49.42 187.44"/><polygon class="cls-3" points="49.92 187.94 53.88 177.08 33.15 169.36 35.26 163.57 55.99 171.29 57 168.53 66.63 172.12 64.66 177.52 59.34 175.54 52.13 195.34 27.07 186 29.19 180.21 49.92 187.94"/><polygon class="cls-3" points="52.54 128.7 56.52 131.02 48.74 144.65 53.52 147.44 60.66 134.94 64.64 137.26 57.5 149.76 63.9 153.49 72.01 139.3 75.99 141.62 64.83 161.16 41.71 147.67 52.54 128.7"/><polygon class="cls-3" points="53.04 129.2 57.02 131.52 49.24 145.15 54.02 147.94 61.16 135.44 65.14 137.76 58 150.26 64.4 153.99 72.51 139.79 76.49 142.12 65.33 161.66 42.21 148.17 53.04 129.2"/><path class="cls-3" d="M131.46,294.76l-3.86,4.79-20.69-17.06L115.4,272c3.58-4.44,8.27-5,12.34-1.65,1.85,1.53,5.69,6.59.7,12.77L124,288.61l7.46,6.15Zm-11-9.09h0l3.61-4.46c2.55-3.17.95-5.18-.33-6.24-2-1.67-3.88-1.14-6.28,1.84l-3.09,3.83Z" transform="translate(-46.36 -166.19)"/><path class="cls-3" d="M132,295.26l-3.86,4.79L107.41,283l8.49-10.51c3.58-4.44,8.27-5,12.34-1.65,1.85,1.53,5.69,6.59.7,12.77l-4.44,5.51,7.46,6.15Zm-11-9.09h0l3.61-4.46c2.55-3.17.95-5.18-.33-6.24-2-1.67-3.88-1.13-6.28,1.84l-3.09,3.83Z" transform="translate(-46.36 -166.19)"/><polygon class="cls-3" points="95.9 91.97 104.5 84.34 97.84 76.65 102.43 72.58 120.03 92.87 115.44 96.94 107.54 87.83 98.93 95.46 106.83 104.57 102.24 108.64 84.64 88.35 89.23 84.28 95.9 91.97"/><polygon class="cls-3" points="96.4 92.47 105 84.84 98.34 77.15 102.93 73.08 120.53 93.37 115.94 97.44 108.04 88.33 99.43 95.96 107.33 105.07 102.74 109.14 85.14 88.85 89.73 84.78 96.4 92.47"/><path class="cls-3" d="M185.63,233.56l5.14,1,2,3.84-8.54-1.5-2.12-4,3.52-8,2,3.83-2.06,4.86Zm7.67-4.14h0l2.06-4.86-2-3.84-3.52,8,2.12,4,8.54,1.5-2-3.84Z" transform="translate(-46.36 -166.19)"/><path class="cls-3" d="M186.13,234.06l5.14,1,2,3.84-8.54-1.5-2.12-4,3.52-8,2,3.83-2.06,4.86Zm7.67-4.14h0l2.06-4.86-2-3.84-3.51,8,2.11,4,8.54,1.5-2-3.84Z" transform="translate(-46.36 -166.19)"/><polygon class="cls-3" points="174.59 33.8 176.18 38.16 162.29 43.35 169.96 64.3 164.23 66.44 154.97 41.13 174.59 33.8"/><polygon class="cls-3" points="175.09 34.3 176.68 38.66 162.79 43.85 170.46 64.8 164.73 66.94 155.47 41.63 175.09 34.3"/><path class="cls-3" d="M244.4,221.59l-6,1.28-5.51-26.4,13.14-2.8c5.54-1.18,9.54,1.34,10.62,6.54.5,2.36.34,8.74-7.38,10.39l-6.88,1.47,2,9.52Zm-2.94-14.07h0l5.58-1.19c4-.84,4-3.42,3.61-5.06-.54-2.58-2.31-3.35-6-2.55l-4.79,1Z" transform="translate(-46.36 -166.19)"/><path class="cls-3" d="M244.9,222.09l-6,1.28L233.41,197l13.14-2.8c5.54-1.18,9.54,1.34,10.62,6.54.5,2.36.34,8.74-7.38,10.39l-6.88,1.47,2,9.52ZM242,208h0l5.58-1.19c4-.84,4-3.42,3.61-5.06-.54-2.58-2.31-3.35-6-2.55l-4.79,1Z" transform="translate(-46.36 -166.19)"/><path class="cls-3" d="M279.43,189.81l11.93,26.29-6.62.41-2.24-5.44-10.78.67L270,217.43l-6.41.4,8.77-27.58,7.07-.44ZM273.06,207h0l7.83-.49-4.65-10.39h-.08Z" transform="translate(-46.36 -166.19)"/><path class="cls-3" d="M279.93,190.31l11.93,26.29-6.62.41L283,211.57l-10.78.67-1.72,5.69-6.41.4,8.77-27.58,7.07-.44Zm-6.37,17.19h0l7.83-.49-4.65-10.39h-.08Z" transform="translate(-46.36 -166.19)"/><polygon class="cls-3" points="259.19 34.13 270.59 35.27 271.58 25.1 277.66 25.7 275.04 52.55 268.96 51.95 270.14 39.89 258.75 38.75 257.57 50.81 251.49 50.2 254.11 23.35 260.19 23.96 259.19 34.13"/><polygon class="cls-3" points="259.69 34.63 271.09 35.77 272.08 25.6 278.16 26.2 275.54 53.05 269.46 52.45 270.64 40.39 259.25 39.25 258.07 51.31 251.99 50.7 254.61 23.85 260.69 24.46 259.69 34.63"/><polygon class="cls-3" points="292.58 48.33 292.62 48.34 308.75 33.26 315.39 35.07 308.44 61.12 302.55 59.52 307.5 40.96 307.42 40.94 290.91 56.35 284.58 54.62 291.53 28.57 297.42 30.18 292.58 48.33"/><polygon class="cls-3" points="293.08 48.83 293.12 48.84 309.25 33.76 315.89 35.57 308.94 61.62 303.05 60.02 308 41.46 307.92 41.44 291.41 56.85 285.08 55.12 292.03 29.07 297.92 30.68 293.08 48.83"/><polygon class="cls-3" points="327.79 69.43 322.2 66.92 331.18 46.51 323.08 42.88 324.95 38.63 346.72 48.41 344.85 52.65 336.76 49.02 327.79 69.43"/><polygon class="cls-3" points="328.29 69.93 322.7 67.42 331.68 47.01 323.58 43.38 325.45 39.13 347.22 48.91 345.35 53.15 337.26 49.52 328.29 69.93"/><polygon class="cls-3" points="349.99 71.76 340.08 66.05 342.14 62.4 352.05 68.11 349.99 71.76"/><polygon class="cls-3" points="350.49 72.26 340.58 66.55 342.64 62.9 352.55 68.61 350.49 72.26"/><path class="cls-3" d="M422.15,246.55c2-4.62.15-7.79-1.87-9.28-4.09-3-6.75-1.06-8.09,0l-4.94-3.63c2.58-3,8.71-5.41,15.8-.19,6.11,4.5,8.16,11.94,2.66,19.57s-12.83,8.07-19.14,3.43c-5.95-4.38-6.93-10.17-4.49-15.64l4.93,3.64a6.37,6.37,0,0,0,2.24,8.08c3.76,2.77,7.58,1.08,10.38-2.05l-6.86-5.06,2.71-3.75Z" transform="translate(-46.36 -166.19)"/><path class="cls-3" d="M422.65,247.05c2-4.62.15-7.79-1.87-9.28-4.09-3-6.75-1.06-8.09,0l-4.94-3.63c2.58-3,8.71-5.41,15.8-.19,6.11,4.5,8.16,11.94,2.66,19.57s-12.83,8.07-19.14,3.43c-5.95-4.38-6.93-10.17-4.49-15.64l4.93,3.64a6.37,6.37,0,0,0,2.24,8.08c3.76,2.77,7.58,1.08,10.38-2.05l-6.86-5.06,2.71-3.75Z" transform="translate(-46.36 -166.19)"/><path class="cls-3" d="M459.61,267.17l-19,18.93-4.28-4.4L452.05,266l-5.82-6-8.12,8.08c-4.93,4.9-9.43,6.74-13.49,2.58a14.51,14.51,0,0,1-2.32-3l3-3a6.65,6.65,0,0,0,1.12,1.47c1.93,2,3.67,1.22,7.78-2.87l11-10.93Z" transform="translate(-46.36 -166.19)"/><path class="cls-3" d="M460.11,267.67l-19,18.93-4.28-4.4,15.75-15.67-5.82-6-8.12,8.08c-4.93,4.9-9.43,6.74-13.49,2.58a14.51,14.51,0,0,1-2.32-3l3-3A6.65,6.65,0,0,0,427,266.7c1.93,2,3.67,1.22,7.78-2.87l11-10.93Z" transform="translate(-46.36 -166.19)"/><polygon class="cls-3" points="434.29 129.08 430.55 131.78 421.49 118.98 417 122.22 425.31 133.96 421.57 136.66 413.26 124.92 407.25 129.26 416.68 142.6 412.94 145.3 399.96 126.94 421.68 111.25 434.29 129.08"/><polygon class="cls-3" points="434.79 129.58 431.05 132.28 421.99 119.48 417.5 122.72 425.81 134.46 422.07 137.16 413.76 125.42 407.75 129.76 417.18 143.1 413.44 145.8 400.46 127.44 422.18 111.75 434.79 129.58"/><polygon class="cls-3" points="433.38 151.11 448.1 156.34 451.64 163.51 436.52 157.62 428.07 176.19 424.54 169.06 430.99 155.57 427.3 154.19 419.21 158.27 416.48 152.75 440.36 140.69 443.09 146.21 433.38 151.11"/><polygon class="cls-3" points="433.88 151.61 448.6 156.84 452.14 164.01 437.02 158.12 428.57 176.69 425.04 169.56 431.49 156.07 427.8 154.69 419.71 158.77 416.98 153.25 440.86 141.19 443.59 146.71 433.88 151.61"/><polygon class="cls-3" points="433.74 194.8 431.87 188.92 452.92 182.1 450.22 173.58 454.6 172.16 461.87 195.09 457.49 196.5 454.79 187.98 433.74 194.8"/><polygon class="cls-3" points="434.24 195.3 432.37 189.42 453.42 182.6 450.72 174.08 455.1 172.66 462.37 195.59 457.99 197 455.29 188.48 434.24 195.3"/><path class="cls-3" d="M485.27,382.18l-1-6.1,26.35-4.34,2.17,13.39c.91,5.65-1.77,9.57-7,10.43-2.36.39-8.66-.06-9.93-7.93l-1.13-7-9.51,1.57Zm14-2.32h0l.92,5.69c.65,4,3.21,4.15,4.84,3.88,2.58-.43,3.41-2.18,2.8-6l-.79-4.88Z" transform="translate(-46.36 -166.19)"/><path class="cls-3" d="M485.77,382.68l-1-6.1,26.35-4.34,2.17,13.39c.91,5.65-1.77,9.57-7,10.43-2.36.39-8.66-.06-9.93-7.93l-1.13-7-9.51,1.57Zm14-2.32h0l.92,5.69c.65,4,3.21,4.15,4.84,3.88,2.58-.43,3.41-2.18,2.8-6l-.79-4.88Z" transform="translate(-46.36 -166.19)"/><path class="cls-3" d="M514,419.65c0,3.93-1.51,14.23-14,14.26s-14.08-10.26-14.09-14.19,1.51-14.22,14-14.26S514,415.73,514,419.65Zm-23.39.06h0c0,3.35,1.9,8.05,9.36,8s9.33-4.72,9.32-8.07-1.9-8.05-9.36-8S490.63,416.36,490.64,419.71Z" transform="translate(-46.36 -166.19)"/><path class="cls-3" d="M514.53,420.15c0,3.93-1.51,14.23-14,14.26s-14.08-10.26-14.09-14.19,1.51-14.22,14-14.26,14.08,10.27,14.09,14.19Zm-23.39.06h0c0,3.35,1.9,8.05,9.36,8s9.33-4.72,9.32-8.07-1.9-8.05-9.36-8S491.13,416.86,491.14,420.21Z" transform="translate(-46.36 -166.19)"/><polygon class="cls-3" points="454.4 284.76 452.45 296.16 462.42 297.89 461.38 303.98 435.07 299.39 436.11 293.31 447.92 295.37 449.87 283.97 438.06 281.91 439.1 275.82 465.4 280.41 464.36 286.49 454.4 284.76"/><polygon class="cls-3" points="454.9 285.26 452.95 296.66 462.92 298.39 461.88 304.48 435.57 299.89 436.61 293.81 448.42 295.87 450.37 284.47 438.56 282.41 439.6 276.32 465.9 280.91 464.86 286.99 454.9 285.26"/><path class="cls-3" d="M489,487.71l4.09,1.37-7.21,4.86-4.26-1.42-2.92-8.25,4.09,1.37,1.82,5,4.39-2.89Zm2.73-8.34h0l-4.38,2.88-1.83-5-4.09-1.36,2.92,8.25,4.26,1.42,7.21-4.87Z" transform="translate(-46.36 -166.19)"/><path class="cls-3" d="M489.54,488.21l4.09,1.37-7.21,4.86L482.16,493l-2.92-8.25,4.09,1.37,1.82,5,4.39-2.89Zm2.73-8.34h0l-4.38,2.88-1.83-5L482,476.43l2.92,8.25,4.26,1.42,7.21-4.87Z" transform="translate(-46.36 -166.19)"/><path class="cls-3" d="M130.09,528.34l3,3.8-11.19,19.63-3-3.75,2.58-4.32-5.42-6.78-4.78,1.56-2.85-3.56,21.62-6.58Zm-10.43,7.46h0l3.79,4.74,4.77-7.78,0,0Z" transform="translate(-46.36 -166.19)"/><polygon class="cls-3" points="93.11 374.16 96.1 377.2 89.69 383.48 89.76 383.55 101.48 382.68 105.03 386.3 92.11 386.71 90.42 401.4 86.64 397.54 88.62 384.66 88.56 384.6 81.11 391.91 78.12 388.87 93.11 374.16"/><polygon class="cls-3" points="106.42 388.21 109.7 390.94 98.65 404.22 105.2 409.67 116.25 396.38 119.53 399.11 108.48 412.4 110.35 413.95 105.21 420.13 102.23 417.66 104.99 414.33 93 404.36 106.42 388.21"/><polygon class="cls-3" points="122.94 402.25 126.47 404.63 120.43 413.58 117.51 417.76 117.58 417.81 120.54 416.11 133.81 409.58 138.04 412.43 126.3 429.84 122.77 427.46 128.82 418.48 131.73 414.33 131.66 414.28 128.69 416.11 115.43 422.51 111.2 419.66 122.94 402.25"/><path class="cls-3" d="M196,585.06a10.35,10.35,0,0,1,5.16,5.89q1.29,3.82-1.19,8.44T193.54,605a11.24,11.24,0,0,1-12.92-7q-1.31-3.81,1.18-8.43t6.39-5.64a10.41,10.41,0,0,1,7.77,1.07Zm-1.43,2.64h0a6.34,6.34,0,0,0-.9-.41,5.42,5.42,0,0,0-1.09-.26,5.78,5.78,0,0,0-3.29.7,9.17,9.17,0,0,0-3.48,4c-1.13,2.09-1.62,3.8-1.45,5.13a5.79,5.79,0,0,0,1.22,3.13,4.87,4.87,0,0,0,.82.76,6.91,6.91,0,0,0,.84.54,7.75,7.75,0,0,0,.9.4,4.82,4.82,0,0,0,1.09.26,5.69,5.69,0,0,0,3.29-.7c1.2-.59,2.36-1.94,3.48-4s1.62-3.81,1.46-5.13a5.84,5.84,0,0,0-1.23-3.13,4.94,4.94,0,0,0-.82-.77A6.77,6.77,0,0,0,194.53,587.7Z" transform="translate(-46.36 -166.19)"/><polygon class="cls-3" points="161.26 425.18 165.19 426.82 161.93 434.63 169.8 437.91 173.06 430.11 176.99 431.75 168.9 451.13 164.96 449.49 168.47 441.1 160.6 437.81 157.1 446.2 153.17 444.56 161.26 425.18"/><polygon class="cls-3" points="180.55 432.91 192.54 436.6 191.45 440.15 183.53 437.72 182.14 442.25 189.34 444.46 188.32 447.76 181.13 445.55 179.55 450.68 187.46 453.12 186.37 456.67 174.38 452.98 180.55 432.91"/><path class="cls-3" d="M241.91,603.8l6.09,1.25a8.92,8.92,0,0,1,4.77,2.18,6.8,6.8,0,0,1,1.79,3,5.89,5.89,0,0,1,.16,1.58,8.31,8.31,0,0,1-.13,1.27c0,.06,0,.12,0,.16l0,.17a6.66,6.66,0,0,1-2.73,3.8,7,7,0,0,1-5.66.82l-2.68-.55-1.58,7.73-4.17-.86,4.21-20.57Zm2.21,10.46h0l1.91.4a3.27,3.27,0,0,0,4.17-2.58,3.36,3.36,0,0,0-.34-2.29,3.4,3.4,0,0,0-2.53-1.51l-1.91-.39Z" transform="translate(-46.36 -166.19)"/><polygon class="cls-3" points="212.32 441.38 216.56 441.83 215.66 450.24 224.13 451.15 225.03 442.74 229.27 443.19 227.04 464.07 222.8 463.62 223.77 454.58 215.29 453.68 214.33 462.71 210.09 462.26 212.32 441.38"/><path class="cls-3" d="M288.93,609.85a10.37,10.37,0,0,1,7.31,2.82c1.95,1.86,2.9,4.53,2.86,8s-1.05,6.15-3,7.95a11.22,11.22,0,0,1-14.67-.16q-2.92-2.78-2.87-8t3-8a10.38,10.38,0,0,1,7.37-2.66Zm0,3h0a7.08,7.08,0,0,0-1,.06,4.73,4.73,0,0,0-1.09.28,5.69,5.69,0,0,0-2.59,2.14q-1.17,1.62-1.21,5.19a9.14,9.14,0,0,0,1.1,5.22,5.71,5.71,0,0,0,2.54,2.2,4.36,4.36,0,0,0,1.08.3,9.56,9.56,0,0,0,1,.09,7.19,7.19,0,0,0,1-.07,4.28,4.28,0,0,0,1.08-.27,5.72,5.72,0,0,0,2.59-2.15,12.31,12.31,0,0,0,.11-10.41,5.73,5.73,0,0,0-2.54-2.2,5.36,5.36,0,0,0-1.07-.3A7.3,7.3,0,0,0,288.9,612.85Z" transform="translate(-46.36 -166.19)"/><polygon class="cls-3" points="255.89 443.94 268.39 442.89 268.7 446.6 260.45 447.29 260.85 452.02 268.36 451.38 268.65 454.82 261.14 455.45 261.6 460.81 269.85 460.11 270.16 463.81 257.66 464.87 255.89 443.94"/><path class="cls-3" d="M335.1,605.7a10.42,10.42,0,0,1,7.77,1q3.5,2,4.69,7.12t-1.07,8.44a11.22,11.22,0,0,1-14.3,3.33c-2.33-1.33-3.89-3.69-4.68-7.1s-.44-6.23,1.06-8.46a10.42,10.42,0,0,1,6.53-4.34Zm.68,2.93h0a6.28,6.28,0,0,0-.95.29,4.75,4.75,0,0,0-1,.53,5.71,5.71,0,0,0-2,2.7q-.76,1.85.05,5.33t2.31,4.8a5.71,5.71,0,0,0,3,1.54,4.62,4.62,0,0,0,1.11,0,8.21,8.21,0,0,0,1-.16,6.18,6.18,0,0,0,.94-.29,4.75,4.75,0,0,0,1-.53,5.72,5.72,0,0,0,2-2.7q.75-1.84-.06-5.33c-.54-2.32-1.3-3.92-2.3-4.81a5.84,5.84,0,0,0-3-1.53,4.73,4.73,0,0,0-1.12,0A8,8,0,0,0,335.78,608.63Z" transform="translate(-46.36 -166.19)"/><path class="cls-3" d="M348.14,603.07l12.74-4.3,1.19,3.52-8.7,2.94,1.4,4.15,3.24-1.09c2.49-.84,4.45-.85,5.89,0a7.16,7.16,0,0,1,3.09,3.34c0,.11.09.23.14.35s.09.24.13.35.13.43.18.65l.12.7a6.35,6.35,0,0,1-1,3.77q-1.12,1.95-4.46,3.07L354.86,623l-6.72-19.9Zm7.69,9.44h0l2,6,2.5-.85a7,7,0,0,0,1.47-.72,3.61,3.61,0,0,0,1.09-1.3,3.48,3.48,0,0,0-1.31-3.89,3.69,3.69,0,0,0-1.67-.38,6.36,6.36,0,0,0-.89.13c-.28.06-.52.13-.71.19Z" transform="translate(-46.36 -166.19)"/><polygon class="cls-3" points="319.49 431.2 323.37 429.44 330.49 445.19 336.94 442.28 329.83 426.53 333.71 424.78 340.82 440.52 347.28 437.61 340.17 421.86 344.05 420.11 351.16 435.86 353.32 434.88 356.7 442.37 353.07 444.02 351.22 439.92 328.13 450.34 319.49 431.2"/><polygon class="cls-3" points="347.83 417.46 358.69 411.19 360.55 414.41 353.38 418.55 355.75 422.66 362.27 418.89 364 421.88 357.47 425.64 360.16 430.29 367.33 426.15 369.19 429.37 358.33 435.65 347.83 417.46"/><path class="cls-3" d="M429.75,580.14l2.3,2.74a13.8,13.8,0,0,1-1.3,1.58,20.54,20.54,0,0,1-1.51,1.44l-.55.45-.54.41a11.7,11.7,0,0,1-7.78,2.33c-2.79-.17-5.21-1.69-7.27-4.54a10.31,10.31,0,0,1-2.08-8.26q.83-4.23,5.23-7.4a16.55,16.55,0,0,1,1.59-1c.5-.27,1-.52,1.51-.74a5.1,5.1,0,0,0,.55-.19l.55-.19,2,3a9.73,9.73,0,0,0-2,.7,12.59,12.59,0,0,0-1.84,1.1,7.87,7.87,0,0,0-3.25,4.65,6.78,6.78,0,0,0,1.41,5.63q2.1,2.93,4.57,3.12a7.79,7.79,0,0,0,4.48-.92l.5-.3c.16-.11.32-.21.46-.32A9.11,9.11,0,0,0,428.4,582a10.84,10.84,0,0,0,1.09-1.42l.15-.2A2.12,2.12,0,0,0,429.75,580.14Z" transform="translate(-46.36 -166.19)"/><polygon class="cls-3" points="374.7 399.52 386.97 388.65 389.44 391.44 384.9 395.46 396.36 408.39 393.17 411.22 381.71 398.28 377.17 402.3 374.7 399.52"/><path class="cls-3" d="M435,553.67l4.68-5.07c.24-.27.58-.59,1-1a9.3,9.3,0,0,1,1.42-1.08,6.83,6.83,0,0,1,2.89-.92,4.23,4.23,0,0,1,3.24,1.35,4.83,4.83,0,0,1,1.56,2.36,5,5,0,0,1,.11,2.12,5.42,5.42,0,0,1-.19.72l-.24.59,0,0a5.34,5.34,0,0,1,3.27-1.23,4.68,4.68,0,0,1,3.4,1.38,6.15,6.15,0,0,1,.69.74,4.7,4.7,0,0,1,.61.95,6,6,0,0,1,.37,3.48c-.21,1.39-1.18,3-2.91,4.91l-4.5,4.87L435,553.67Zm11.58,4.88h0l4.32,4,1.61-1.74a4.21,4.21,0,0,0,1.3-2.62,2.7,2.7,0,0,0-.92-2.13,2.5,2.5,0,0,0-1.78-.81,3.58,3.58,0,0,0-1.55.43,4.05,4.05,0,0,0-.85.62l-.52.52-1.61,1.75Zm-6.27-5.78h0l3.84,3.54,1.41-1.52a3.73,3.73,0,0,0,1.05-1.83,2.86,2.86,0,0,0-.1-1.37,2.11,2.11,0,0,0-.31-.6,4.62,4.62,0,0,0-.35-.38,3.86,3.86,0,0,0-.39-.3,1.92,1.92,0,0,0-.52-.25,2.43,2.43,0,0,0-1.45,0,4.23,4.23,0,0,0-1.89,1.35Z" transform="translate(-46.36 -166.19)"/><path class="cls-3" d="M454,531.94a10.38,10.38,0,0,1,6.81-3.88c2.67-.34,5.34.6,8,2.84s4.11,4.7,4.25,7.38a11.25,11.25,0,0,1-9.39,11.28q-4,.53-8-2.83t-4.26-7.39a10.44,10.44,0,0,1,2.58-7.4Zm2.31,1.92h0a7.09,7.09,0,0,0-.57.81,4.78,4.78,0,0,0-.48,1,5.82,5.82,0,0,0,0,3.36c.35,1.29,1.44,2.69,3.27,4.22a9.19,9.19,0,0,0,4.74,2.44,5.81,5.81,0,0,0,3.31-.58,5.14,5.14,0,0,0,.91-.65,7.51,7.51,0,0,0,.69-.71c.19-.23.38-.51.58-.81a5.29,5.29,0,0,0,.47-1,5.82,5.82,0,0,0,0-3.36,12.28,12.28,0,0,0-8-6.66,5.82,5.82,0,0,0-3.32.58,5.14,5.14,0,0,0-.91.65A7.51,7.51,0,0,0,456.27,533.86Z" transform="translate(-46.36 -166.19)"/><path class="cls-4" d="M204.08,324.57l.8.8-.41.35h0l-.51.44-.05,0-.49.45,0,0,0,0-.48.44,0,0h0l0,0-.39.37,0,0-.08.08-.8-.81C202.32,326.1,203.18,325.32,204.08,324.57Z" transform="translate(-46.36 -166.19)"/><path class="cls-4" d="M201.49,326.91l.8.81,0,0c-.14.15-.29.3-.44.44h0l-.46.48,0,0h0l0,0-.43.45,0,0h0l0,0-.27.29-.8-.8C200.3,328.11,200.89,327.5,201.49,326.91Z" transform="translate(-46.36 -166.19)"/><path class="cls-4" d="M199.74,328.73l.8.8-.15.17,0,0,0,0h0l0,0-.42.49h0l-.45.54h0l-.22.28-.8-.81Q199,329.5,199.74,328.73Z" transform="translate(-46.36 -166.19)"/><path class="cls-4" d="M198.39,330.29l.8.81-.21.25h0l0,0-.37.47,0,0h0l0,0,0,0h0l-.36.47,0,0,0,0h0l-.8-.8Q197.82,331,198.39,330.29Z" transform="translate(-46.36 -166.19)"/><path class="cls-4" d="M197.31,331.67l.8.8,0,0-.36.5v0h0v0c-.12.18-.25.35-.37.52v0h0v0h0l-.06.1-.8-.81C196.71,332.48,197,332.07,197.31,331.67Z" transform="translate(-46.36 -166.19)"/><path class="cls-4" d="M196.43,332.89l.8.81-.27.39v0l0,.05v0c-.1.15-.2.3-.29.45l0,0v0h0v0l-.05.07-.8-.8C195.91,333.66,196.17,333.28,196.43,332.89Z" transform="translate(-46.36 -166.19)"/><path class="cls-4" d="M195.67,334.05l.8.8-.24.4h0v0h0v0c-.1.16-.2.32-.29.48h0v0l0,0-.8-.8C195.24,334.75,195.45,334.4,195.67,334.05Z" transform="translate(-46.36 -166.19)"/><path class="cls-4" d="M195,335.11l.8.8h0v0h0v0h0l-.26.45v0h0l-.05.08h0v0h0c-.07.11-.13.23-.19.34l-.8-.8C194.66,335.77,194.84,335.44,195,335.11Z" transform="translate(-46.36 -166.19)"/><path class="cls-4" d="M194.48,336.1l.8.8-.06.12v0h0l0,0h0v0h0v0c-.09.16-.17.32-.25.49h0l0,.06h0v0h0l0,.11-.8-.8C194.15,336.73,194.31,336.41,194.48,336.1Z" transform="translate(-46.36 -166.19)"/><path class="cls-4" d="M194,337.05l.8.8-.19.39h0l-.81-.8Z" transform="translate(-46.36 -166.19)"/><polygon class="cls-4" points="146.94 170.78 148.24 172.08 70.2 335.8 68.9 334.5 146.94 170.78"/><polygon class="cls-5" points="275.64 144.36 276.94 145.66 257.75 146.19 256.44 144.89 275.64 144.36"/><polygon class="cls-5" points="259.57 147.36 260.87 148.66 257.75 146.19 256.44 144.89 259.57 147.36"/><polygon class="cls-5" points="274.48 147.86 275.78 149.16 266.32 149.16 265.02 147.86 274.48 147.86"/><polygon class="cls-4" points="283.86 134.27 285.15 135.57 280.25 145.65 278.95 144.35 283.86 134.27"/><polygon class="cls-6" points="279.56 144.35 280.86 145.65 280.25 145.65 278.95 144.35 279.56 144.35"/><polygon class="cls-6" points="271.8 153.23 273.1 154.53 266.32 149.16 265.02 147.86 271.8 153.23"/><polygon class="cls-4" points="278.95 144.35 280.25 145.65 278.54 149.16 277.24 147.86 278.95 144.35"/><polygon class="cls-5" points="277.24 147.86 278.54 149.16 275.78 149.16 274.48 147.86 277.24 147.86"/><polygon class="cls-5" points="270 155.61 271.3 156.91 260.87 148.66 259.57 147.36 270 155.61"/><polygon class="cls-6" points="273.69 154.73 274.99 156.03 273.1 154.53 271.8 153.23 273.69 154.73"/><polygon class="cls-4" points="285.06 125 286.36 126.3 290.29 146.19 288.99 144.89 285.06 125"/><polygon class="cls-7" points="283.86 134.27 285.15 135.57 287.85 149.16 286.54 147.86 283.86 134.27"/><polygon class="cls-4" points="273.69 154.73 274.99 156.03 269.48 167.93 268.18 166.63 273.69 154.73"/><polygon class="cls-8" points="270 155.61 271.3 156.91 263.33 174.12 262.02 172.82 270 155.61"/><polygon class="cls-6" points="268.56 166.4 269.86 167.7 269.48 167.93 268.18 166.63 268.56 166.4"/><polygon class="cls-9" points="262.02 172.82 263.33 174.12 252.49 195.84 251.19 194.54 262.02 172.82"/><polygon class="cls-4" points="262.02 172.82 263.33 174.12 262.77 175.32 261.47 174.02 262.02 172.82"/><polygon class="cls-6" points="279.8 159.81 281.1 161.11 269.86 167.7 268.56 166.4 279.8 159.81"/><polygon class="cls-5" points="298.2 147.86 299.5 149.16 287.85 149.16 286.54 147.86 298.2 147.86"/><polygon class="cls-6" points="298.2 147.86 299.5 149.16 289.23 155.75 287.93 154.45 298.2 147.86"/><polygon class="cls-6" points="290.06 167.04 291.36 168.34 281.1 161.11 279.8 159.81 290.06 167.04"/><polygon class="cls-10" points="285.61 141.66 287.24 148.3 299.83 148.3 288.32 155.15 290.9 169.31 285.79 165.96 279.48 161.84 278.46 161.17 275.91 162.57 271.01 165.23 266.11 167.9 270.32 160.07 273.24 154.65 270.44 152.47 264.8 148.08 264.81 147.76 270.67 147.61 276.37 147.47 276.91 147.46 279.42 142.32 283.64 133.66 285.61 141.66"/><polygon class="cls-11" points="287.93 154.45 289.23 155.75 291.36 168.34 290.06 167.04 287.93 154.45"/><path class="cls-4" d="M354.72,311.07l-17.16,11,3,17.71L326,329.53l-13.53,8-4.65,2.72.56-1.19,8-17.21-10.43-8.25-3.13-2.48h18.94l.26-.53,9.42-19.36,3.93,19.89ZM326.16,326h0l10.26,7.23-2.13-12.58,9.59-6.15-10.92.09-2.75-14.13-4.9,10.09-1.71,3.51H311.38l6.78,5.37,1.89,1.49-5.51,11.9.38-.22Z" transform="translate(-46.36 -166.19)"/><polygon class="cls-4" points="266.12 171.29 267.42 172.59 262.77 175.32 261.47 174.02 266.12 171.29"/><polygon class="cls-4" points="279.65 163.35 280.95 164.65 267.42 172.59 266.12 171.29 279.65 163.35"/><polygon class="cls-6" points="251.19 194.54 252.49 195.84 189.66 195.84 188.36 194.54 251.19 194.54"/><polygon class="cls-5" points="250.08 197.51 251.38 198.81 191.54 198.81 190.24 197.51 250.08 197.51"/><polygon class="cls-4" points="266.12 171.29 267.42 172.59 255.07 197.33 253.77 196.03 266.12 171.29"/><polygon class="cls-5" points="253.03 197.51 254.33 198.81 251.38 198.81 250.08 197.51 253.03 197.51"/><polygon class="cls-4" points="253.77 196.03 255.07 197.33 254.33 198.81 253.03 197.51 253.77 196.03"/><polygon class="cls-4" points="308.37 144.89 309.67 146.19 292.5 157.19 291.2 155.89 308.37 144.89"/><polygon class="cls-9" points="188.36 194.54 189.66 195.84 122.63 335.8 121.33 334.5 188.36 194.54"/><polygon class="cls-6" points="121.33 334.5 122.63 335.8 70.2 335.8 68.9 334.5 121.33 334.5"/><path class="cls-4" d="M322,310.54l-19.2.53,3.13,2.48-76.47.13c-13.92,0-30.14,10.45-36.16,23.29l-78,163.72h52.43l67-140h62.83L308.39,339l-.56,1.19,4.65-2.72-12.35,24.74-.74,1.48H236.6l-67,140h-59l80.06-168c6.46-13.78,23.89-25,38.86-25Z" transform="translate(-46.36 -166.19)"/><path class="cls-12" d="M229.46,313.68l76.47-.13,10.43,8.25-8,17.21-10.84,21.71H234.72l-67,140H115.26L193.3,337C199.32,324.13,215.54,313.68,229.46,313.68Z" transform="translate(-46.36 -166.19)"/><path class="cls-13" d="M215.36,317.6l3.92-1.59A39.53,39.53,0,0,1,230,314.18l76.48-.14,9.9,7.83L308.38,339l-10.83,21.71H234.72l-19.53,40.79-12.84,26.81-8.26,17.25L183,468.74l-9.42,19.68-5.88,12.27H116l8.87-18.6,7-14.68,9.47-19.87,8.88-18.63,12-25.19,8.21-17.21,12.42-26.06,10.95-23,2.72-4.69,3.52-4.37a56.16,56.16,0,0,1,8.88-7.4l5.08-2.85Z" transform="translate(-46.36 -166.19)"/><polygon class="cls-5" points="243.91 213.86 245.21 215.16 243.96 214.5 242.65 213.2 243.91 213.86"/><polygon class="cls-4" points="252.74 198.86 254.04 200.16 247.87 213.2 246.56 211.9 252.74 198.86"/><polygon class="cls-14" points="249.36 214 249.34 213.99 249.32 213.98 249.29 213.96 249.27 213.95 249.25 213.94 249.22 213.93 249.2 213.91 249.18 213.9 249.15 213.89 249.13 213.88 249.11 213.86 249.08 213.85 249.06 213.84 249.04 213.83 249.01 213.81 248.99 213.8 248.97 213.79 248.92 213.76 248.9 213.75 248.87 213.74 248.85 213.72 248.82 213.71 248.8 213.7 248.78 213.69 248.75 213.68 248.73 213.66 248.69 213.64 248.66 213.62 248.57 213.57 248.54 213.56 248.52 213.55 248.5 213.54 248.45 213.51 248.43 213.5 248.33 213.45 248.31 213.44 248.26 213.41 248.24 213.4 248.22 213.38 248.19 213.37 248.17 213.36 248.15 213.35 248.12 213.34 248.1 213.32 248.08 213.31 248.05 213.3 248.03 213.28 248 213.27 247.98 213.26 247.96 213.25 247.94 213.23 247.91 213.22 247.89 213.21 247.87 213.2 247.06 212.39 248.56 213.2 248.68 213.32 249.06 213.7 249.18 213.82 249.24 213.88 249.36 214"/><polygon class="cls-4" points="190.24 197.51 191.54 198.81 124.51 338.79 123.21 337.49 190.24 197.51"/><polygon class="cls-5" points="123.21 337.49 124.51 338.79 65.49 338.79 64.19 337.49 123.21 337.49"/><polygon class="cls-4" points="291.2 155.89 292.5 157.19 295.49 174.91 294.19 173.61 291.2 155.89"/><polygon class="cls-5" points="294.19 173.61 295.49 174.91 280.95 164.65 279.65 163.35 294.19 173.61"/><polygon class="cls-5" points="232.12 238.66 233.42 239.96 232.15 239.29 230.85 237.99 232.12 238.66"/><path class="cls-4" d="M286.75,392.57l.8.8-.07.17-.08.17-.08.16-.08.17-.08.17-.08.16-.07.17-.08.17-.08.17-.08.16-.08.17-.08.17-.08.17-.08.17-.08.16-.07.17-.08.17-.08.17-.08.17-.08.17-.08.16-.08.17-.08.17-.08.17-.08.17-.08.17-.08.17-.08.17-.08.17-.08.17-.08.17-.08.17-.08.17-.08.17-.08.16-.08.17-.08.17-.08.17h0l-.08.17-.08.17-.08.17-.08.17-.09.17-.08.17h0L284,401h0l-.08.17h0l-.08.17-.08.17-.08.17h0l-.08.17-.08.17h0l-.08.17-.08.17h0l-.08.17h0l-.08.17h0l-.09.17h0L283,403l-.08.17h0l-.08.16h0l-.08.17h0l-.08.17h0l-.08.17h0l-.08.17h0l-.08.17-.81-.8C283.36,399.77,285.09,396.12,286.75,392.57Z" transform="translate(-46.36 -166.19)"/><path class="cls-14" d="M417.22,417.73l-.15-.06-.15-.15h0l-.25-.26Z" transform="translate(-46.36 -166.19)"/><polygon class="cls-5" points="220.42 263.46 221.72 264.76 220.48 264.09 219.18 262.79 220.42 263.46"/><path class="cls-4" d="M276.05,415.13l.8.81c-1.44,3-2.87,6.08-4.26,9.06l-1.86,4-.8-.81,1.86-4C273.17,421.22,274.6,418.15,276.05,415.13Z" transform="translate(-46.36 -166.19)"/><path class="cls-14" d="M272.13,429.73h0l0,0H272l0,0h-.11l0,0h-.09l0,0h-.11l0,0h-.11l0,0h-.22l0,0h-.11l0,0H271l0,0h-.11l0,0h-.07l-.8-.81c.46.26.93.51,1.4.76l0,0,0,0,.09.09.05.05.07.07.11.1,0,0,.1.11.07.07.05.05.09.09,0,0Z" transform="translate(-46.36 -166.19)"/><path class="cls-4" d="M264.3,439.94l.8.8q-1.89,4-3.81,8l-.8-.8C261.76,445.29,263,442.61,264.3,439.94Z" transform="translate(-46.36 -166.19)"/><polygon class="cls-5" points="208.62 288.26 209.92 289.56 208.66 288.9 207.36 287.6 208.62 288.26"/><path class="cls-14" d="M263.65,456.3l0,0h0l-.05,0-.45-.23-.05,0-.05,0-.05,0-.05,0,0,0,0,0-.05,0-.05,0h0l0,0-.05,0-.05,0-.05,0-.05,0,0,0-.05,0-.05,0,0,0h0l0,0-.05,0-.05,0-.05,0-.05,0,0,0-.05,0-.05,0,0,0h0l0,0,0,0-.05,0-.05,0-.05,0-.05,0,0,0,0,0-.05,0h0l-.05,0,0,0-.05,0-.05,0-.05,0,0,0-.05,0-.05,0-.05,0h0l-.05,0,0,0,0,0-.05,0-.05,0,0,0-.05,0-.05,0,0,0-1.59-.85-.81-.81,1.59.85c1.09.59,2.19,1.18,3.32,1.77C263.18,455.78,263.38,456,263.65,456.3Z" transform="translate(-46.36 -166.19)"/><polygon class="cls-5" points="196.86 313.06 198.16 314.36 196.91 313.69 195.61 312.39 196.86 313.06"/><path class="cls-4" d="M253.32,465.53,250.77,471c-1.19,2.54-2.39,5.09-3.59,7.63l-.8-.81,3.59-7.62c.84-1.81,1.7-3.62,2.54-5.42Z" transform="translate(-46.36 -166.19)"/><path class="cls-14" d="M338.48,390.11l-.12,0h0l-.58.09h0l-.6.08h0l-.58.07h0l-.57.07h0l-.55.06h-.06l-.57.06c-1.75.17-3.5.26-5.22.26-14,0-24.51-5.67-33.82-10.67l-.12-.13-.06-.06-.12-.12-.38-.37-.12-.13c9.31,5,19.86,10.68,33.82,10.68,1.71,0,3.47-.09,5.22-.26,1.23-.13,2.49-.29,3.76-.5.13.1.24.2.35.3S338.35,389.93,338.48,390.11Z" transform="translate(-46.36 -166.19)"/><path class="cls-14" d="M317.73,415.65h0c-14,0-24.51-5.67-33.82-10.67l0,0h-.07l0,0h-.07l0,0h-.07l0,0h-.07l0,0h-.07l0,0h-.07l0,0h-.09l0,0h-.07l0,0h-.07l0,0H283l0,0h-.07l0,0h-.09l0,0h-.07l0,0h-.07l0,0h-.07l0,0h0l-.81-.8,1.48.79c9.31,5,19.86,10.68,33.81,10.68h0l0,0h.11l.07.07h0v0h0l.05.05,0,0h0l0,0h0l0,0h0l0,0,0,0,.05.05h0l0,0v0h0l0,0,.07.07h0l0,0h0l0,0h0Z" transform="translate(-46.36 -166.19)"/><polygon class="cls-5" points="185.08 337.85 186.38 339.15 185.13 338.48 183.83 337.18 185.08 337.85"/><polygon class="cls-4" points="193.91 322.85 195.22 324.15 189.04 337.18 187.74 335.88 193.91 322.85"/><path class="cls-14" d="M326,415l-1.2.17h-.09l-.56.07h0l-.52.06h-.14l-.51,0h-.29l-.44-.44.14.15-.14-.15-.37-.37c-1.65.15-3.32.23-4.93.23l.17.17,0,0,0,0,.21.21.1.11.07.06.05,0,0,0h0l0,0,0,0h4.92l-.3-.3.3.3h0l-.44-.44-.37-.37.29,0c1-.1,2-.23,3.05-.39a6.77,6.77,0,0,0,.54.55l.25.26Zm-3.76,0-.37-.37h0Z" transform="translate(-46.36 -166.19)"/><path class="cls-14" d="M258.1,484.19l-.26-.12,0,0-.43-.21h0l-.15-.08-.26-.12,0,0h0l-.28-.14-.15-.07h0l-.15-.07-.76-.37,0,0-.41-.2-.06,0-.09-.05-.37-.19-.08,0-1.76-.91h0l-.44-.23h0l-1.72-.91-.07,0-.07,0-.14-.08-.14-.07-.1-.05-.19-.11-.14-.07-.11-.06-.17-.09-.14-.08-.13-.07h0l-.14-.08-.15-.08-.14-.07c-.5-.27-1-.55-1.5-.8l-.8-.81,1.5.81c3.11,1.66,6.36,3.41,9.82,5A1.34,1.34,0,0,0,258.1,484.19Z" transform="translate(-46.36 -166.19)"/><path class="cls-14" d="M265.67,487.23l-.12,0h0l-.2-.06h0l-.12,0-.12,0-.12,0-.11,0h0l-.12,0-.12,0-.19-.07h-.09l-.42-.15h-.05l-.08,0-.24-.09-.12-.05-.08,0h-.06l-.33-.13-.11,0h0l-.11-.05-.35-.13-.05,0-.06,0-.35-.14-.1,0h0l-.11-.05-.35-.14h0l-.43-.18-.08,0,0,0-.43-.18,0,0h0l-.12,0-.38-.17-.07,0-.33-.15-.09,0h0l-.33-.15-.11-.05h0l-.09,0-.45-.2a1.41,1.41,0,0,1-.12-.5,70.65,70.65,0,0,0,6.72,2.66l.45.42C265.44,487,265.55,487.1,265.67,487.23Z" transform="translate(-46.36 -166.19)"/><path class="cls-14" d="M312.17,462.51l-.21.05-.39.11h0l-.21.06-.39.1h0l-.21.05-.21.06h-.1l-.32.08-.21.05-.13,0-.49.12h-.05l-.16,0-.41.09-.07,0-.14,0-.39.09-.19,0-.45.1-.17,0-.43.1-.2,0-.42.09-.1,0h0l-.59.12h0l-.57.11h-.11l-.53.1h0l-1.19.2h-.09l-.53.09h-.06l-.55.08h0l-.57.08h0l-.57.07h0l-.53.06H300l-.55.06c-1.75.17-3.51.26-5.23.26h-2.44l-.24,0-.35,0h-.27l-.33,0h-.25l-.49,0h-.08l-1.19-.12-.13,0-.43-.05-.22,0-.36-.05-.2,0-.38,0-.2,0-.38-.06-.18,0-.4-.07-.17,0-.42-.07-.12,0h0l-.51-.1h0l-.1,0-.46-.09-.09,0-.45-.09-.18,0-.33-.08-.21-.05-.37-.09-.16,0-.38-.1-.16,0-.45-.12H281l-1.08-.3h0l-.5-.15-.08,0-.43-.13-.15,0-.37-.11-.14-.05-.37-.12-.18-.06-.28-.09-.23-.08-.45-.16h0l-1.55-.56h0l-.44-.17-.15-.06-.37-.14-.09,0-.42-.16-.07,0-.47-.19h0l-1.48-.63,0,0-.42-.18-.1-.05-.42-.19h0l-.46-.21,0,0-.45-.21h0l-.44-.2,0,0-.08,0-.4-.18c-.77-.38-1.54-.75-2.29-1.14l-.05,0-.17-.09-.29-.14-.12-.06-.34-.18-.07,0L265,457h0l-.4-.21,0,0h0l-.44-.24-.31-.16h0a4.84,4.84,0,0,1-.53-.66c8.42,4.43,18,8.76,30.16,8.76,1.71,0,3.47-.09,5.23-.26a83.09,83.09,0,0,0,14.28-2.91,12.17,12.17,0,0,0-.51,1.17Z" transform="translate(-46.36 -166.19)"/><path class="cls-14" d="M270.65,514.84h-1.29l-.64,0h0l-.64,0h0l-.63,0h0l-.62,0h0l-.62-.05h0l-.62-.06h0l-.61-.07h0l-.61-.07h0l-.6-.08h0l-.6-.08h0l-.59-.1-.59-.09h0l-.59-.11h0l-.58-.11h0l-.57-.12h0l-.58-.12h0l-.57-.13h0l-.56-.13-.56-.14h0l-.56-.15-.55-.15-.55-.15h0l-.55-.16h0l-.54-.17h0l-.54-.17h0l-.53-.17h0l-.53-.18-.53-.18h0l-.52-.19-.53-.19-.51-.19h0L251,511h0l-.51-.2-.51-.2-.5-.21h0l-.5-.21-.5-.21h0l-.49-.21h0l-.5-.22-.49-.22-.48-.22h0l-.48-.22-.49-.23-.47-.23-.48-.23h0l-.47-.23-.47-.23-.47-.23h0l-.46-.24-.47-.23-.46-.24-.45-.24-.46-.23-.45-.24-.45-.24-.45-.23-.45-.24-.44-.24-.45-.24-.44-.23-.44-.24-.43-.23h0l0,0h-.07l0,0h0l0,0h-.07l0,0h-.07l0,0h0l0,0h-.07l0,0h-.07l0,0h0l0,0h-.07l0,0H236l0,0h-.07l0,0h-.07l0,0h0l0,0h-.07l0,0h-.07l0,0h-.07l0,0h-.07l-.81-.8c.5.27,1,.55,1.51.81,9.3,5,19.85,10.67,33.75,10.67l.18.18.07.07.06.06,0,0,.12.12.05,0Z" transform="translate(-46.36 -166.19)"/><path class="cls-14" d="M398.68,414.33h-2l-.22,0h-1.32c-13.11,1.31-28.08,7.22-42.55,12.95l-.39.16-.27.11-.12,0-.38.16-.17.06-.22.09-.39.15-.06,0-.33.14-.34.13-.05,0-.39.16-.22.08-.17.07-.39.15-.11,0-.28.11-.39.15h0l-.39.15-.28.11-.12.05-.39.15-.16.06-.23.09-1.11.44-.06,0-.39.15-.22.08-.56.22-.11,0-.28.11-.39.15h0l-1.17.45-.16.06-.23.09-.39.15-.05,0-.06,0-.61.23-.06,0c-1,.39-2.08.78-3.12,1.15l-.16.06-2.55.91-.1,0-.67.23h0l-1.29.44-.05,0c-1.07.36-2.14.71-3.19,1l-.07,0h0l-.54.17-.09,0-.12,0-.38.11-.15,0-.06,0-.17.05a2.86,2.86,0,0,0-.12-.27,2.18,2.18,0,0,1-.25-.67c8-2.45,16.27-5.74,24.41-9,14.47-5.73,29.43-11.65,42.54-12.95,1.18-.12,2.36-.19,3.53-.22l.07.08h0l0,0v0l.12.11.16.17h.05l0,0h0l.22.22Z" transform="translate(-46.36 -166.19)"/><path class="cls-14" d="M399.84,414.32h-1.16l-.13-.13-.16-.16,0,0-.17-.17-.13-.13-.18-.18,1.16,0,.2.21.07.07,0,0,.15.14,0,0,.13.13Z" transform="translate(-46.36 -166.19)"/><path class="cls-4" d="M464.92,363.86l.8.81-2.58-1.32c-9.13-4.65-19.47-9.91-32.69-9.91-1.63,0-3.31.08-5,.24-13.05,1.29-28.09,7.22-42.64,12.95C368.7,372.2,354.07,378,341.6,379.22c-1.68.16-3.34.25-5,.25-13.29,0-22.89-5.51-31.36-10.37-1.67-1-3.28-1.88-4.88-2.75l-.8-.81c1.6.87,3.2,1.79,4.88,2.76,8.47,4.85,18.07,10.37,31.36,10.37,1.62,0,3.28-.09,5-.25,12.48-1.25,27.11-7,41.25-12.6,14.55-5.73,29.58-11.66,42.64-12.94,1.66-.16,3.33-.24,5-.24,13.21,0,23.56,5.26,32.68,9.91Z" transform="translate(-46.36 -166.19)"/><path class="cls-14" d="M334.27,495.41h0l-.59.21-.06,0-2,.73h-.05l-.24.09-1.13.42-.05,0-.29.11-.3.11h0l-.25.1-.29.11-.14.05-.16.06-.53.2-.06,0-.29.11-.29.12h0l-.26.1-.29.11-.13.05-.17.06-.29.12-.23.08-.06,0-.3.11-.29.12h0l-.27.1-.29.11-.12.05-.17.07-.3.11-.22.09-.07,0-.3.11-.29.12h0l-.27.1-.3.12-.11,0-.18.07-.29.12-.22.08-.08,0-.29.12-.3.11h0l-.28.11-.29.11-.11,0-.18.07-.3.12-.2.08-.09,0-.29.12-.3.11h0l-.29.11-.29.11-.1,0-.19.07-.3.12-.19.08-.1,0-.29.12-.29.11c-14.17,5.61-28.81,11.4-41.35,12.65-1.75.17-3.5.26-5.22.26l-.29-.29-.05,0-.12-.12,0,0-.06-.06-.07-.07-.18-.18c1.71,0,3.47-.09,5.22-.26,12.54-1.25,27.18-7,41.34-12.65,6.33-2.51,12.74-5.05,19.06-7.22h0a1.47,1.47,0,0,1,.52.9Z" transform="translate(-46.36 -166.19)"/><path class="cls-14" d="M339,493.79h0l-.47.15,0,0h0l-.05,0h-.08l0,0h0l0,0h0l-.08,0-.05,0h0l-.05,0h-.08l-.05,0h0l0,0-.09,0h0l-.05,0h0l0,0h-.09l0,0h0l0,0h0l0,0h0l-.05,0h0l0,0h-.05l0,0h0l-.05,0h0l-.08,0h-.05l0,0h0l-.05,0-.13,0,0,0h-.13a8.36,8.36,0,0,0-.78-.81h0q1.38-.48,2.76-.93l0,0,0,0h0l.11.12h0l.05.05.08.08.12.12.08.07.05.06.14.13Z" transform="translate(-46.36 -166.19)"/><polygon class="cls-9" points="418.06 197.18 419.37 198.48 413.1 211.69 411.8 210.4 418.06 197.18"/><path class="cls-14" d="M436.85,366.21v0q1.57.51,3.09,1.11h0c-1-.4-2-.75-2.9-1l-.19-.06Zm21.8,10.87.81.8c-1.59-.86-3.19-1.78-4.87-2.74l-.16-.1-.16-.09-.08,0-.08-.05-.16-.1-.16-.08h0l-.17-.09-.16-.09-.07,0-.09-.06-.17-.09-.14-.09h0l-.16-.09-.17-.09-.06,0-.1-.06-.17-.09-.14-.08h0l-.17-.1-.16-.09-.05,0-.12-.07-.17-.09-.13-.07,0,0-.17-.1-.17-.09,0,0-.12-.06-.17-.1-.13-.07,0,0-.17-.09-.17-.1,0,0-.14-.07-.17-.09-.11-.07-.06,0-.17-.09-.17-.09,0,0h0L449,372l-.11-.06-.07,0-.17-.09-.17-.09h0l-.29-.15,0,0-.1-.05-.07,0-.18-.09-.17-.09h0l-.17-.08-.17-.09-.1-.05-.08,0-.35-.18h0l-.72-.36-.17-.08h0c-.71-.35-1.44-.69-2.18-1-.46-.31-1.24-.81-2.51-1.53a110.07,110.07,0,0,1,12.7,6.56C455.47,375.3,457.07,376.22,458.65,377.08Z" transform="translate(-46.36 -166.19)"/><path class="cls-4" d="M467.06,361.35l1.3.64-8.84,18.67-1.37-.71c-2.1-1.08-4.16-2.27-6.36-3.53-8.15-4.69-17.39-10-29.68-10-1.45,0-2.94.07-4.41.21-12.71,1.26-27.47,7.11-41.74,12.77S346.72,391,333.74,392.27c-1.84.18-3.69.27-5.51.27-14.7,0-25.6-5.86-35.23-11l-2.73-1.46-1.26-.66,7.43-15.69h2.95l.74-1.48c1.76.94,3.51,1.94,5.34,3,8.55,4.91,17.38,10,29.88,10A46.14,46.14,0,0,0,340,375c12.06-1.2,25.85-6.64,40.45-12.4s30-11.81,43.44-13.13c1.76-.17,3.53-.26,5.26-.26,13.93,0,24.61,5.44,34,10.24l3.87,2Zm-8.9,15.23h0l6.26-13.21-2.58-1.32c-9.13-4.65-19.47-9.91-32.69-9.91-1.63,0-3.31.08-5,.24-13.05,1.29-28.09,7.21-42.64,12.94-14.14,5.58-28.77,11.35-41.24,12.6-1.68.16-3.34.25-5,.25-13.29,0-22.89-5.52-31.36-10.37-1.68-1-3.28-1.89-4.88-2.75l-6.18,13,1.5.81c9.31,5,19.87,10.67,33.82,10.67,1.72,0,3.47-.09,5.22-.26,12.56-1.25,27.22-7.06,41.41-12.68,14.47-5.74,29.42-11.66,42.54-13,1.58-.15,3.16-.23,4.7-.23,13.09,0,22.7,5.53,31.18,10.42C455,374.8,456.57,375.72,458.16,376.58Z" transform="translate(-46.36 -166.19)"/><path class="cls-12" d="M429.15,352.14c13.22,0,23.56,5.26,32.69,9.91l2.58,1.32-6.26,13.21c-1.59-.86-3.19-1.78-4.87-2.74-8.48-4.89-18.09-10.42-31.18-10.42-1.54,0-3.12.08-4.7.23-13.12,1.31-28.07,7.23-42.54,13-14.19,5.62-28.85,11.43-41.41,12.68-1.75.17-3.5.26-5.22.26-13.95,0-24.51-5.67-33.82-10.67l-1.5-.81,6.18-13c1.6.86,3.2,1.79,4.88,2.75,8.47,4.85,18.07,10.37,31.36,10.37,1.62,0,3.28-.09,5-.25,12.47-1.25,27.1-7,41.24-12.6,14.55-5.73,29.59-11.65,42.64-12.94C425.84,352.22,427.52,352.14,429.15,352.14Z" transform="translate(-46.36 -166.19)"/><path class="cls-4" d="M458.65,380.45l.8.8c-2.1-1.08-4.16-2.27-6.36-3.53-8.15-4.69-17.39-10-29.69-10-1.44,0-2.93.07-4.4.21-12.71,1.26-27.47,7.11-41.74,12.77S348,392.27,335,393.57c-1.84.18-3.69.27-5.51.27-14.7,0-25.6-5.86-35.23-11l0,0,0,0,0,0-.05,0,0,0,0,0-.05,0,0,0,0,0-.05,0,0,0,0,0,0,0h0l-.05,0,0,0,0,0-.05,0,0,0,0,0,0,0-.05,0,0,0,0,0h0l-.05,0h0l0,0,0,0,0,0h0l0,0,0,0h0l0,0,0,0h0l0,0,0,0h0l0,0h0l-.05,0,0,0h0l0,0h0l0,0h0l-.05,0h0l0,0h0l0,0h0l0,0h0l-.05,0h0l0,0h0l0,0h0l0,0,0,0h0l0,0h0l0,0,0,0h0l-.05,0h0l0,0h0l0,0,0,0h0l-.05,0h0l0,0h0l0,0h0l0,0h0l-.05,0h0l0,0h0l0,0h0l0,0h0l0,0h0l-.05,0h0l-.8-.8L293.5,382c9.62,5.17,20.52,11,35.23,11,1.81,0,3.66-.09,5.51-.26,13-1.3,27.84-7.19,42.22-12.89s29-11.5,41.73-12.76a43.84,43.84,0,0,1,4.41-.22c12.29,0,21.54,5.32,29.69,10C454.49,378.18,456.55,379.37,458.65,380.45Z" transform="translate(-46.36 -166.19)"/><polygon class="cls-5" points="413.16 214.48 414.46 215.78 413.09 215.06 411.79 213.76 413.16 214.48"/><polygon class="cls-4" points="422 195.81 423.3 197.11 414.46 215.78 413.16 214.48 422 195.81"/><polygon class="cls-4" points="410.2 220.63 411.5 221.93 402.67 240.6 401.36 239.3 410.2 220.63"/><path class="cls-4" d="M453.13,388.66l.8.81-2.6-1.33c-9.11-4.64-19.44-9.91-32.69-9.91-1.64,0-3.31.09-5,.24-13,1.31-28,7.21-42.53,12.93C357,397,342.32,402.76,329.79,404a48.84,48.84,0,0,1-5,.25c-13.29,0-22.88-5.51-31.35-10.37-1.68-1-3.29-1.89-4.88-2.75l-.81-.81c1.6.87,3.21,1.79,4.88,2.76,8.47,4.86,18.07,10.37,31.35,10.37a49.18,49.18,0,0,0,5-.25c12.53-1.26,27.18-7,41.36-12.63,14.51-5.71,29.5-11.62,42.52-12.92,1.66-.16,3.33-.24,5-.24,13.24,0,23.57,5.27,32.69,9.91Z" transform="translate(-46.36 -166.19)"/><polygon class="cls-8" points="406.27 221.98 407.57 223.28 407.33 223.78 406.04 222.48 406.27 221.98"/><path class="cls-9" d="M453.7,390l0,0,0,0,0,0v0l0,0h0v.06l0,.07,0,0-.1.22h0l-.28.59h0l-.17.36v0l0,.05,0,0,0,0v0l0,0h0l0,0,0,0v0l0,0,0,0h0v0l0,0,0,0v0l0,0,0,0h0l0,0v0l0,0,0,0-.23-.25.23.25v0l0-.05-.05-.05-.05-.05-.06-.06-.05-.05-.05,0-.06-.05-.05-.05-.05-.05-.05-.05,0,0,0,0,.05.05.05.05.05.05.06.05.05,0,.05.05.06.06.05.05.05.05,0,.05v0l-.07.13,0,.06,0,.1-.05.1,0,.06-.06.14v0l-.08.16v0l-.07.14,0,.05-.05.12,0,.08,0,.08-.06.12,0,0-.07.16h0l-.08.16,0,0-.06.12,0,.07,0,.09-.05.11,0,.06-.07.14v0l-.07.16v0l-.07.14,0,.06,0,.1-.05.1,0,.06-.06.14,0,0-.07.16h0l-.07.16,0,0-.06.12,0,.08,0,.09-.06.11,0,.05-.07.15h0l-.23.49-.05.1,0,.06-.07.14v0l-.08.17h0l-.07.15,0,.05-.05.11,0,.09,0,.07-.07.17-.08.16h0l-.08.16v0l-.06.12,0,.08,0,.09-.15.31h0l-.08.17v0l-.07.14,0,.06-.05.1,0,.1,0,.07-.06.13,0,0-.07.16h0l-.07.15,0,0-.06.12,0,.08,0,.08-.06.12,0,0-.07.16h0l-.07.16v0l-.07.13,0,.07,0,.1-.05.1,0,.06-.07.14v0L448,402l0,.05-.05.11-.05.09,0,.07-.06.13,0,0-.07.16-.81-.8c1.62-3.47,3.26-6.95,4.88-10.36l.24.25-.24-.25,0,0,0,0,.06.06.05.05.05.05.06.06.05.05,0,.05.05,0,.05.05.05.05.05.05h0l-.05-.05-.05-.05-.05-.05-.05,0,0-.05-.05-.05-.06-.06-.05-.05-.05-.05-.06-.06,0,0,1.1-2.33Z" transform="translate(-46.36 -166.19)"/><path class="cls-14" d="M446.89,401.88l.81.8c-1.66-.89-3.34-1.85-5.11-2.86-8.42-4.83-18-10.3-31-10.3-1.54,0-3.12.07-4.69.22-13.07,1.31-28,7.23-42.44,12.95l-.61.24-.06,0-.56.22-.1.05-.51.2-.16.06-.46.18-.21.08-.4.16-.27.11-.35.14-.32.12-.29.12-.38.15-.24.09-.43.17-.19.07-.48.19-.13.05-.54.21-.08,0-.59.23h0l-.62.24h0l-.59.23-.08,0-.54.21-.13.05-.49.19-.18.07-.43.16-.24.09-.38.14-.53.21-.09,0-.34.13-.27.1-.4.15h0l-1.21.45-.1,0-.11,0-.56.21-.05,0-.62.22h0l-.61.22-.61.22-.11,0-.51.18,0,0-.44.15-.13.05-.21.07-.15.05-.47.17-.1,0-.47.16-.13,0-.3.1-.37.12-.08,0-.45.15-.18.06-.4.13-.2.07-.14.05-.52.17-.08,0-.58.19h0l-.6.19h0l-.57.18-.08,0-.07,0-.58.17h0l-.59.18-.17,0-.4.12-.28.08-.39.12-.23.07-.35.1-.29.08-.4.11-.19.06-.46.12-.15,0-.58.16h0l-.61.16h0l-.63.16h0l-1.85.45-.14,0-.5.11-.08,0-.55.12h-.06l-.52.12-.13,0-.54.12h0l-.61.12h0l-.52.1-.14,0c-.78.14-1.56.28-2.33.39l-.27-.25a5.67,5.67,0,0,1-.46-.56c11.86-1.82,25.32-7.14,38.38-12.32,14.43-5.72,29.37-11.63,42.43-12.94,1.58-.15,3.16-.22,4.7-.22,13,0,22.57,5.47,31,10.29C443.56,400,445.23,401,446.89,401.88Z" transform="translate(-46.36 -166.19)"/><path class="cls-12" d="M417.34,376.93c13.25,0,23.57,5.27,32.69,9.91l2.6,1.33-.24.5c-2,4.15-4,8.44-6,12.71-1.66-.89-3.34-1.85-5.11-2.86-8.42-4.83-18-10.3-31-10.3-1.54,0-3.12.07-4.69.22-13.07,1.31-28,7.23-42.44,12.95-14.22,5.63-28.92,11.45-41.5,12.71-1.76.17-3.52.25-5.23.25-14,0-24.51-5.67-33.82-10.67l-1.47-.8c1.72-3.6,3.45-7.26,5.11-10.81l1.06-2.22c1.59.86,3.2,1.78,4.88,2.75,8.47,4.86,18.06,10.37,31.35,10.37a49,49,0,0,0,4.95-.25c12.53-1.26,27.19-7,41.36-12.62,14.51-5.72,29.51-11.63,42.53-12.93C414,377,415.7,376.93,417.34,376.93Z" transform="translate(-46.36 -166.19)"/><path class="cls-4" d="M447.72,406.06c-2.18-1.12-4.33-2.35-6.61-3.65-8.11-4.65-17.31-9.91-29.53-9.91-1.44,0-2.92.07-4.4.21-12.64,1.26-27.38,7.1-41.63,12.75-14.41,5.7-29.3,11.6-42.31,12.9a54.28,54.28,0,0,1-5.52.28c-14.7,0-25.61-5.87-35.23-11l0,0-.05,0,0,0,0,0,0,0,0,0,0,0,0,0,0,0h0l0,0,0,0,0,0-.05,0h0l0,0,0,0h0l-.05,0h0l0,0h0l0,0h0l0,0h0l-.05,0h0l0,0h0l0,0h0l0,0h0l-.05,0h0l0,0h0l0,0h0l0,0h0l0,0h0l0,0h0l0,0h0l0,0h0l-.05,0h0l0,0h0l0,0h0l0,0h0l0,0h0l0,0h0l0,0h0l0,0h0l0,0h0l-.05,0h0l0,0h0l0,0h0l0,0h0l0,0h0l-.05,0h0l0,0h0l0,0h0l0,0h0l0,0h0l0,0h0l0,0h0l0,0h0l0,0h0l0,0h0l0,0h0l0,0h0l0,0h0l0,0h0l0,0h0l0,0h0l0,0h0l0,0h0l0,0h0l-.81-.81,2.72,1.46c9.62,5.17,20.53,11,35.23,11,1.81,0,3.67-.09,5.52-.27,13-1.3,27.89-7.2,42.31-12.9,14.25-5.65,29-11.49,41.63-12.75a43.65,43.65,0,0,1,4.4-.22c12.22,0,21.41,5.27,29.53,9.92,2.27,1.29,4.42,2.53,6.6,3.64Z" transform="translate(-46.36 -166.19)"/><path class="cls-4" d="M455.26,386.14l1.31.66-1.49,3.14c-2.18,4.61-4.45,9.38-6.63,14.11l-.65,1.4-1.38-.69c-2.18-1.12-4.33-2.35-6.61-3.65-8.11-4.65-17.31-9.91-29.53-9.91-1.45,0-2.92.07-4.4.21-12.64,1.26-27.38,7.1-41.63,12.75-14.41,5.7-29.3,11.6-42.31,12.9a54.24,54.24,0,0,1-5.52.27c-14.7,0-25.61-5.86-35.23-11l-2.71-1.45-1.27-.67.62-1.3c1.93-4,3.87-8.1,5.73-12.07l2.38-5.05,1.37.72c2.11,1.09,4.18,2.28,6.37,3.54,8.54,4.89,17.38,10,29.87,10a46,46,0,0,0,4.65-.24c12.12-1.22,25.94-6.66,40.57-12.43s29.89-11.77,43.32-13.11c1.76-.17,3.52-.26,5.26-.26,14,0,24.63,5.45,34,10.24,1.31.67,2.6,1.33,3.87,1.95Zm-2.87,2.53h0l.24-.51c-.86-.42-1.72-.87-2.6-1.32-9.12-4.64-19.44-9.91-32.69-9.91-1.64,0-3.31.09-5,.24-13,1.3-28,7.21-42.53,12.93-14.17,5.58-28.83,11.36-41.36,12.62a48.84,48.84,0,0,1-4.95.25c-13.29,0-22.88-5.51-31.35-10.37-1.68-1-3.29-1.89-4.88-2.75l-1.06,2.22c-1.66,3.55-3.39,7.21-5.11,10.81l1.47.8c9.31,5,19.86,10.67,33.82,10.67,1.71,0,3.47-.08,5.23-.25,12.58-1.26,27.28-7.08,41.5-12.71,14.44-5.72,29.37-11.64,42.44-12.95,1.57-.15,3.15-.22,4.69-.22,13,0,22.58,5.47,31,10.3,1.77,1,3.45,2,5.11,2.86C448.38,397.11,450.42,392.82,452.39,388.67Z" transform="translate(-46.36 -166.19)"/><polygon class="cls-5" points="401.44 239.27 402.74 240.57 401.36 239.87 400.06 238.57 401.44 239.27"/><path class="cls-4" d="M441.34,413.46l.8.8-2.72-1.37C430.33,408.27,420,403,406.88,403c-1.63,0-3.29.08-4.95.24-13,1.29-28,7.2-42.54,12.91-14.19,5.59-28.87,11.38-41.4,12.63a49,49,0,0,1-5,.25c-13.31,0-22.9-5.53-31.36-10.41-1.66-1-3.24-1.87-4.82-2.72l-.8-.81c1.57.86,3.15,1.77,4.81,2.73,8.46,4.88,18.06,10.4,31.37,10.4a48.69,48.69,0,0,0,4.95-.25c12.54-1.25,27.22-7,41.41-12.62,14.52-5.71,29.53-11.62,42.54-12.92,1.65-.16,3.32-.24,4.95-.24,13.15,0,23.45,5.23,32.54,9.85Z" transform="translate(-46.36 -166.19)"/><path class="cls-14" d="M435.17,427.08l-.26-.14h0l-.06,0h0l-.05,0,0,0,0,0,0,0,0,0,0,0h0l-.06,0h0l-.07,0h0l-.06,0h0l-.05,0,0,0,0,0,0,0h0l-.06,0h0l-.06,0h0l-.06,0h0l-.06,0h0l0,0,0,0,0,0-.05,0h0l-.05,0h0l-.07,0h0l-.07,0h0l-.05,0,0,0,0,0,0,0,0,0-.05,0h0l-.06,0h0l-.2-.12h0l0,0-.12-.06h0l-.14-.08h0l-.05,0h0l0,0,0,0,0,0,0,0h0l-.05,0h0l-.07,0h0l-.07,0h0l-.06,0h0l0,0,0,0h0l-.05,0h0l-.06,0h0l-.07,0h0l-.07,0h0l-.06,0h0l0,0,0,0,0,0-.06,0h0l-.07,0h0l-.07,0h0l-.06,0h0l-.05,0,0,0,0,0,0,0h0l-.06,0h0l-.07,0-.2-.11-.19-.11h0l-.18-.1-.2-.11,0,0-.17-.1-.19-.11,0,0-.16-.09-.2-.11,0,0-.15-.08-.2-.11-.05,0-.15-.08-.19-.11-.07,0-.13-.07-.2-.11-.08-.05-.12-.06-.2-.12-.2-.11-.2-.11-.1-.06-.1,0-.2-.11-.2-.12-.2-.11-.2-.11-.21-.11-.14-.08-.06,0-.21-.11-.2-.11-.21-.11-.16-.09,0,0-.21-.11-.18-.1h0l-.2-.11-.19-.1h0l-.21-.11-.2-.11h0l-.21-.11-.21-.11h0l-.2-.1-.22-.11h0l-.2-.1-.21-.1-.17-.09-.05,0-.21-.11,0,0-.17-.08-.22-.11-.06,0-.06,0-.31-.15-.07,0-.15-.08-.22-.1-.21-.1h0l-.22-.1h0l-.17-.07,0,0-.22-.1-.22-.1-.23-.1h0l-.17-.07,0,0-.22-.09,0,0-.19-.08-.23-.1h0l-.18-.08-.23-.1h0L418,418l-.23-.09-.23-.1c-.07-.05-.27-.19-.46-.35l-.72-.6a102.21,102.21,0,0,1,13.76,7c1.48.84,2.9,1.65,4.3,2.42l.24.24.08.08,0,0,.16.17.22.21.07.07Zm-18.1-9.41v0l0,0h0l0,0h0l0-.05-.1-.1-.18-.17h0l-.39-.38-1.11-.42.57.41a5.79,5.79,0,0,1,.69.56h.1l.17.06H417Z" transform="translate(-46.36 -166.19)"/><path class="cls-12" d="M405.58,401.74c13.15,0,23.45,5.22,32.54,9.85l2.72,1.37c-1.62,3.49-3.26,7-4.91,10.44l-1.32,2.78c-1.64-.88-3.29-1.83-5-2.82-8.45-4.85-18-10.34-31-10.34-1.54,0-3.11.08-4.69.23-13.1,1.3-28.07,7.22-42.54,12.95-14.2,5.63-28.89,11.44-41.45,12.7-1.74.17-3.5.26-5.2.26-14,0-24.52-5.71-33.83-10.73l-1.4-.75,1.86-4c1.39-3,2.82-6,4.26-9.06,1.58.85,3.15,1.77,4.82,2.72,8.46,4.88,18.05,10.41,31.36,10.41a49,49,0,0,0,5-.25c12.53-1.26,27.21-7,41.4-12.63,14.52-5.71,29.53-11.62,42.54-12.91C402.29,401.82,404,401.74,405.58,401.74Z" transform="translate(-46.36 -166.19)"/><polygon class="cls-9" points="389.57 257.21 390.87 258.51 389.55 261.3 388.25 260 389.57 257.21"/><path class="cls-14" d="M435.11,426.68l.8.8h-.34l0,0h0l0,0h-.13l0,0h0l-.12-.07,0,0-.22-.22h0l-.15-.15-.11-.11h0l-.27-.27Z" transform="translate(-46.36 -166.19)"/><path class="cls-14" d="M404.36,442.1h0l-.47-.17h0l-.46-.16h0l-.47-.16h0c-.65-.23-1.32-.43-2-.63h0l-1-.29h0l-.49-.13h-.06l-.44-.11-.12,0-.38-.09-.15,0-.37-.08-.15,0-.37-.08-.15,0-.41-.08-.1,0-.45-.09-.09,0-.5-.08h0l-.47-.07-.07,0h0l-.52-.08h-.06l-.49-.06-.16,0-.39-.05-.18,0-.36,0-.25,0-.29,0-.26,0-.31,0-.26,0-.29,0h-.27l-.32,0-.23,0h-2.33l-.17-.17-.07-.07-.32-.31-.09-.09-.15-.16c12,0,21.06,4.65,29,9.17a5.58,5.58,0,0,0,.42.41,4.55,4.55,0,0,0,.38.39A87.08,87.08,0,0,0,404.36,442.1Z" transform="translate(-46.36 -166.19)"/><path class="cls-4" d="M435.11,430l.8.81-.1-.06h0l-.1-.05h0l-.1-.05h0l-.1-.05h0l-.1-.05h0l-.1-.06h0l-.1,0h0l-.1-.05h0l-.1-.05h0l-.1-.06h0l-.1-.05h0l-.1,0h0l-.1-.06h0l-.1-.05h0l-.1-.06h0l-.1-.05h0l-.1-.05h0l-.1-.06h0l-.1-.05h0l-.1-.06h0l-.1,0h0l-.1-.06h0l-.1-.05h0l-.1-.06h0l-.1-.05h0l-.1-.06h0l-.1-.05h0l-.1-.06h0l-.1-.06h0l-.1,0h0l-.1-.06h0l-.1-.05h0l-.1-.06h0l-.1-.06h0l-.1-.05h0l-.1-.06h0l-.1-.06h0l-.1-.05h0l-.1-.06h0l-.11-.06h0l-.1-.06h0l-.1-.06h0l-.1-.05-.1-.06h0l-.11-.06h0l-.1-.06h0l-.1-.06h0l-.1-.05h0l-.11-.06h0l-.1-.06h0l-.1-.06-.11-.06h0l-.1-.06-.1-.06h0l-.11-.06h0l-.1-.06h0l-.1-.06h0l-.11-.05-.1-.06h0l-.11-.06-.1-.06-.1-.06h0l-.1-.06-.1-.07c-8.14-4.66-17.34-9.95-29.57-9.95-1.44,0-2.91.09-4.39.23-12.7,1.26-27.46,7.1-41.73,12.75s-29.28,11.59-42.26,12.9c-1.84.17-3.69.26-5.5.26-14.71,0-25.62-5.89-35.25-11.08l-2.62-1.41-.8-.8,2.62,1.41c9.62,5.19,20.53,11.08,35.25,11.08,1.8,0,3.65-.09,5.5-.27,13-1.3,27.86-7.19,42.25-12.89s29-11.49,41.74-12.76c1.47-.14,2.95-.22,4.39-.22,12.23,0,21.43,5.28,29.56,9.95C430.83,427.73,433,428.94,435.11,430Z" transform="translate(-46.36 -166.19)"/><polygon class="cls-5" points="389.62 264.07 390.92 265.37 389.55 264.66 388.25 263.36 389.62 264.07"/><path class="cls-4" d="M443.46,410.93l1.3.64-.61,1.32c-1.82,3.94-3.67,7.85-5.53,11.78L436,430.25l-1.37-.7c-2.15-1.1-4.28-2.32-6.52-3.61C420,421.28,410.76,416,398.53,416a43.64,43.64,0,0,0-4.39.23c-12.7,1.26-27.46,7.1-41.74,12.75s-29.27,11.59-42.25,12.89c-1.84.18-3.69.27-5.5.27-14.72,0-25.62-5.89-35.25-11.08l-2.62-1.41-1.24-.67.6-1.27,2.46-5.26c1.6-3.44,3.26-7,4.94-10.49l.67-1.38,1.36.7c2.08,1.09,4.13,2.27,6.29,3.51,8.54,4.92,17.37,10,29.88,10,1.53,0,3.09-.08,4.66-.23,12.12-1.22,26-6.67,40.61-12.44s29.92-11.77,43.35-13.11c1.74-.17,3.5-.25,5.23-.25,13.86,0,24.5,5.4,33.89,10.17,1.35.69,2.67,1.36,4,2Zm-7.53,12.47h0c1.65-3.48,3.29-6.95,4.91-10.44l-2.72-1.37c-9.09-4.63-19.39-9.85-32.54-9.85-1.63,0-3.29.08-4.95.24-13,1.29-28,7.2-42.54,12.91-14.19,5.59-28.87,11.37-41.4,12.63a49,49,0,0,1-5,.25c-13.31,0-22.9-5.53-31.36-10.41-1.67-.95-3.24-1.87-4.82-2.72-1.44,3-2.87,6.08-4.26,9.06l-1.86,4,1.4.75c9.31,5,19.86,10.73,33.83,10.73,1.7,0,3.46-.09,5.2-.26,12.56-1.26,27.25-7.07,41.45-12.7,14.47-5.73,29.44-11.65,42.54-12.95,1.58-.15,3.15-.23,4.69-.23,13,0,22.59,5.49,31,10.34,1.74,1,3.39,1.94,5,2.82Z" transform="translate(-46.36 -166.19)"/><path class="cls-4" d="M429.58,438.3l.8.81c-.88-.44-1.78-.91-2.69-1.36-9.11-4.65-19.45-9.92-32.62-9.92-1.63,0-3.29.09-4.94.25-13,1.29-28,7.2-42.47,12.91-14.2,5.6-28.89,11.39-41.42,12.63-1.66.16-3.32.24-4.95.24-13.31,0-22.91-5.52-31.37-10.4-1.66-.95-3.24-1.86-4.82-2.72l-.8-.8c1.58.86,3.16,1.77,4.82,2.72,8.46,4.88,18.06,10.39,31.37,10.39,1.62,0,3.29-.08,4.95-.24,12.53-1.23,27.21-7,41.42-12.62,14.48-5.71,29.47-11.62,42.47-12.92,1.64-.16,3.31-.24,4.93-.24,13.18,0,23.52,5.27,32.63,9.92C427.8,437.4,428.7,437.87,429.58,438.3Z" transform="translate(-46.36 -166.19)"/><path class="cls-9" d="M429.58,438.3l.8.81-.06.12,0,.08,0,0-.05.12,0,0,0,.08-.06.12h0l-.06.12,0,.09,0,0-.05.12,0,.05,0,.08-.06.12h0l-.05.11,0,.09,0,0-.06.12,0,.06,0,.07-.06.12h0l-.05.11-.05.1v0l-.06.13,0,.05,0,.07-.23.49,0,.06,0,.06-.06.12v0l-.09.21v0l-.06.12,0,.06,0,.06-.06.12v0l-.05.09-.05.11v0l-.06.12,0,.07,0,.05-.06.12v0l-.05.1,0,.11h0l-.17.37,0,0,0,.09-.12.24,0,.08,0,0-.06.13,0,0,0,.08-.06.12h0l-.06.12,0,.09,0,0,0,.12,0,0,0,.08-.06.12h0l-.06.12,0,.08,0,0-.06.12,0,.05,0,.07-.06.13h0l-.05.11-.05.09v0l-.06.12,0,.06,0,.07-.05.12h0l-.05.11,0,.1v0l-.22-.21,0,0-.21-.21-.06-.06-.07-.07v0l-.11-.11,0,0-.06-.06Z" transform="translate(-46.36 -166.19)"/><path class="cls-14" d="M423.22,451.79l0,0h0l-.05,0h0l-.06,0h0l0,0,0,0h0l-.06,0h0l0,0,0,0h0l0,0h0l-.06,0h0l0,0-.05,0h0l-.05,0h0l0,0,0,0h0l0,0h0l0,0,0,0h0l-.06,0h0l-.05,0h0l0,0,0,0h0l-.06,0h0l0,0,0,0h0l-.05,0h0l-.05,0,0,0h0l-.05,0h0l-.05,0,0,0,0,0,0,0h0l-.06,0h0l0,0,0,0h0l-.11-.06,0,0,0,0-.05,0h0l-.05,0h0l0,0-.27-.16h0l-.22-.13h0l-.77-.45,0,0,0,0-.43-.25-.08,0-.08-.05,0,0h0l0,0,0,0h0l0,0,0,0h0l0,0,0,0h0l-.06,0h0l0,0,0,0h0l0,0-.06,0,0,0,0,0h0l-.11-.07h0l0,0,0,0h0l0,0,0,0-.08,0h0l0,0,0,0h0l0,0h0l0,0h0l0,0-.06,0h0l0,0,0,0h0l0,0,0,0h0l0,0h-.06l0,0,0,0h0l0,0-.12-.07s-.31-.26-.56-.49l-.26-.32,1.88,1.08.58.34.37.37-.16-.16.16.16-.37-.37h0l.09.09-.09-.09c1.2.69,2.37,1.36,3.53,2l.29.29.09.09.42.42Zm-3.86-2.33.12.12-.12-.12.27.27,0,0,0,0-.27-.27Zm.3.3,0,0h0l0,0Zm-.82-.79h0v0h0v0h0l0,0v0h0l0,0v0h0l0,0v0h0v0h0v0h0v0h0v0l0,0h0v0l0,0h0v0l0,0h0v0h0v0Zm.5.5h0l0,0h0l0,0v0h0l0,0v0h0l0,0v0h0l0,0v0h0v0h0v0l0,0h0v0l0,0h0v0l0,0h0v0l0,0h0l0,0Z" transform="translate(-46.36 -166.19)"/><path class="cls-12" d="M393.77,426.53c13.17,0,23.51,5.27,32.62,9.92.91.45,1.81.92,2.69,1.36-2.08,4.37-4.18,8.75-6.26,13.16-1.65-.87-3.3-1.82-5-2.82-8.44-4.85-18-10.33-31-10.33a46.64,46.64,0,0,0-4.7.23c-13.08,1.29-28,7.21-42.49,12.94-14.2,5.63-28.89,11.44-41.46,12.71-1.75.17-3.51.25-5.23.25-13.88,0-24.39-5.65-33.66-10.62l-1.59-.85,2.36-5c1.28-2.68,2.55-5.37,3.81-8,1.58.86,3.16,1.77,4.82,2.72,8.46,4.88,18.06,10.4,31.37,10.4,1.63,0,3.29-.08,4.95-.24,12.53-1.24,27.22-7,41.42-12.63,14.49-5.71,29.48-11.62,42.47-12.92C390.47,426.61,392.14,426.53,393.77,426.53Z" transform="translate(-46.36 -166.19)"/><path class="cls-14" d="M424.12,452.27H424l0,0h0l0,0h-.15l-.07,0h0l0,0h0l-.16-.08h-.05l-.13-.07h-.11l-.15-.15,0,0-.11-.11,0,0h0l-.08-.08,0,0,0,0,0,0h0l0,0,0,0,0,0h0l0,0h0l-.05-.06,0,0-.05-.05.89.48Z" transform="translate(-46.36 -166.19)"/><path class="cls-9" d="M426.65,446.93l0,.09,0,.08h0l0,.07,0,.09,0,.05v0l0,.08-.08.17,0,.08,0,.05,0,0,0,.08,0,.08h0l0,.08,0,.08,0,0,0,0,0,.09,0,.08h0l0,.08,0,.09,0,0,0,0,0,.08,0,.08h0l0,.08,0,.08,0,0,0,0,0,.08,0,.07h0l0,.09,0,.08v0l0,.05,0,.09,0,.07h0l0,.08,0,.09v0l0,.06,0,.08,0,.07v0l0,.08,0,.09v0l0,.06,0,.08,0,.06v0l0,.08,0,.08v0l0,.07,0,.08,0,.06v0l0,.09,0,.08h0l0,.07,0,.09,0,.05v0l0,.08,0,.09h0l0,.07,0,.09,0,0,0,0,0,.08,0,.09h0l0,.08,0,.08,0,.05v0l0,.08,0,.08-.81-.8,2.54-5.34.06.06,0,0,.11.11v0l.07.07.06.06.21.21,0,0Z" transform="translate(-46.36 -166.19)"/><path class="cls-4" d="M423.31,454.84l.81.81c-2.16-1.1-4.27-2.32-6.51-3.62-8.12-4.65-17.31-9.94-29.56-9.94a44,44,0,0,0-4.41.22c-12.66,1.26-27.41,7.1-41.68,12.75s-29.28,11.6-42.27,12.89a54,54,0,0,1-5.52.28c-14.63,0-25.49-5.83-35.06-11l-2.83-1.51-.81-.8,2.83,1.51c9.58,5.15,20.43,11,35.07,11a54.28,54.28,0,0,0,5.52-.28c13-1.29,27.88-7.19,42.27-12.89s29-11.5,41.67-12.76c1.49-.14,3-.21,4.42-.21,12.25,0,21.44,5.28,29.55,9.94C419.05,452.53,421.16,453.74,423.31,454.84Z" transform="translate(-46.36 -166.19)"/><path class="cls-4" d="M433.71,439.07l-.12.25h0l-.12.24h0l-.12.25h0l-.12.25-.11.24h0l-.12.25h0l-.12.25h0l-.12.25h0l-.12.24h0l-.12.25h0l-.12.25h0l-.11.24h0l-.12.25h0l-.12.25h0l-.12.25h0l-.12.24h0l-.12.25h0l-.11.25h0l-.12.25h0l-.12.24h0l-.12.25-.12.25-.12.25-.11.24h0l-.12.25h0l-.12.25-.12.25h0l-.12.24h0l-.12.25h0l-.11.25h0l-.12.25-.12.25h0l-.12.24-.12.25h0l-.12.25h0l-.11.25h0l-.12.25-.12.24-.12.25L429,449l-.12.25-.11.25-.12.25-.12.25-.12.24h0l-.12.25h0l-.11.25h0L428,451l-.12.25-.12.25-.12.25-.12.25-.11.24-.12.25-.12.25-.12.25-.12.25-.11.25-.12.25-.12.25-.12.25-.12.25-.11.25-.12.25-.81-.8q3.78-8,7.57-15.88Z" transform="translate(-46.36 -166.19)"/><polygon class="cls-5" points="377.82 288.87 379.12 290.17 377.75 289.46 376.45 288.16 377.82 288.87"/><path class="cls-4" d="M431.72,435.79l1.32.65-.63,1.33c-2.53,5.27-5.06,10.55-7.57,15.88l-.66,1.4-1.37-.71c-2.15-1.1-4.26-2.31-6.5-3.61-8.12-4.65-17.31-9.94-29.56-9.94a44,44,0,0,0-4.41.22c-12.66,1.26-27.41,7.1-41.68,12.75s-29.28,11.6-42.27,12.89a54,54,0,0,1-5.52.28c-14.63,0-25.49-5.83-35.07-11L255,454.44l-1.26-.66,3.58-7.57q2.25-4.74,4.48-9.45l.66-1.4,1.37.71c2.09,1.08,4.14,2.26,6.3,3.51,8.55,4.91,17.37,10,29.89,10,1.53,0,3.09-.08,4.67-.23,12.1-1.2,25.95-6.65,40.61-12.43s29.85-11.77,43.27-13.11c1.75-.17,3.5-.26,5.22-.26,13.9,0,24.56,5.44,34,10.24,1.35.68,2.67,1.36,4,2ZM422.82,451h0c2.08-4.41,4.18-8.79,6.26-13.16-.88-.44-1.78-.91-2.69-1.36-9.11-4.65-19.45-9.92-32.62-9.92a48.21,48.21,0,0,0-4.94.25c-13,1.29-28,7.2-42.47,12.91-14.2,5.6-28.89,11.39-41.42,12.63-1.66.16-3.32.24-4.95.24-13.31,0-22.91-5.52-31.37-10.4-1.66-1-3.24-1.86-4.82-2.72-1.26,2.67-2.53,5.36-3.81,8l-2.36,5,1.59.85c9.27,5,19.78,10.62,33.66,10.62,1.72,0,3.48-.08,5.23-.25,12.57-1.27,27.26-7.08,41.46-12.71,14.46-5.73,29.41-11.65,42.49-12.94a46.64,46.64,0,0,1,4.7-.23c13,0,22.6,5.48,31,10.33C419.52,449.15,421.17,450.1,422.82,451Z" transform="translate(-46.36 -166.19)"/><path class="cls-4" d="M417.77,463.1l.81.81-2.71-1.38c-9.09-4.64-19.38-9.91-32.55-9.91a48,48,0,0,0-4.92.25c-13,1.3-28,7.2-42.47,12.9-14.21,5.61-28.93,11.41-41.49,12.64a49,49,0,0,1-4.95.25c-13.27,0-22.84-5.5-31.27-10.37-1.69-1-3.3-1.89-4.9-2.76l-.81-.8c1.61.87,3.22,1.8,4.9,2.76,8.44,4.86,18,10.37,31.27,10.37,1.62,0,3.29-.09,5-.25,12.56-1.23,27.27-7,41.49-12.64,14.49-5.7,29.47-11.6,42.46-12.91,1.65-.16,3.3-.24,4.93-.24,13.17,0,23.46,5.27,32.55,9.91Z" transform="translate(-46.36 -166.19)"/><path class="cls-14" d="M411.56,476.27l.8.8c-1.66-.88-3.33-1.85-5.09-2.85-8.4-4.82-17.93-10.27-30.85-10.27-1.58,0-3.19.08-4.79.24-13.14,1.28-28.12,7.21-42.61,12.94l-.32.12-.32.13h0l-.3.12-.32.13h-.05l-.27.11-.33.13-.07,0-.25.1-.32.12-.09,0-.23.09-.32.13-.12,0-.21.08-.32.13-.14.06-.18.07-.32.12-.17.07-.16.06-.32.13-.19.07-.13,0-.32.13-.21.08-.12.05-.32.12-.23.09-.09,0-.32.12-.26.1-.07,0-.32.12-.28.11,0,0-.33.12-.3.12h0l-.32.12-.05,0-.6.23L319,481h0l-.29.11,0,0-.62.23-.32.12-.08,0-.24.09-.32.12-.1,0-.23.08-.32.12-.12.05-.2.07-.32.12-.15.06-.18.06-.32.12-.17.06-.15.06-.32.12-.32.11-.32.12-.32.12-.32.11-.33.12-.32.11-.26.1-.06,0-.32.11-.32.11-.32.12-.3.1h0l-.32.11-1.91.65-.32.11-.19-.2-.07-.07h0l-.18-.18,0,0-.12-.11,0,0-.05,0-.1-.11h0c6.78-2.26,13.73-5,20.58-7.72,14.49-5.73,29.47-11.65,42.6-12.93,1.6-.16,3.22-.24,4.8-.24,12.92,0,22.45,5.45,30.84,10.27C408.22,474.42,409.9,475.38,411.56,476.27Z" transform="translate(-46.36 -166.19)"/><path class="cls-12" d="M382,451.32c13.17,0,23.46,5.27,32.55,9.91.92.47,1.81.93,2.71,1.37-2.08,4.39-4.14,8.76-6.22,13.17-1.66-.88-3.33-1.85-5.09-2.85-8.4-4.82-17.93-10.27-30.85-10.27-1.58,0-3.19.08-4.79.24-13.14,1.28-28.12,7.21-42.61,12.94-14.18,5.61-28.85,11.4-41.41,12.65-1.74.17-3.49.26-5.2.26-13.86,0-24.42-5.66-33.73-10.66l-1.5-.81q1.8-3.81,3.59-7.62l2.55-5.42c1.6.87,3.21,1.8,4.9,2.76,8.43,4.87,18,10.37,31.27,10.37,1.61,0,3.29-.09,4.95-.25,12.56-1.23,27.27-7,41.49-12.64,14.49-5.7,29.47-11.6,42.47-12.91C378.74,451.4,380.4,451.32,382,451.32Z" transform="translate(-46.36 -166.19)"/><path class="cls-9" d="M417.77,463.1l.81.81-.1.2-.1.21-.09.2-.1.21-.1.2-.1.21-.09.2-.1.21-.1.2-.09.21-.1.2-.1.21-.1.2-.09.21-.1.2-.1.21-.09.2-.1.21-.1.21-.1.2h0l-.09.21-.1.2-.1.21-.09.2h0l-.1.21-.1.2h0l-.09.21-.1.2-.1.21h0l-.1.2-.09.21-.1.21-.1.2-.09.21h0l-.1.2h0l-.1.21-.09.2h0l-.1.21-.1.21-.1.2h0l-.09.21h0l-.1.2-.1.21h0l-.09.2h0l-.1.21h0l-.1.21h0l-.09.2h0l-.1.21h0l-.1.2h0l-.1.21h0l-.09.21h0l-.1.2h0l-.1.21h0l-.09.21h0l-.1.2h0l-.1.21h0l-.1.21h0l-.09.2h0l-.1.21h0l-.1.21h0l-.09.2h0l-.1.21h0l-.1.21h0l-.1.2-.8-.8Z" transform="translate(-46.36 -166.19)"/><path class="cls-4" d="M411.57,479.64l.8.8c-2.18-1.11-4.32-2.34-6.58-3.64-8.48-4.85-17.24-9.87-29.38-9.87-1.48,0-3,.08-4.5.23-12.71,1.23-27.5,7.09-41.81,12.74s-29.23,11.56-42.2,12.85c-1.84.18-3.69.28-5.5.28-14.61,0-25.51-5.85-35.13-11l-2.75-1.47-.8-.8c.91.47,1.82,1,2.75,1.47,9.61,5.16,20.51,11,35.13,11,1.81,0,3.66-.1,5.5-.28,13-1.3,27.83-7.17,42.2-12.85s29.09-11.51,41.81-12.74a42.68,42.68,0,0,1,4.5-.24c12.14,0,20.89,5,29.37,9.88C407.25,477.3,409.39,478.53,411.57,479.64Z" transform="translate(-46.36 -166.19)"/><path class="cls-4" d="M421.23,461.24l1.09,1.53c-2.36,4.93-6.23,13.38-8.57,18.37l-1.3-1.3C414.79,474.85,418.88,466.17,421.23,461.24Z" transform="translate(-46.36 -166.19)"/><polygon class="cls-5" points="366.09 313.65 367.39 314.96 366.01 314.26 364.71 312.96 366.09 313.65"/><path class="cls-4" d="M419.92,460.59l1.31.65-.64,1.33c-2.35,4.93-4.67,9.87-7,14.86l-1.13,2.41-1.38-.7c-2.18-1.11-4.32-2.34-6.59-3.64-8.47-4.85-17.23-9.87-29.37-9.87-1.48,0-3,.08-4.5.23C357.9,467.09,343.1,473,328.8,478.6s-29.23,11.56-42.2,12.85c-1.84.18-3.69.28-5.5.28-14.61,0-25.51-5.86-35.13-11l-2.75-1.47-1.25-.67.62-1.29,4.19-8.9,3.21-6.83.66-1.4,1.38.71c2.11,1.1,4.18,2.29,6.38,3.55,8.51,4.91,17.31,10,29.78,10a45.86,45.86,0,0,0,4.66-.23c12.15-1.2,26.67-6.91,40.7-12.45,14.68-5.78,29.85-11.75,43.26-13.09a51,51,0,0,1,5.22-.26c13.88,0,24.52,5.43,33.91,10.23,1.35.69,2.67,1.36,4,2Zm-8.86,15.18h0c2.08-4.41,4.14-8.78,6.22-13.17-.9-.44-1.79-.9-2.71-1.37-9.09-4.64-19.38-9.91-32.55-9.91-1.62,0-3.28.08-4.92.24-13,1.31-28,7.21-42.47,12.91-14.22,5.61-28.93,11.41-41.49,12.64-1.66.16-3.34.25-4.95.25-13.27,0-22.84-5.5-31.27-10.37-1.69-1-3.3-1.89-4.9-2.76l-2.55,5.42q-1.78,3.81-3.59,7.62l1.5.81c9.31,5,19.87,10.66,33.73,10.66,1.71,0,3.46-.09,5.2-.26,12.56-1.25,27.23-7,41.41-12.65,14.49-5.73,29.47-11.66,42.61-12.94,1.6-.16,3.21-.24,4.79-.24,12.92,0,22.45,5.45,30.85,10.27C407.73,473.92,409.4,474.89,411.06,475.77Z" transform="translate(-46.36 -166.19)"/><path class="cls-4" d="M406,487.9l.8.8h0l0,0h0l0,0h0l0,0h0l0,0h0l0,0h0l0,0h0l0,0h0l0,0h0l0,0,0,0h0l0,0h0l0,0h0l0,0h0l-.05,0h0l0,0h0l0,0h0l0,0,0,0h0l0,0h0l-.05,0h0l0,0h0l0,0,0,0,0,0,0,0-.05,0h0l0,0h0l0,0h0l0,0,0,0,0,0h0l0,0,0,0h0l0,0,0,0h0l-.05,0,0,0h0l0,0,0,0,0,0h0l0,0-.05,0,0,0,0,0,0,0,0,0-.05,0,0,0,0,0,0,0,0,0,0,0h0l0,0,0,0,0,0-.05,0,0,0,0,0,0,0,0,0-.05,0,0,0,0,0,0,0c-9.12-4.65-19.46-9.92-32.63-9.92-1.63,0-3.29.08-4.94.24-13,1.3-27.95,7.21-42.44,12.91-14.21,5.61-28.92,11.4-41.44,12.63-1.68.16-3.35.25-5,.25-13.23,0-22.81-5.5-31.27-10.36l-.07,0-.08-.05-.08,0-.08,0-.08,0-.08-.05-.08,0-.07,0-.08,0-.08-.05-.08,0-.08-.05-.07,0h0l-.08-.05-.08,0-.08,0-.08-.05-.07,0h0l-.08-.05-.08,0-.07,0h0l-.08-.05-.08,0-.08-.05-.07,0h0l-.08,0-.08-.05-.07,0-.08,0h0l-.08-.05-.07,0-.08-.05-.07,0h0l-.07,0-.08,0-.07-.05-.08,0-.08,0h0l-.07-.05-.08,0-.07,0-.08,0h0l-.07-.05h0l-.07,0h0l-.08,0-.07,0h0l-.08-.05-.07,0h0l-.08,0h0l-.07,0h0l-.08,0-.07,0h0l-.08-.05-.07,0h0l-.08,0h0l-.07,0h0l-.07,0h0l-.07,0h0l-.07,0h0l-.08-.05h0l-.07,0h0l-.08,0h0l-.07,0h0l-.08,0h0l-.8-.8c1.6.86,3.21,1.79,4.9,2.76,8.45,4.85,18,10.36,31.26,10.36,1.63,0,3.3-.09,5-.25,12.53-1.23,27.23-7,41.45-12.63,14.48-5.7,29.46-11.61,42.44-12.91,1.64-.16,3.31-.24,4.94-.24,13.17,0,23.51,5.26,32.62,9.91Z" transform="translate(-46.36 -166.19)"/><polygon class="cls-9" points="359.17 321.22 360.48 322.52 354.21 335.69 352.91 334.39 359.17 321.22"/><path class="cls-12" d="M370.23,476.12c13.17,0,23.51,5.27,32.63,9.91.9.47,1.79.93,2.67,1.37l-6.26,13.17c-1.62-.87-3.25-1.8-5-2.79-8.44-4.84-18-10.33-31-10.33-1.57,0-3.18.08-4.78.24-13.14,1.28-28.12,7.2-42.6,12.94-14.17,5.61-28.81,11.4-41.35,12.65-1.75.17-3.5.26-5.22.26-13.9,0-24.44-5.67-33.74-10.66l-1.51-.82,6.17-13c1.6.87,3.22,1.8,4.9,2.76,8.46,4.86,18,10.36,31.26,10.36,1.63,0,3.3-.09,5-.25,12.52-1.23,27.23-7,41.44-12.63,14.49-5.7,29.46-11.61,42.44-12.91C366.94,476.2,368.6,476.12,370.23,476.12Z" transform="translate(-46.36 -166.19)"/><path class="cls-4" d="M399.76,504.44l.8.8c-2.13-1.09-4.22-2.3-6.45-3.57-8.11-4.66-17.31-9.94-29.51-9.94a42.47,42.47,0,0,0-4.49.23c-12.74,1.23-27.51,7.09-41.81,12.75s-29.18,11.55-42.14,12.84c-1.85.18-3.7.27-5.52.27-14.64,0-25.54-5.85-35.14-11l-2.76-1.48-.81-.8,2.76,1.47c9.61,5.17,20.51,11,35.15,11,1.81,0,3.67-.09,5.52-.27,12.95-1.3,27.79-7.17,42.14-12.85s29.07-11.51,41.81-12.75c1.5-.15,3-.23,4.48-.23,12.21,0,21.41,5.28,29.52,9.94C395.53,502.14,397.63,503.35,399.76,504.44Z" transform="translate(-46.36 -166.19)"/><path class="cls-4" d="M408.18,485.38l1.31.65-8.86,18.62-1.37-.71c-2.13-1.09-4.22-2.3-6.45-3.57-8.11-4.66-17.31-9.94-29.51-9.94a42.47,42.47,0,0,0-4.49.23c-12.74,1.23-27.51,7.09-41.81,12.74S287.82,515,274.86,516.25c-1.85.18-3.7.27-5.52.27-14.64,0-25.54-5.85-35.14-11L231.44,504l-1.25-.66L238.91,485l1.37.71c2.12,1.1,4.19,2.29,6.39,3.55,8.52,4.9,17.34,10,29.77,10a46.43,46.43,0,0,0,4.68-.24c12.12-1.18,26-6.65,40.64-12.43s29.85-11.77,43.25-13.11c1.75-.16,3.5-.25,5.23-.25,13.89,0,24.56,5.44,34,10.24,1.35.69,2.66,1.36,4,2Zm-8.91,15.19h0l6.26-13.17c-.88-.44-1.77-.9-2.67-1.37-9.12-4.64-19.46-9.91-32.63-9.91-1.63,0-3.29.08-4.94.24-13,1.3-28,7.21-42.44,12.91-14.21,5.61-28.92,11.4-41.44,12.63-1.68.16-3.35.25-5,.25-13.22,0-22.8-5.5-31.26-10.36-1.68-1-3.3-1.89-4.9-2.76l-6.17,13,1.51.82c9.3,5,19.84,10.66,33.74,10.66,1.72,0,3.47-.09,5.22-.26,12.54-1.25,27.18-7,41.35-12.65,14.48-5.74,29.46-11.66,42.6-12.94,1.6-.16,3.21-.24,4.78-.24,13,0,22.57,5.49,31,10.33C396,498.77,397.65,499.7,399.27,500.57Z" transform="translate(-46.36 -166.19)"/><polygon class="cls-5" points="354.27 338.46 355.57 339.76 354.2 339.06 352.9 337.76 354.27 338.46"/><polygon class="cls-4" points="363.13 319.85 364.43 321.15 355.57 339.76 354.27 338.46 363.13 319.85"/><polygon class="cls-4" points="363.13 319.85 364.43 321.15 355.57 339.76 354.27 338.46 363.13 319.85"/><path class="cls-4" d="M433,436.44l1.1,1.71c-2.35,4.93-6.32,13.21-8.66,18.2l-1.3-1.3C426.52,450.06,430.68,441.37,433,436.44Z" transform="translate(-46.36 -166.19)"/><polygon class="cls-4" points="398.4 245.44 399.7 246.74 390.89 265.33 389.63 264.06 398.4 245.44"/><path class="cls-15" d="M428.33,352.69c12.76-.43,21.91,3.75,35.27,10.51l.36.18.37.19-6.17,13c-12-6.52-19.51-12.22-33.34-13-1.59-.1-3.27-.12-5.05-.08-7.19.18-16.25,2.65-25.68,5.91-8.52,2.94-17.32,6.52-25.31,9.64-3.5,1.37-6.85,2.65-9.94,3.74-2.91,1-5.74,2-8.55,2.87-9.11,2.82-17.83,4.55-27.14,3.64a52.5,52.5,0,0,1-9.29-1.78c-1.55-.44-3.09-1-4.61-1.53a134,134,0,0,1-15.74-7.58l6.09-12.85c6.1,3.34,11.42,6.59,17,9a48.65,48.65,0,0,0,11.5,3.51,47.61,47.61,0,0,0,12.09.4,70.79,70.79,0,0,0,10.34-1.76c1.23-.28,2.49-.59,3.78-.94,5.61-1.52,11.74-3.72,18.09-6.16,8.44-3.23,17.25-6.89,25.7-9.93a144.6,144.6,0,0,1,16.48-5A73.3,73.3,0,0,1,428.33,352.69Z" transform="translate(-46.36 -166.19)"/><path class="cls-16" d="M419.14,377.44c12.42.33,22.45,5.36,33.4,10.93l-6.14,13c-10.7-5.76-19-11.6-30.86-12.9a48.23,48.23,0,0,0-9.35-.09,62.14,62.14,0,0,0-6.34.88,148,148,0,0,0-22.54,6.65c-10.37,3.8-21,8.31-30.82,11.83-3.42,1.23-6.75,2.34-9.92,3.26a93,93,0,0,1-11.71,2.66,51.54,51.54,0,0,1-16.49,0,58.08,58.08,0,0,1-11.65-3.27,101.58,101.58,0,0,1-10.56-4.85l-4.44-2.37,3.95-8.34,2.13-4.52c5.36,2.93,10.15,5.84,15.08,8.17a54.06,54.06,0,0,0,9.91,3.64,45.85,45.85,0,0,0,14.95,1.18c.65-.05,1.3-.12,2-.19a102.94,102.94,0,0,0,20.48-5c10.07-3.38,20.64-7.83,31-11.75a178.53,178.53,0,0,1,22.14-7.09,65.61,65.61,0,0,1,13.89-1.88C417.87,377.42,418.51,377.43,419.14,377.44Z" transform="translate(-46.36 -166.19)"/><path class="cls-17" d="M407.22,402.15c12.42.33,22.45,5.36,33.39,10.93l-6.13,13c-10.7-5.76-19-11.59-30.86-12.9a48.23,48.23,0,0,0-9.35-.09,62.42,62.42,0,0,0-6.35.89,146,146,0,0,0-22.53,6.65c-10.37,3.79-21,8.3-30.82,11.82-3.42,1.23-6.75,2.34-9.92,3.26a93.4,93.4,0,0,1-11.71,2.66,51.54,51.54,0,0,1-16.49,0,59.44,59.44,0,0,1-11.65-3.27,103.91,103.91,0,0,1-10.56-4.86l-4.44-2.37,3.95-8.33,2.13-4.52c5.36,2.92,10.15,5.83,15.08,8.16a54.09,54.09,0,0,0,9.91,3.65A45.86,45.86,0,0,0,315.82,428c.65-.05,1.3-.12,2-.19a102.25,102.25,0,0,0,20.48-5c10.07-3.37,20.64-7.83,31-11.75A178.53,178.53,0,0,1,391.41,404a66.27,66.27,0,0,1,13.89-1.88C406,402.13,406.59,402.14,407.22,402.15Z" transform="translate(-46.36 -166.19)"/><path class="cls-18" d="M393.65,427c13.47-.16,23.74,5.11,35.34,11l-6.17,13c-11.67-6.28-20.51-12.85-34.84-13.15-1.15,0-2.33,0-3.56.05a76.61,76.61,0,0,0-16.67,3c-8.21,2.31-16.86,5.65-25.56,9.08-7.78,3.06-15.59,6.2-23.14,8.72-9.06,3-17.75,5.18-25.56,5.26-1.36,0-2.68,0-4-.11a57.56,57.56,0,0,1-19.5-5.15c-3.92-1.72-7.8-3.75-11.8-5.9l6.09-12.85c3.73,2,7.16,4.06,10.54,5.88,5.84,3.15,11.57,5.7,18.53,6.73A48.39,48.39,0,0,0,303,453a83.12,83.12,0,0,0,20-4h0l.06,0c7.55-2.35,15.47-5.44,23.41-8.57C355,437,363.71,433.56,372,431a84.09,84.09,0,0,1,19.64-3.92C392.31,427.07,393,427,393.65,427Z" transform="translate(-46.36 -166.19)"/><path class="cls-19" d="M381.8,451.65c13.47-.16,23.73,5.11,35.33,11l-6.17,13c-11.67-6.29-20.5-12.85-34.84-13.16-1.14,0-2.33,0-3.55.05a76.61,76.61,0,0,0-16.67,3c-8.21,2.31-16.87,5.65-25.56,9.08-7.78,3.07-15.59,6.2-23.14,8.72-9.07,3-17.76,5.18-25.56,5.26-1.36,0-2.69,0-4-.11a57.27,57.27,0,0,1-19.49-5.14c-3.92-1.73-7.8-3.76-11.8-5.91l6.09-12.85c3.73,2,7.15,4.06,10.54,5.88,5.84,3.15,11.57,5.7,18.53,6.74a48.39,48.39,0,0,0,9.58.44,82.68,82.68,0,0,0,20-4h0l.06,0c7.56-2.35,15.48-5.44,23.42-8.56,8.64-3.39,17.31-6.82,25.59-9.35a84.53,84.53,0,0,1,19.63-3.92C380.45,451.68,381.13,451.66,381.8,451.65Z" transform="translate(-46.36 -166.19)"/><path class="cls-20" d="M368.18,476.74a48.69,48.69,0,0,1,7.36.11c10,1,19.31,5.25,28.15,9.85l1.75.9-6.17,13c-12-6.48-21-13-35.21-13.13-1.39,0-2.84,0-4.34.14a71.34,71.34,0,0,0-9.32,1.4c-8.18,1.76-16.92,4.83-25.66,8.18-10.95,4.21-21.91,8.87-31.74,12-1.22.38-2.41.74-3.59,1.07a97.35,97.35,0,0,1-11.08,2.52,53.57,53.57,0,0,1-14.83.47,54.92,54.92,0,0,1-13.35-3.36,98,98,0,0,1-11-5.09l-4.44-2.37,6.09-12.85c5,2.71,9.42,5.37,13.89,7.58a53,53,0,0,0,12.9,4.63,47.4,47.4,0,0,0,14.34.66l1.43-.15a86.27,86.27,0,0,0,13.32-2.82c10.22-2.92,21-7.42,31.75-11.66,9.38-3.69,18.74-7.17,27.71-9.22A71.68,71.68,0,0,1,368.18,476.74Z" transform="translate(-46.36 -166.19)"/></svg>